<?xml version="1.0" encoding="utf-8"?>
<!-- Generator: Adobe Illustrator 20.1.0, SVG Export Plug-In . SVG Version: 6.00 Build 0)  -->
<svg version="1.1" id="Layer_1" xmlns="http://www.w3.org/2000/svg" xmlns:xlink="http://www.w3.org/1999/xlink" x="0px" y="0px"
	 viewBox="0 0 551.1 102.1" style="enable-background:new 0 0 551.1 102.1;" xml:space="preserve">
<style type="text/css">
	.st0{fill:#231F20;}
</style>
<g>
	<polygon class="st0" points="311.7,15.3 290.6,30.7 277.3,20.9 281.1,18.1 290.6,25.1 304,15.3 290.6,5.6 256.2,30.7 235.1,15.3 
		256.2,0 269.6,9.7 265.7,12.5 256.2,5.6 242.8,15.3 256.2,25.1 290.6,0 	"/>
	<g>
		<path class="st0" d="M27.6,75.4L4.9,51.1v24.3H0V45.7h6.1l22.7,24.3V45.7h4.9v29.7H27.6z"/>
		<path class="st0" d="M71.5,72.3c-3.3,2.5-7.9,3.9-13,3.9s-9.9-1.5-13.1-4c-4-3-6-6.9-6-11.8c0-4.8,2-8.7,6.1-11.7
			c3.3-2.5,8-4,13-4c5,0,9.7,1.5,13,4c4,3,6,7,6,11.7C77.5,65.4,75.5,69.3,71.5,72.3z M67.9,52.1c-2.4-1.7-5.7-2.8-9.5-2.8
			c-8.3,0-14,4.8-14,11.2c0,6.7,5.5,11.2,14,11.2c8.5,0,13.9-4.6,13.9-11.2C72.4,57.1,70.9,54.3,67.9,52.1z"/>
		<path class="st0" d="M111.1,75.4l-8-11.3h-15v11.3h-4.9V45.7h23.4c6.2,0,10,3.6,10,9.3c0,5.2-3.3,8-7.7,8.8l8,11.6H111.1z
			 M111.5,55.1c0-3.3-2-4.9-6.1-4.9H88.1v9.4h17.7C109.5,59.6,111.5,58,111.5,55.1z"/>
		<path class="st0" d="M137.2,50.2v25.2h-4.9V50.2h-14.2v-4.5h33.3v4.5H137.2z"/>
		<path class="st0" d="M184.6,75.4V62.2h-23.8v13.2h-4.9V45.7h4.9v12h23.8v-12h4.9v29.7H184.6z"/>
		<path class="st0" d="M209.2,49.3c-6.1,0-9.4,1.6-9.4,4c0,1.4,0.9,2.3,2.6,2.9c3.2,1.1,8.1,0.8,14.1,1.6c7.4,0.9,10.9,3.5,10.9,8.4
			c0,6.2-5.7,9.9-16.2,9.9c-7.5,0-13.4-1.6-17.7-5l2.7-3.6c4.8,2.9,9.6,4.3,15,4.3c7,0,10.8-2,10.8-5.2c0-4.2-5-4.2-13.8-4.8
			c-9.1-0.6-13.7-2-13.7-7.7c0-5.5,5.3-9,15-9c6.4,0,11.8,1.5,16.1,4.4l-3,3.3C218.3,50.4,213.9,49.3,209.2,49.3z"/>
		<path class="st0" d="M261.7,75.4V62.2h-23.8v13.2H233V45.7h4.9v12h23.8v-12h4.9v29.7H261.7z"/>
		<path class="st0" d="M304.4,72.3c-3.3,2.5-7.9,3.9-13,3.9s-9.9-1.5-13.1-4c-4-3-6-6.9-6-11.8c0-4.8,2-8.7,6.1-11.7
			c3.3-2.5,8-4,13-4c5,0,9.7,1.5,13,4c4,3,6,7,6,11.7C310.4,65.4,308.4,69.3,304.4,72.3z M300.8,52.1c-2.4-1.7-5.7-2.8-9.5-2.8
			c-8.3,0-14,4.8-14,11.2c0,6.7,5.5,11.2,14,11.2c8.5,0,13.9-4.6,13.9-11.2C305.3,57.1,303.8,54.3,300.8,52.1z"/>
		<path class="st0" d="M344,75.4l-8-11.3h-15v11.3H316V45.7h23.4c6.2,0,10,3.6,10,9.3c0,5.2-3.3,8-7.7,8.8l8,11.6H344z M344.4,55.1
			c0-3.3-2-4.9-6.1-4.9H321v9.4h17.7C342.4,59.6,344.4,58,344.4,55.1z"/>
		<path class="st0" d="M355.4,75.4V45.7h29.9v4.5h-25v7.6h17.4v4.5h-17.4v8.7h26.1v4.5H355.4z"/>
		<path class="st0" d="M440.6,75.4V51.1h-0.1L425,70.5l-15.3-19.3h-0.1v24.3h-4.9V45.7h6.1l14.3,18l14.3-18h6.1v29.7H440.6z"/>
		<path class="st0" d="M482.2,75.4l-3.4-6.6h-20l-3.4,6.6H450l15.7-29.7h6.2l15.7,29.7H482.2z M468.8,50l-7.6,14.3h15.1L468.8,50z"
			/>
		<path class="st0" d="M491.8,75.4V45.7h4.9v25.2h22.9v4.5H491.8z"/>
		<path class="st0" d="M523.3,75.4V45.7h4.9v25.2h22.9v4.5H523.3z"/>
	</g>
	<g>
		<path class="st0" d="M195.7,101.7l-1.3-2.5h-7.6l-1.3,2.5h-2l5.9-11.2h2.3l5.9,11.2H195.7z M190.6,92.1l-2.9,5.4h5.7L190.6,92.1z"
			/>
		<path class="st0" d="M213.7,91.9c-2.3,0-3.6,0.6-3.6,1.5c0,0.5,0.3,0.9,1,1.1c1.2,0.4,3.1,0.3,5.4,0.6c2.8,0.4,4.1,1.3,4.1,3.2
			c0,2.4-2.1,3.7-6.1,3.7c-2.9,0-5.1-0.6-6.7-1.9l1-1.4c1.8,1.1,3.6,1.6,5.7,1.6c2.7,0,4.1-0.8,4.1-2c0-1.6-1.9-1.6-5.2-1.8
			c-3.5-0.2-5.2-0.8-5.2-2.9c0-2.1,2-3.4,5.7-3.4c2.4,0,4.5,0.6,6.1,1.7l-1.1,1.3C217.1,92.3,215.4,91.9,213.7,91.9z"/>
		<path class="st0" d="M225.7,101.7V90.5h1.9v11.2H225.7z"/>
		<path class="st0" d="M247.2,101.7v-9.2h0l-5.8,7.3l-5.8-7.3h0v9.2h-1.9V90.5h2.3l5.4,6.8l5.4-6.8h2.3v11.2H247.2z"/>
		<path class="st0" d="M266.6,100.6c-1.2,0.9-3,1.5-4.9,1.5c-2,0-3.7-0.6-5-1.5c-1.5-1.1-2.3-2.6-2.3-4.5c0-1.8,0.8-3.3,2.3-4.4
			c1.3-0.9,3-1.5,4.9-1.5c1.9,0,3.7,0.6,4.9,1.5c1.5,1.1,2.3,2.7,2.3,4.4C268.9,97.9,268.1,99.4,266.6,100.6z M265.2,92.9
			c-0.9-0.7-2.2-1.1-3.6-1.1c-3.1,0-5.3,1.8-5.3,4.3c0,2.5,2.1,4.3,5.3,4.3c3.2,0,5.3-1.7,5.3-4.3C266.9,94.8,266.4,93.7,265.2,92.9
			z"/>
		<path class="st0" d="M284.7,101.7l-8.6-9.2v9.2h-1.9V90.5h2.3l8.6,9.2v-9.2h1.9v11.2H284.7z"/>
		<path class="st0" d="M313.5,101.7v-9.2h0l-5.8,7.3l-5.8-7.3h0v9.2h-1.9V90.5h2.3l5.4,6.8l5.4-6.8h2.3v11.2H313.5z"/>
		<path class="st0" d="M331.7,101.7l-1.3-2.5h-7.6l-1.3,2.5h-2l5.9-11.2h2.3l5.9,11.2H331.7z M326.7,92.1l-2.9,5.4h5.7L326.7,92.1z"
			/>
		<path class="st0" d="M338,101.7V90.5h1.9v9.6h8.7v1.7H338z"/>
		<path class="st0" d="M352.6,101.7V90.5h1.9v9.6h8.7v1.7H352.6z"/>
	</g>
</g>
</svg>
