<?xml version="1.0" standalone="no"?>
<!DOCTYPE svg PUBLIC "-//W3C//DTD SVG 1.1//EN" "http://www.w3.org/Graphics/SVG/1.1/DTD/svg11.dtd">
<svg xmlns="http://www.w3.org/2000/svg"><metadata>This SVG WebFont was generated by YouWorkForThem.
Copyright Â© 2015 by Jonathan Hill. All rights reserved.</metadata><defs><font horiz-adv-x="1241" id="ywftsvg"><font-face ascent="1536" bbox="-145 -530 2748 2355" cap-height="1434" descent="-512" font-family="" font-stretch="normal" font-weight="400" panose-1="0 0 5 0 0 0 0 0 0 0" underline-position="0" underline-thickness="0" unicode-range="U+0020-FB02" units-per-em="2048" x-height="1024"/><missing-glyph d="M0 0v1434h1024v-1434h-1024zM512 809l348 522h-696zM573 717l349 -522v1044zM164 102h696l-348 523zM102 1239v-1044l349 522z" horiz-adv-x="1024"/><glyph d="M1184 1020v-1020h-174v877h-559v-877h-177v877h-202v112l190 31h12v61q0 188 92.5 284.5t237.5 96.5t293 -86l-45 -123q-122 53 -218 53q-182 -1 -183 -212v-74h733z" glyph-name="uniFB01" horiz-adv-x="1343" unicode="fi"/><glyph d="M274 1020v61q0 188 92.5 284.5t237.5 96.5t293 -86l-45 -123q-122 53 -218 53q-182 -1 -183 -212v-74h309v-143h-309v-877h-177v877h-202v112l190 31h12zM1327 -29q-125 0 -209 75t-84 228v1160h174v-1160q0 -145 158 -145q28 0 57 6l52 -137q-72 -27 -148 -27z" glyph-name="uniFB02" horiz-adv-x="1574" unicode="fl"/><glyph d="M0 0v1434h1024v-1434h-1024zM512 809l348 522h-696zM573 717l349 -522v1044zM164 102h696l-348 523zM102 1239v-1044l349 522z" glyph-name=".notdef" horiz-adv-x="1024"/><glyph glyph-name="glyph1" horiz-adv-x="0"/><glyph glyph-name="glyph2" horiz-adv-x="681"/><glyph glyph-name="space" horiz-adv-x="501" unicode=" "/><glyph d="M342 358h-149l-25 1076h199zM267 221q48 0 81 -33.5t33 -81t-33 -80t-80 -32.5t-80.5 32.5t-33.5 80.5t32.5 81t80.5 33z" glyph-name="exclam" horiz-adv-x="536" unicode="!"/><glyph d="M285 997h-148l-31 539h211zM672 997h-148l-32 539h210z" glyph-name="quotedbl" horiz-adv-x="808" unicode="&quot;"/><glyph d="M1067 856l-53 -303h248l-29 -164h-248l-70 -389h-186l68 389h-301l-70 -389h-186l67 389h-239l28 164h240l55 303h-241l28 164h242l72 414h188l-74 -414h303l72 414h188l-73 -414h247l-28 -164h-248zM881 856h-303l-54 -303h301z" glyph-name="numbersign" horiz-adv-x="1411" unicode="#"/><glyph d="M743 -240h-174v217q-139 18 -264 82t-201 156l107 133q76 -94 205 -146t260 -52t229.5 65.5t95.5 181.5q0 75 -31.5 105t-52 44.5t-67 31t-117.5 35.5q-72 20 -86 24q-285 76 -394.5 161t-111.5 246q0 194 124.5 294t303.5 120v215h174v-215q256 -25 433 -180l-107 -135 q-170 139 -412 139q-313 -2 -313 -238q2 -59 42 -107.5t312 -121.5q87 -17 182 -50.5t164 -72.5t114.5 -113.5t46.5 -172.5q2 -194 -136 -301t-326 -130v-215z" glyph-name="dollar" horiz-adv-x="1282" unicode="$"/><glyph d="M848 1057q0 -172 -105.5 -289t-275.5 -117t-276.5 117t-106.5 289t106.5 289.5t276.5 116.5t275.5 -117.5t105.5 -288.5zM651 -29h-198l821 1491h199zM465 1315q-92 0 -151.5 -70.5t-59.5 -186.5t59.5 -187.5t152.5 -71.5t152.5 70.5t59.5 187.5t-60.5 187.5t-152.5 70.5 zM1862 377q0 -172 -105.5 -289t-275.5 -117t-276.5 117t-106.5 289t106.5 289.5t276.5 116.5t275.5 -117.5t105.5 -288.5zM1480 635q-93 0 -152.5 -70.5t-59.5 -186.5t60.5 -187.5t152.5 -71.5t151.5 70.5t59.5 187.5t-59.5 187.5t-152.5 70.5z" glyph-name="percent" horiz-adv-x="1945" unicode="%"/><glyph d="M1343 0h-237l-68 74q-150 -102 -382 -102t-379.5 116.5t-147.5 321.5q0 256 233 364l23 10l-49 54q-84 92 -82 235q-2 174 111 281.5t295 107.5t290.5 -104.5t110.5 -270.5q-4 -116 -61 -190t-289 -174l-2 -2l303 -326v240h202v-219q0 -104 -45 -193l174 -186v-37z M660 1278q-99 0 -152 -52t-53 -142t49 -144l67 -72l60 23q141 61 184 96t43 96q4 86 -47.5 140.5t-150.5 54.5zM659 152q159 0 250 63l-391 424l-82 -37q-104 -57 -104 -186t84 -196.5t243 -67.5z" glyph-name="ampersand" horiz-adv-x="1470" unicode="&amp;"/><glyph d="M285 997h-148l-31 539h211z" glyph-name="quotesingle" horiz-adv-x="421" unicode="'"/><glyph d="M350 548q0 -286 90 -531.5t256 -413.5l-71 -99q-215 160 -337 435.5t-122 609.5t119.5 609t332.5 435l74 -100q-164 -168 -253 -413.5t-89 -531.5z" glyph-name="parenleft" horiz-adv-x="800" unicode="("/><glyph d="M635 549q0 -334 -122 -609.5t-337 -435.5l-72 99q166 168 256.5 413.5t90.5 531.5t-89 531.5t-253 413.5l73 100q213 -160 333 -435t120 -609z" glyph-name="parenright" horiz-adv-x="800" unicode=")"/><glyph d="M520 1188l256 100l60 -182l-267 -70l174 -213l-155 -112l-148 229l-149 -229l-154 112l174 213l-266 70l59 182l256 -100l-16 274h193z" glyph-name="asterisk" horiz-adv-x="880" unicode="*"/><glyph d="M1040 514h-395v-395h-164v395h-395v164h395v395h164v-395h395v-164z" glyph-name="plus" horiz-adv-x="1124" unicode="+"/><glyph d="M234 221q45 0 77.5 -30.5t40.5 -81.5q14 -88 -42 -202t-146 -181l-78 49q94 94 117 223q-33 8 -57.5 39t-24.5 75t34 76.5t79 32.5z" glyph-name="comma" horiz-adv-x="460" unicode=","/><glyph d="M766 522h-660v146h660v-146z" glyph-name="hyphen" horiz-adv-x="872" unicode="-"/><glyph d="M211 221q47 0 80 -33.5t33 -81t-33 -80t-80 -32.5t-81 32.5t-34 80.5t34 81t81 33z" glyph-name="period" horiz-adv-x="419" unicode="."/><glyph d="M236 -29h-203l749 1491h203z" glyph-name="slash" horiz-adv-x="1048" unicode="/"/><glyph d="M1389 696.5q0 -200.5 -75 -365.5t-218.5 -262.5t-326.5 -97.5t-326.5 97.5t-220.5 262.5t-77 365q0 201 77 367t220.5 263t326.5 96t326.5 -98t218.5 -262t75 -365.5zM768 1237q-184 0 -302 -150.5t-118 -389.5t119 -390t302 -151t301 151.5t118 389t-118 389t-302 151.5 z" glyph-name="zero" horiz-adv-x="1536" unicode="0"/><glyph d="M649 164h305v-164h-837v164h338v1001l-285 -137l-84 150l453 215h110v-1229z" glyph-name="one" horiz-adv-x="1040" unicode="1"/><glyph d="M309 164h785v-164h-988v186q6 216 146 317t330 195q190 95 249.5 148t59.5 170t-80 169t-256 52t-336 -51l-74 157q184 78 416 78q401 0 467 -161.5t66 -229.5t-7.5 -107.5t-15.5 -70.5t-30.5 -60.5t-39 -51t-84 -70.5t-218.5 -125q-152 -76 -201 -104.5t-119 -85 t-70 -171.5v-20z" glyph-name="two" unicode="2"/><glyph d="M1143 406q0 -197 -157.5 -316t-413.5 -119t-466 88l74 158q184 -61 375 -61t287 68.5t96 180.5t-95 179t-259 67h-185v174h185q141 0 220 55.5t79 148.5t-79.5 150.5t-243.5 57.5t-322 -51l-74 157q184 78 412 78t369.5 -108.5t139.5 -284.5q0 -94 -47 -168t-131 -119 q111 -49 173.5 -136t62.5 -199z" glyph-name="three" horiz-adv-x="1290" unicode="3"/><glyph d="M1004 508h202v-164h-202v-344h-195v344h-743v125l782 924h156v-885zM809 508v573l-479 -573h479z" glyph-name="four" horiz-adv-x="1302" unicode="4"/><glyph d="M1038 1229h-645v-400q109 33 260 33q225 0 366.5 -115.5t140.5 -316.5t-157.5 -330t-411.5 -129t-464 95l74 157q183 -67 373 -67t286 75.5t96 198.5t-79.5 197.5t-243.5 74.5t-322 -67l-112 113v645h839v-164z" glyph-name="five" horiz-adv-x="1296" unicode="5"/><glyph d="M766 1421q199 0 356 -100l-59 -127q-133 63 -301 63t-285 -139t-133 -360q184 106 402 106t349.5 -114.5t131.5 -317.5t-148.5 -332t-373.5 -129q-143 0 -254 56.5t-207.5 205.5t-96.5 435q0 336 170 544.5t449 208.5zM752 700q-223 0 -406 -106q14 -219 105 -339 t247 -120t245 81t89 217q0 267 -280 267z" glyph-name="six" horiz-adv-x="1353" unicode="6"/><glyph d="M1030 1393v-129l-692 -1264h-229l692 1229h-744v164h973z" glyph-name="seven" horiz-adv-x="1083" unicode="7"/><glyph d="M709.5 -29q-248.5 0 -405.5 119t-157 316q0 242 240 333q-184 88 -184 291q0 174 141 282.5t367 108.5q225 0 366.5 -108.5t139.5 -282.5q-1 -203 -185 -291q242 -92 240 -333q0 -197 -157 -316t-405.5 -119zM711 1237q-141 0 -222 -57.5t-81 -150.5t79.5 -149.5 t223.5 -56.5q143 0 223 56.5t80 149.5t-81 150.5t-222 57.5zM711 156q166 0 262 68.5t96 180.5t-95 179t-263 67t-264.5 -68.5t-96.5 -178.5t97.5 -179t263.5 -69z" glyph-name="eight" horiz-adv-x="1419" unicode="8"/><glyph d="M649 1421q145 0 255 -56t208 -207t94 -433q2 -336 -168 -545t-448 -209q-199 0 -357 101l60 127q131 -63 300 -63t285.5 139t131.5 360q-182 -107 -402 -107t-350.5 115t-130.5 317t148.5 331.5t373.5 129.5zM656 1257q-156 0 -245 -80.5t-89 -216.5q0 -268 280 -268 q223 0 408 107q-16 219 -107 338.5t-247 119.5z" glyph-name="nine" horiz-adv-x="1353" unicode="9"/><glyph d="M211 1026q47 0 80 -34t33 -81t-33 -79.5t-80 -32.5t-81 32.5t-34 80.5t34 81t81 33zM211 221q47 0 80 -33.5t33 -81t-33 -80t-80 -32.5t-81 32.5t-34 80.5t34 81t81 33z" glyph-name="colon" horiz-adv-x="419" unicode=":"/><glyph d="M234 1026q48 0 81 -32t33 -80t-33.5 -82.5t-79.5 -34.5t-80 34.5t-34 81.5t32.5 80t80.5 33zM234 221q45 0 77.5 -30.5t40.5 -81.5q14 -88 -42 -202t-146 -181l-78 49q94 94 117 223q-33 8 -57.5 39t-24.5 75t34 76.5t79 32.5z" glyph-name="semicolon" horiz-adv-x="460" unicode=";"/><glyph d="M1022 897l-709 -309l709 -309v-205l-936 415v199l936 416v-207z" glyph-name="less" horiz-adv-x="1087" unicode="&lt;"/><glyph d="M1036 688h-950v164h950v-164zM1036 336h-950v164h950v-164z" glyph-name="equal" horiz-adv-x="1122" unicode="="/><glyph d="M1004 688v-199l-938 -415v205l710 309l-710 309v207z" glyph-name="greater" horiz-adv-x="1087" unicode=">"/><glyph d="M1030 1042q0 -165 -73.5 -235t-129 -103.5t-139.5 -74.5t-113.5 -70t-29.5 -80l-2 -121h-158l-4 131q-4 106 41.5 164.5t183.5 124.5t184 115t46 149q0 147 -70 201.5t-243 54.5t-343 -61l-74 133q195 92 418 92t364.5 -91.5t141.5 -328.5zM465 221q47 0 81 -33.5t34 -81 t-34 -80t-81 -32.5t-80 32.5t-33 80.5t33 81t80 33z" glyph-name="question" horiz-adv-x="1159" unicode="?"/><glyph d="M1071 1462q205 0 379 -74.5t293 -202.5t184.5 -301.5t65.5 -363.5t-89 -326.5t-239 -173.5q-195 -49 -428 89v73q-113 -96 -246 -96q-164 0 -268.5 124t-104.5 305t104.5 305t268.5 124q133 0 246 -96v96h176v-743q117 -49 207 -27q90 23 140 113t50 225q0 223 -90 401.5 t-260 280.5t-389 102t-389 -102t-261 -280.5t-91 -400.5t91 -401.5t261 -281.5t389 -102q143 0 275 47l63 -156q-159 -57 -351 -57t-366 74.5t-292.5 202.5t-185.5 302t-67 371q0 264 113 480t326 343t485 127zM991 233q131 0 246 115v334q-115 115 -246 115q-86 0 -138 -77 t-52 -205t52 -205t138 -77z" glyph-name="at" horiz-adv-x="2140" unicode="@"/><glyph d="M1413 0h-205l-125 330h-690l-123 -330h-207l562 1434h229zM455 494h567l-283 757z" glyph-name="A" horiz-adv-x="1478" unicode="A"/><glyph d="M854 0h-647v1434h579q174 0 291 -106.5t117 -276.5q0 -92 -41 -166t-111 -117q115 -37 185.5 -130t68.5 -220q0 -186 -127 -302t-315 -116zM401 1270v-436h381q92 0 150.5 57t58.5 160q0 102 -59.5 160.5t-151.5 58.5h-379zM1096 418q0 117 -70 184.5t-176 65.5h-449 v-504h447q106 0 177 68.5t71 185.5z" glyph-name="B" horiz-adv-x="1402" unicode="B"/><glyph d="M868 1278q-221 0 -360 -157.5t-139 -402.5t139 -404.5t360 -159.5q256 0 500 165l53 -147q-125 -96 -270 -148.5t-283 -52.5q-207 0 -367.5 100.5t-247.5 269.5t-87 376t87 377t247.5 270t367.5 98q137 0 282.5 -52t270.5 -148l-53 -148q-242 164 -500 164z" glyph-name="C" horiz-adv-x="1566" unicode="C"/><glyph d="M207 1434h493q317 0 513 -202t196 -515.5t-195.5 -515t-513.5 -201.5h-493v1434zM401 164h299q231 0 368.5 150.5t137.5 402.5t-137 402.5t-369 150.5h-299v-1106z" glyph-name="D" horiz-adv-x="1574" unicode="D"/><glyph d="M1169 164v-164h-962v1434h942v-164h-748v-439h668v-161h-668v-506h768z" glyph-name="E" horiz-adv-x="1273" unicode="E"/><glyph d="M401 1270v-479h627v-162h-627v-629h-194v1434h901v-164h-707z" glyph-name="F" horiz-adv-x="1212" unicode="F"/><glyph d="M1493 752v-752h-145l-23 127q-217 -156 -439 -156t-384 100.5t-249 269.5t-87 376t87 377t249 270t368 98q141 0 291 -53t281 -154l-53 -147q-250 170 -521 170q-221 0 -360 -157.5t-139 -402.5t140 -403.5t356 -158.5t433 120v312h-292v164h487z" glyph-name="G" horiz-adv-x="1691" unicode="G"/><glyph d="M1419 1434v-1434h-194v670h-824v-670h-194v1434h194v-603h824v603h194z" glyph-name="H" horiz-adv-x="1626" unicode="H"/><glyph d="M401 0h-194v1434h194v-1434z" glyph-name="I" horiz-adv-x="608" unicode="I"/><glyph d="M758 1434v-947q0 -219 -138.5 -367.5t-361.5 -148.5q-106 0 -197 37l54 146q68 -18 143 -19q137 0 221 97.5t84 254.5v947h195z" glyph-name="J" horiz-adv-x="962" unicode="J"/><glyph d="M401 0h-194v1434h194v-689l674 689h273l-562 -551l613 -883h-240l-504 756l-254 -250v-506z" glyph-name="K" horiz-adv-x="1462" unicode="K"/><glyph d="M1075 164v-164h-868v1434h194v-1270h674z" glyph-name="L" horiz-adv-x="1140" unicode="L"/><glyph d="M1622 1434v-1434h-195v1061l-419 -598h-197l-420 598v-1061h-194v1434h172l540 -793l541 793h172z" glyph-name="M" horiz-adv-x="1828" unicode="M"/><glyph d="M1378 1434v-1434h-172l-815 1079v-1079h-194v1434h172l815 -1080v1080h194z" glyph-name="N" horiz-adv-x="1574" unicode="N"/><glyph d="M870 1462q207 0 369 -100t248 -269t86 -376t-86 -376t-248 -269.5t-369 -100.5t-368.5 100.5t-248.5 269.5t-87 376t87 377t248.5 269t368.5 99zM869 1278q-222 0 -361 -157.5t-139 -402.5t139 -403.5t362 -158.5t361.5 157.5t138.5 403.5t-139.5 403.5t-361.5 157.5z " glyph-name="O" horiz-adv-x="1740" unicode="O"/><glyph d="M207 1434h643q174 0 295 -128t121 -331t-121 -330t-295 -127h-449v-518h-194v1434zM1063 976q0 138 -61.5 216t-151.5 78h-449v-588h449q88 0 150.5 78t62.5 216z" glyph-name="P" horiz-adv-x="1392" unicode="P"/><glyph d="M1571 719q0 -205 -85 -373t-235 -266l170 -289l-202 -37l-138 248q-102 -31 -215 -31q-207 0 -368.5 100.5t-247.5 269.5t-86 376t86 377t247.5 270t369.5 99t370 -101t248 -269t86 -374zM866 156q63 0 123 14l-172 309l178 33l158 -266q102 74 158.5 196.5t56.5 274.5 q0 246 -139 403.5t-361 157.5t-361.5 -157.5t-139.5 -402.5t139 -403.5t360 -158.5z" glyph-name="Q" horiz-adv-x="1734" unicode="Q"/><glyph d="M401 571v-571h-194v1434h622q174 0 295 -121t119 -309q0 -152 -75.5 -260.5t-200.5 -149.5l348 -594h-230l-313 571h-371zM401 735h428q92 0 152.5 72t60.5 196t-60 195.5t-153 71.5h-428v-535z" glyph-name="R" horiz-adv-x="1380" unicode="R"/><glyph d="M686 1462q125 0 259 -50t231 -134l-107 -135q-170 139 -412 139q-311 -2 -311 -238q0 -58 28 -92q53 -64 326 -137q90 -18 182 -51q94 -34 126 -52q104 -59 140 -116q56 -86 57 -192.5t-46 -191.5t-126 -136q-163 -105 -345 -105t-337.5 67.5t-246.5 176.5l107 133 q76 -94 205 -146t261 -52t229.5 65.5t97.5 181.5q0 71 -43.5 114.5t-100 63t-128 39t-85.5 23.5q-283 76 -393.5 161t-110.5 246q0 111 44 195t121 131t165 69.5t213 22.5z" glyph-name="S" horiz-adv-x="1310" unicode="S"/><glyph d="M1198 1270h-469v-1270h-197v1270h-469v164h1135v-164z" glyph-name="T" horiz-adv-x="1261" unicode="T"/><glyph d="M1374 1434v-949q0 -219 -161.5 -366.5t-420.5 -147.5t-422 148.5t-163 365.5v949h194v-949q0 -154 105.5 -248t285.5 -94t284 94.5t104 247.5v949h194z" glyph-name="U" horiz-adv-x="1572" unicode="U"/><glyph d="M821 0h-229l-529 1434h209l435 -1211l434 1211h207z" glyph-name="V" horiz-adv-x="1413" unicode="V"/><glyph d="M1649 0h-256l-353 1235l-352 -1235h-256l-369 1434h209l295 -1192l330 1192h287l329 -1192l297 1192h207z" glyph-name="W" horiz-adv-x="2080" unicode="W"/><glyph d="M848 723l530 -723h-235l-434 590l-414 -590h-232l533 743l-508 691h238l409 -557l389 557h230z" glyph-name="X" horiz-adv-x="1443" unicode="X"/><glyph d="M805 0h-195v500l-547 934h232l418 -729l420 729h231l-559 -932v-502z" glyph-name="Y" horiz-adv-x="1427" unicode="Y"/><glyph d="M1182 164v-164h-1078l-2 129l809 1141h-757v164h1007v-129l-809 -1141h830z" glyph-name="Z" horiz-adv-x="1284" unicode="Z"/><glyph d="M383 1466v-1728h315v-144h-491v2016h491v-144h-315z" glyph-name="bracketleft" horiz-adv-x="761" unicode="["/><glyph d="M1016 -29h-203l-750 1491h203z" glyph-name="backslash" horiz-adv-x="1048" unicode="\"/><glyph d="M555 1610v-2016h-492v144h316v1728h-316v144h492z" glyph-name="bracketright" horiz-adv-x="761" unicode="]"/><glyph d="M645 834l-192 454l-193 -452h-176l276 626h185l278 -628h-178z" glyph-name="asciicircum" horiz-adv-x="907" unicode="^"/><glyph d="M1098 -350h-994v143h994v-143z" glyph-name="underscore" horiz-adv-x="1202" unicode="_"/><glyph d="M559 1157h-190l-285 354h215z" glyph-name="grave" horiz-adv-x="643" unicode="`"/><glyph d="M1083 1024v-1024h-174v131q-155 -160 -349 -160t-319.5 156t-125.5 385t126 385q127 156 321 156t347 -158v129h174zM571 137q82 0 173.5 41t164.5 117v434q-74 76 -165 117t-173 41q-127 0 -199.5 -101.5t-72.5 -273.5t72.5 -273.5t199.5 -101.5z" glyph-name="a" unicode="a"/><glyph d="M693 1053q196 0 321 -155t125 -386t-125 -386t-321 -155t-351 162v-133h-174v1434h174v-543q155 162 351 162zM682 137q127 0 200.5 102.5t73.5 271.5t-73.5 272.5t-200.5 103.5q-82 0 -173 -41t-167 -121v-426q76 -80 167 -121t173 -41z" glyph-name="b" horiz-adv-x="1265" unicode="b"/><glyph d="M645 887q-160 0 -249 -102.5t-88 -271.5t90 -272.5t249 -103.5t330 94l45 -120q-182 -139 -397 -139.5t-356.5 156.5t-141.5 387t142.5 385t356.5 154t396 -143l-43 -118q-174 94 -334 94z" glyph-name="c" horiz-adv-x="1146" unicode="c"/><glyph d="M1096 1434v-1434h-174v133q-156 -162 -352 -162t-320.5 156t-124.5 386t126 386t327 154q86 0 177 -42t167 -120v543h174zM584 137q80 0 172 42t166 120v426q-74 78 -165 120t-179 42q-125 0 -198 -103.5t-73 -272.5t74 -271.5t203 -102.5z" glyph-name="d" horiz-adv-x="1263" unicode="d"/><glyph d="M1098 514q0 -23 -2 -45h-785q0 -10 2 -18q16 -141 100.5 -227.5t231 -86.5t318.5 94l45 -120q-182 -139 -394 -139.5t-349.5 155.5t-137.5 386t137.5 386t362.5 155t348 -152.5t123 -387.5zM628 887q-124 0 -205 -74t-106 -199h598q-20 129 -91.5 201t-195.5 72z" glyph-name="e" horiz-adv-x="1204" unicode="e"/><glyph d="M451 1094v-74h309v-143h-309v-877h-177v877h-202v112l190 31h12v61q0 188 92.5 284.5t237.5 96.5t293 -86l-45 -123q-122 54 -218 53q-182 -2 -183 -212z" glyph-name="f" horiz-adv-x="866" unicode="f"/><glyph d="M1098 1024v-993q0 -231 -121 -350t-315 -119q-240 0 -441 170l10 143q98 -78 210 -118t210 -40q270 0 271 316v129q-156 -158 -352 -158t-320.5 150.5t-124.5 374t126 374t320 150.5q195 0 351 -158v129h176zM584 160q84 0 175 41t163 116v414q-70 72 -162 114t-176 42 q-129 0 -202 -97.5t-73 -265.5t73 -266t202 -98z" glyph-name="g" horiz-adv-x="1255" unicode="g"/><glyph d="M713 1053q152 0 251 -99.5t99 -285.5v-668h-176v668q0 111 -59.5 166t-146.5 55q-181 0 -337 -144v-745h-176v1434h176v-539q80 76 177.5 117t191.5 41z" glyph-name="h" horiz-adv-x="1210" unicode="h"/><glyph d="M266 1413q45 0 77 -31.5t32 -76.5t-32 -77t-77 -32t-76.5 32t-31.5 77t31.5 76.5t76.5 31.5zM354 0h-176v1024h176v-1024z" glyph-name="i" horiz-adv-x="522" unicode="i"/><glyph d="M272 1413q45 0 77 -31.5t32 -76.5t-32 -77t-77 -32t-76.5 32t-31.5 77t31.5 76.5t76.5 31.5zM360 1024v-1145q0 -156 -76.5 -236.5t-197.5 -80.5q-72 0 -147 24l12 144q49 -10 105 -10t92 41.5t36 117.5v1145h176z" glyph-name="j" horiz-adv-x="528" unicode="j"/><glyph d="M344 0h-176v1434h176v-875l479 465h250l-395 -375l444 -649h-211l-354 537l-213 -203v-334z" glyph-name="k" horiz-adv-x="1165" unicode="k"/><glyph d="M344 1434v-1160q0 -145 156 -145q29 0 57 6l53 -137q-74 -27 -147 -27q-127 0 -211 75t-84 228v1160h176z" glyph-name="l" horiz-adv-x="710" unicode="l"/><glyph d="M645 889q-157 0 -311 -135v-754h-176v1024h176v-127q158 156 352 156q94 0 172 -43t121 -127q84 80 187.5 125t203.5 45q150 0 246 -97.5t96 -287.5v-668h-176v668q0 111 -57.5 166t-151.5 55q-154 0 -313 -121q10 -47 8 -100v-668h-174v668q0 111 -56.5 166t-146.5 55z " glyph-name="m" horiz-adv-x="1859" unicode="m"/><glyph d="M702 1053q150 0 250.5 -99.5t100.5 -285.5v-668h-176v668q0 109 -57.5 165t-143.5 56q-186 0 -342 -144v-745h-176v1024h176v-129q80 78 178 118t190 40z" glyph-name="n" horiz-adv-x="1200" unicode="n"/><glyph d="M1147 512q0 -229 -141.5 -385t-368.5 -156t-368.5 156t-141.5 386t141.5 386t368.5 155t368.5 -157t141.5 -385zM636 887q-151 0 -240 -104.5t-88 -270.5t90 -270.5t239 -104.5t238 103.5t88 271.5t-88 271.5t-239 103.5z" glyph-name="o" horiz-adv-x="1271" unicode="o"/><glyph d="M668 1053q195 0 319.5 -154.5t124.5 -394.5t-131 -386.5t-321 -147.5t-345 151v-531h-174v1434h174v-133q158 162 353 162zM930 505q0 177 -74 279.5t-201 102.5q-80 0 -172 -41t-168 -121v-416q174 -180 340 -178q121 2 198 99.5t77 274.5z" glyph-name="p" horiz-adv-x="1234" unicode="p"/><glyph d="M1061 1024v-1434h-176v531q-156 -152 -344 -151t-319.5 147.5t-131.5 386.5t125 394.5t319 154.5t351 -162v133h176zM547 887q-129 0 -203 -102.5t-74 -279.5t77 -274.5t200 -99.5q166 -2 338 178v416q-76 80 -167 121t-171 41z" glyph-name="q" horiz-adv-x="1232" unicode="q"/><glyph d="M737 1055q12 0 27 -2l-31 -179q-16 2 -33 3q-197 0 -366 -152v-725h-176v1024h176v-145q88 86 194.5 131t208.5 45z" glyph-name="r" horiz-adv-x="806" unicode="r"/><glyph d="M514 1053q92 0 194.5 -34t168.5 -101l-80 -123q-47 49 -127 76.5t-174 27.5t-153.5 -37t-57.5 -108q-2 -55 47 -84t124.5 -49.5t105.5 -27.5t54.5 -14.5t69.5 -23.5q44 -17 70 -31q78 -44 114.5 -95.5t38.5 -137.5q4 -168 -128 -244t-275.5 -76t-254 44t-167.5 122 l82 125q45 -66 132 -102.5t190 -36.5t175 43t72 119q0 40 -13 55.5t-20.5 25t-26 18.5t-29.5 14q-30 14 -76 25q-282 68 -370.5 136t-88.5 189q0 162 115.5 233.5t287.5 71.5z" glyph-name="s" horiz-adv-x="995" unicode="s"/><glyph d="M560 -29q-128 0 -212 75t-84 228v603h-203v112l191 31h12v295h176v-295h310v-143h-310v-603q0 -145 156 -145q74 0 156 33l45 -121q-109 -70 -237 -70z" glyph-name="t" horiz-adv-x="909" unicode="t"/><glyph d="M1042 1024v-1024h-176v129q-80 -76 -176 -117t-188 -41q-156 0 -255.5 97.5t-99.5 287.5v668h177v-668q0 -106 51 -163.5t143 -57.5q188 0 348 144v745h176z" glyph-name="u" horiz-adv-x="1189" unicode="u"/><glyph d="M1051 1024l-412 -1024h-184l-412 1024h188l316 -821l315 821h189z" glyph-name="v" horiz-adv-x="1093" unicode="v"/><glyph d="M1278 0h-201l-239 823l-242 -823h-201l-352 1024h188l265 -807l233 807h215l234 -807l264 807h188z" glyph-name="w" horiz-adv-x="1673" unicode="w"/><glyph d="M649 522l398 -522h-203l-309 406l-295 -406h-201l399 535l-375 489h203l285 -373l272 373h199z" glyph-name="x" horiz-adv-x="1114" unicode="x"/><glyph d="M1083 1024l-598 -1434h-166l166 414l-442 1020h193l337 -805l326 805h184z" glyph-name="y" horiz-adv-x="1126" unicode="y"/><glyph d="M905 143v-143h-831v113l590 768h-560v143h785v-113l-592 -768h608z" glyph-name="z" horiz-adv-x="999" unicode="z"/><glyph d="M590 1626q74 0 151 -27l-14 -143q-49 10 -105 10t-94.5 -42t-38.5 -117v-486q0 -154 -88 -227q88 -72 88 -225v-486q0 -76 38.5 -117.5t94.5 -41.5t105 10l14 -144q-78 -25 -151 -24q-121 0 -198 80t-77 237v486q0 72 -35.5 111.5t-99.5 39.5h-37v150h37q63 0 99 40 t36 111v486q0 158 77 238.5t198 80.5z" glyph-name="braceleft" horiz-adv-x="802" unicode="{"/><glyph d="M385 -438h-176v1974h176v-1974z" glyph-name="bar" horiz-adv-x="593" unicode="|"/><glyph d="M213 1626q121 0 197.5 -81t76.5 -238v-486q0 -72 36 -111.5t100 -39.5h36v-150h-36q-63 0 -99.5 -40t-36.5 -111v-486q0 -158 -76.5 -237.5t-197.5 -79.5q-74 0 -150 24l13 144q48 -10 106 -10t94.5 41.5t36.5 117.5v486q0 154 88 225q-88 74 -88 227v486 q0 76 -36.5 117.5t-94.5 41.5t-106 -10l-13 143q76 27 150 27z" glyph-name="braceright" horiz-adv-x="802" unicode="}"/><glyph d="M394 713q48 0 106.5 -21t144.5 -87q86 -65 141 -64q88 0 193 155l111 -84q-132 -194 -196.5 -218.5t-112.5 -24.5t-107.5 22.5t-144.5 85.5q-84 64 -140 64q-88 0 -192 -156l-111 84l12 18q122 175 185 200.5t111 25.5z" glyph-name="asciitilde" horiz-adv-x="1175" unicode="~"/><glyph d="M268 1059q47 0 81 -33t34 -80t-34 -81t-81 -34t-80.5 33t-33.5 81t33.5 81t80.5 33zM369 -381h-201l27 1075h147z" glyph-name="exclamdown" horiz-adv-x="536" unicode="¡"/><glyph d="M715 -223h-174v203q-188 33 -301 181t-113 353t113.5 352.5t300.5 177.5v203h174v-200q166 -25 307 -136v-143q-195 119 -385 119q-152 0 -241 -104.5t-88 -270.5t90 -270.5t239 -104.5q190 0 385 119v-145q-141 -109 -307 -134v-200z" glyph-name="cent" horiz-adv-x="1146" unicode="¢"/><glyph d="M1196 0h-1030v80q139 139 173 257t7 259h-180v164h145q-41 178 -41 274t42.5 204t175 166t321.5 58t358 -84l-61 -166q-137 66 -307 66t-248 -54.5t-78 -189.5q0 -86 45 -274h420v-164h-385q33 -238 -104 -432h747v-164z" glyph-name="sterling" horiz-adv-x="1298" unicode="£"/><glyph glyph-name="currency" horiz-adv-x="1228" unicode="¤"/><glyph d="M1214 852v-164h-272l-115 -182v-6h387v-164h-387v-336h-194v336h-373v164h373v22l-103 166h-270v164h168l-365 582h232l440 -734l445 734h229l-365 -582h170z" glyph-name="yen" horiz-adv-x="1474" unicode="¥"/><glyph d="M385 676h-176v860h176v-860zM385 -438h-176v860h176v-860z" glyph-name="brokenbar" horiz-adv-x="593" unicode="¦"/><glyph d="M1102 25q0 -113 -106.5 -234t-368.5 -121q-156 0 -301.5 61.5t-221.5 170.5l150 94q53 -74 155.5 -117t222.5 -43t204 50.5t84 138.5q0 43 -15.5 63.5t-25 30.5t-31 21.5t-33.5 17.5t-44 15t-77 22t-76 20q-238 63 -333 136t-95 212q0 195 156 289q-82 43 -119 102.5 t-37 151.5t38 163.5t134.5 132t278.5 60.5q127 0 247 -39t197 -118l-131 -115q-106 106 -313 106q-268 0 -268 -192q0 -49 31 -90t238 -94t237 -67.5t64 -31t73 -51.5t62.5 -84.5t23.5 -120.5q0 -178 -170 -278q170 -88 170 -262zM373 563q0 -47 27.5 -86t250.5 -98 q117 4 193 54t76 132q0 45 -15.5 64.5t-25 30t-31 20.5t-33.5 17.5t-44 16.5t-46 13t-52 13.5t-55 15.5h-4q-241 -11 -241 -193z" glyph-name="section" horiz-adv-x="1206" unicode="§"/><glyph d="M181 1413q44 0 76 -30.5t32 -75.5t-32 -77t-76 -32t-75.5 32t-31.5 77t31.5 75.5t75.5 30.5zM617.5 1413q44.5 0 76 -30.5t31.5 -75.5t-31.5 -77t-76 -32t-76 32t-31.5 77t31.5 75.5t76 30.5z" glyph-name="dieresis" horiz-adv-x="798" unicode="¨"/><glyph d="M886.5 1462q196.5 0 363.5 -99t263.5 -271t96.5 -375t-96.5 -374t-263.5 -271.5t-363.5 -100.5t-362.5 100.5t-263 271.5t-97 374t97 375t263 271t362.5 99zM886.5 1329q-237.5 0 -406.5 -176t-169 -435t169 -436.5t406.5 -177.5t407.5 177.5t170 436.5t-170 435 t-407.5 176zM898 981q-118 0 -181.5 -73.5t-63.5 -189.5t64.5 -190.5t180.5 -74.5t247 98l41 -111q-66 -53 -148 -83.5t-157 -30.5q-164 0 -270.5 114.5t-106.5 277.5t106.5 277.5t273.5 113.5t302 -116l-41 -110q-129 98 -247 98z" glyph-name="copyright" horiz-adv-x="1773" unicode="©"/><glyph d="M870 1575v-797h-157v82q-115 -104 -263 -104t-248 120.5t-100 300t100 300t248 120.5t263 -104v82h157zM463 893q135 0 250 117v333q-115 117 -250 117q-90 0 -143.5 -77.5t-53.5 -205.5t53.5 -206t143.5 -78z" glyph-name="ordfeminine" horiz-adv-x="1017" unicode="ª"/><glyph d="M690 963l-432 -379l432 -381l-104 -115l-523 438v113l523 438zM1255 963l-432 -379l432 -381l-104 -115l-522 438v113l522 438z" glyph-name="guillemotleft" horiz-adv-x="1323" unicode="«"/><glyph glyph-name="logicalnot" horiz-adv-x="1228" unicode="¬"/><glyph d="M886.5 1462q196.5 0 363.5 -99t263.5 -271t96.5 -375t-96.5 -374t-263.5 -271.5t-363.5 -100.5t-362.5 100.5t-263 271.5t-97 374t97 375t263 271t362.5 99zM886.5 1329q-237.5 0 -406.5 -176t-169 -435t169 -436.5t406.5 -177.5t407.5 177.5t170 436.5t-170 435 t-407.5 176zM602 1092h334q94 0 161.5 -67t67.5 -153q0 -165 -133 -225l180 -307h-161l-158 287h-150v-287h-141v752zM743 975v-234h193q35 0 59.5 31t24.5 86t-24.5 86t-59.5 31h-193z" glyph-name="registered" horiz-adv-x="1773" unicode="®"/><glyph d="M754 1208h-670v168h670v-168z" glyph-name="macron" horiz-adv-x="837" unicode="¯"/><glyph d="M424 1716q152 0 246 -94t94 -233.5t-94.5 -233.5t-245.5 -94q-152 0 -246 94t-94 234q0 139 94 233t246 94zM423 1589q-81 0 -133 -54t-52 -145t52 -146.5t133 -55.5t133 54t52 145.5t-52 146.5t-133 55z" glyph-name="degree" horiz-adv-x="845" unicode="°"/><glyph d="M999 782v-164h-395v-331h-164v331h-395v164h395v334h164v-334h395zM45 168h954v-164h-954v164z" glyph-name="plusminus" horiz-adv-x="1042" unicode="±"/><glyph d="M752 690v-112h-670v161q0 89 63.5 140t116.5 74.5t157 69.5t149.5 80t45.5 91q-2 141 -239 143q-123 -2 -230 -32l-47 98q129 49 297 49q354 0 357 -244q0 -68 -19.5 -100.5l-30 -50t-37 -37t-40 -29.5t-49 -27.5t-50 -24.5t-58.5 -25t-106 -46t-101.5 -62t-39.5 -83v-33 h531z" glyph-name="uni00B2" horiz-adv-x="849" unicode="²"/><glyph d="M733 1219q0 -135 -155 -187q90 -25 141 -81t51 -132q0 -117 -104.5 -188.5t-275.5 -71.5t-310 53l55 109q119 -47 245 -47t188.5 42t62.5 107t-55.5 103.5t-149.5 38.5h-154v114h140q84 0 133 34t49 91t-56 95t-164 38t-206 -39l-49 107q123 47 275 47t245.5 -64.5 t93.5 -168.5z" glyph-name="uni00B3" horiz-adv-x="872" unicode="³"/><glyph d="M274 1157h-190l260 354h215z" glyph-name="acute" horiz-adv-x="643" unicode="´"/><glyph d="M1243 1278h-133v-1716h-176v1716h-164v-1716h-176v1108h-121q-145 0 -245.5 106.5t-100.5 275.5t100.5 275.5t245.5 106.5h770v-156z" glyph-name="paragraph" horiz-adv-x="1406" unicode="¶"/><glyph d="M211 731q47 0 80 -33.5t33 -81t-33 -80t-80 -32.5t-81 32.5t-34 80.5t34 81t81 33z" glyph-name="periodcentered" horiz-adv-x="419" unicode="·"/><glyph d="M623 -295q0 -88 -96.5 -167.5t-250 -46t-204.5 57.5l51 115q96 -39 211 -39t115 84q-2 84 -91 82q-57 2 -112 -20l-35 73l90 187h135l-35 -121h17q92 -12 148.5 -64.5t56.5 -140.5z" glyph-name="cedilla" horiz-adv-x="694" unicode="¸"/><glyph d="M442 690h187v-112h-533v112h209v590l-186 -82l-49 102l295 134h77v-744z" glyph-name="uni00B9" horiz-adv-x="702" unicode="¹"/><glyph d="M508 1597q180 0 291.5 -121.5t111.5 -299t-111.5 -299t-291.5 -121.5t-293 121t-113 299t113 299.5t293 121.5zM506 1460q-111 0 -175.5 -77.5t-64.5 -205.5t65.5 -206t175.5 -78t175.5 78t65.5 206t-65.5 205.5t-176.5 77.5z" glyph-name="ordmasculine" horiz-adv-x="1013" unicode="º"/><glyph d="M694 639v-113l-522 -438l-106 115l432 379l-432 381l106 114zM1257 639v-113l-520 -438l-106 115l432 379l-432 381l106 114z" glyph-name="guillemotright" horiz-adv-x="1323" unicode="»"/><glyph d="M1507 1462l-917 -1491h-162l920 1491h159zM442 690h187v-112h-533v112h209v590l-186 -82l-49 102l295 134h77v-744zM1731 317h137v-112h-137v-205h-136v205h-481v86l453 565h164v-539zM1595 317v410l-317 -410h317z" glyph-name="onequarter" horiz-adv-x="1947" unicode="¼"/><glyph d="M1507 1462l-917 -1491h-162l920 1491h159zM305 690v590l-186 -82l-49 102l295 134h77v-744h187v-112h-533v112h209zM1913 113v-113h-668v162q0 129 107.5 179.5t144.5 66.5t113 50t122 66.5t46 91.5q0 143 -240 144q-127 0 -231 -33l-47 98q133 49 296 49q356 0 357 -241 q0 -155 -107 -211.5t-160 -78t-71 -32.5q-117 -53 -154 -82.5t-37 -83.5v-32h529z" glyph-name="onehalf" horiz-adv-x="2011" unicode="½"/><glyph d="M1573 1462l-918 -1491h-161l919 1491h160zM770 819q0 -117 -104.5 -188.5t-275.5 -71.5t-310 53l55 109q119 -47 245 -47t188.5 42t62.5 107t-55.5 103.5t-149.5 38.5h-154v114h140q84 0 133 34t49 91t-56 95t-164 38t-206 -39l-49 107q123 47 275 47t245.5 -64.5 t93.5 -168.5q0 -66 -41 -114t-114 -73q90 -25 141 -81t51 -132zM1933 317v-112h-137v-205h-135v205h-481v86l452 565h164v-539h137zM1661 317v410l-318 -410h318z" glyph-name="threequarters" horiz-adv-x="2013" unicode="¾"/><glyph d="M692 1059q47 0 81 -33t34 -81t-34 -81t-81 -33t-79.5 34t-32.5 81t32.5 80t79.5 33zM324 10q0 -147 68.5 -201.5t241.5 -54.5t343 62l76 -133q-197 -93 -419 -93t-363.5 90.5t-141.5 329.5q0 166 72.5 235.5t129 103.5t140.5 75t112.5 69.5t30.5 79.5l2 121h156l4 -131 q6 -106 -40 -163.5t-184 -123.5t-183 -115.5t-45 -150.5z" glyph-name="questiondown" horiz-adv-x="1159" unicode="¿"/><glyph d="M836 1565h-193l-285 354h215zM1413 0h-205l-125 330h-690l-123 -330h-207l562 1434h229zM455 494h567l-283 757z" glyph-name="Agrave" horiz-adv-x="1478" unicode="À"/><glyph d="M827 1565h-190l262 352h215zM1413 0h-205l-125 330h-690l-123 -330h-207l562 1434h229zM455 494h567l-283 757z" glyph-name="Aacute" horiz-adv-x="1478" unicode="Á"/><glyph d="M547 1565h-215l311 354h193l311 -354h-215l-193 237zM1413 0h-205l-125 330h-690l-123 -330h-207l562 1434h229zM1022 494l-283 757l-284 -757h567z" glyph-name="Acircumflex" horiz-adv-x="1478" unicode="Â"/><glyph d="M791 1800q68 -47 100 -47q59 0 141 127l115 -86q-111 -162 -183 -190q-34 -14 -76 -13.5t-82 15t-58.5 27t-72 50t-87.5 37.5q-59 0 -144 -127l-112 86q0 2 17.5 28t21.5 31t22.5 28.5t27.5 30.5t27 25q58 62 143 62t200 -84zM1413 0h-205l-125 330h-690l-123 -330h-207 l562 1434h229zM455 494h567l-283 757z" glyph-name="Atilde" horiz-adv-x="1478" unicode="Ã"/><glyph d="M521 1823q44 0 76 -32t32 -77t-32 -76.5t-76 -31.5t-75.5 31.5t-31.5 76.5t31.5 77t75.5 32zM956 1823q45 0 77 -32t32 -77t-32 -76.5t-77 -31.5t-75.5 31.5t-30.5 76.5t30.5 77t75.5 32zM1413 0h-205l-125 330h-690l-123 -330h-207l562 1434h229zM455 494h567l-283 757z " glyph-name="Adieresis" horiz-adv-x="1478" unicode="Ä"/><glyph d="M739 2040q121 0 196 -76t75 -186.5t-75 -185t-196 -74.5t-196.5 74.5t-75.5 186.5t75.5 186.5t196.5 74.5zM612 1778.5q0 -62.5 36 -100.5t91 -38t91 38t36 100.5t-36 99.5t-91 38t-91 -37t-36 -100.5zM1413 0h-205l-125 330h-690l-123 -330h-207l562 1434h229zM455 494 h567l-283 757z" glyph-name="Aring" horiz-adv-x="1478" unicode="Å"/><glyph d="M1919 164v-164h-963v330h-507l-179 -330h-207l787 1434h1048v-164h-747v-439h668v-161h-668v-506h768zM956 494v774l-419 -774h419z" glyph-name="AE" horiz-adv-x="2021" unicode="Æ"/><glyph d="M868 -29h-14l-18 -61h18q92 -12 148.5 -64.5t56.5 -140.5q0 -87 -75 -149q-118 -96 -344 -48q-80 18 -132 41l51 115q96 -39 210 -39t116 84q-2 84 -92 82q-55 2 -111 -20l-35 73l68 144q-248 51 -398.5 253.5t-150.5 475.5q0 207 87 377t248 270t367 98q137 0 282.5 -52 t270.5 -148l-53 -148q-242 164 -500 164q-221 0 -360 -157.5t-139 -402.5t139 -404.5t360 -159.5q256 0 500 165l53 -147q-125 -96 -270.5 -148.5t-282.5 -52.5z" glyph-name="Ccedilla" horiz-adv-x="1566" unicode="Ç"/><glyph d="M592 1565l-285 354h215l262 -354h-192zM1169 164v-164h-962v1434h942v-164h-748v-439h668v-161h-668v-506h768z" glyph-name="Egrave" horiz-adv-x="1273" unicode="È"/><glyph d="M776 1565h-190l262 352h215zM1169 164v-164h-962v1434h942v-164h-748v-439h668v-161h-668v-506h768z" glyph-name="Eacute" horiz-adv-x="1273" unicode="É"/><glyph d="M494 1565h-213l311 354h190l314 -354h-215l-193 237zM1169 164v-164h-962v1434h942v-164h-748v-439h668v-161h-668v-506h768z" glyph-name="Ecircumflex" horiz-adv-x="1273" unicode="Ê"/><glyph d="M469 1606q-45 0 -76 31.5t-31 76.5t31 77t76 32t77 -32t32 -77t-32 -76.5t-77 -31.5zM905 1606q-45 0 -76.5 31.5t-31.5 76.5t31.5 77t76.5 32t77 -32t32 -77t-32 -76.5t-77 -31.5zM1169 164v-164h-962v1434h942v-164h-748v-439h668v-161h-668v-506h768z" glyph-name="Edieresis" horiz-adv-x="1273" unicode="Ë"/><glyph d="M401 1565h-192l-285 354h215zM401 0h-194v1434h194v-1434z" glyph-name="Igrave" horiz-adv-x="608" unicode="Ì"/><glyph d="M393 1565h-190l262 352h215zM401 0h-194v1434h194v-1434z" glyph-name="Iacute" horiz-adv-x="608" unicode="Í"/><glyph d="M713 1565h-215l-193 237l-194 -237h-213l311 354h190zM207 1434h194v-1434h-194v1434z" glyph-name="Icircumflex" horiz-adv-x="608" unicode="Î"/><glyph d="M86 1823q45 0 77 -32t32 -77t-32 -76.5t-77 -31.5t-77 31.5t-32 76.5t32 77t77 32zM522 1823q45 0 77 -32t32 -77t-32 -76.5t-77 -31.5t-76.5 31.5t-31.5 76.5t31.5 77t76.5 32zM401 0h-194v1434h194v-1434z" glyph-name="Idieresis" horiz-adv-x="608" unicode="Ï"/><glyph d="M207 1434h493q317 0 513 -202t196 -515.5t-195.5 -515t-513.5 -201.5h-493v645h-205v143h205v646zM401 164h299q231 0 368.5 150.5t137.5 402.5t-137 402.5t-369 150.5h-299v-482h363v-143h-363v-481z" glyph-name="Eth" horiz-adv-x="1574" unicode="Ð"/><glyph d="M635 1720q-57 0 -141 -127l-113 86q0 2 17.5 28t21.5 31t21.5 28.5t26.5 30.5t27.5 25.5t32.5 25.5q14 8 39.5 22t75.5 14q82 0 197 -84q68 -47 100 -47q57 0 141 127l115 -86q-71 -99 -109 -138q-64 -65 -151 -65q-41 0 -82 14.5t-59.5 27t-71.5 50t-88 37.5zM1378 1434 v-1434h-172l-815 1079v-1079h-194v1434h172l815 -1080v1080h194z" glyph-name="Ntilde" horiz-adv-x="1574" unicode="Ñ"/><glyph d="M965 1565h-191l-285 354h216zM870 1462q207 0 369 -100t248 -269t86 -376t-86 -376t-248 -269.5t-369 -100.5t-368.5 100.5t-248.5 269.5t-87 376t87 377t248.5 269t368.5 99zM869 1278q-222 0 -361 -157.5t-139 -402.5t139 -403.5t362 -158.5t361.5 157.5t138.5 403.5 t-139.5 403.5t-361.5 157.5z" glyph-name="Ograve" horiz-adv-x="1740" unicode="Ò"/><glyph d="M958 1565h-190l260 352h215zM870 1462q207 0 369 -100t248 -269t86 -376t-86 -376t-248 -269.5t-369 -100.5t-368.5 100.5t-248.5 269.5t-87 376t87 377t248.5 269t368.5 99zM869 1278q-222 0 -361 -157.5t-139 -402.5t139 -403.5t362 -158.5t361.5 157.5t138.5 403.5 t-139.5 403.5t-361.5 157.5z" glyph-name="Oacute" horiz-adv-x="1740" unicode="Ó"/><glyph d="M676 1565h-213l311 354h191l311 -354h-213l-195 237zM870 1462q207 0 369 -100t248 -269t86 -376t-86 -376t-248 -269.5t-369 -100.5t-368.5 100.5t-248.5 269.5t-87 376t87 377t248.5 269t368.5 99zM870 156q223 0 361.5 157.5t138.5 403.5t-139 403.5t-361 157.5 t-361.5 -157.5t-139.5 -402.5t139 -403.5t362 -158.5z" glyph-name="Ocircumflex" horiz-adv-x="1740" unicode="Ô"/><glyph d="M922 1800q68 -47 100 -47q57 0 141 127l113 -86q-110 -162 -180 -190q-34 -14 -76.5 -13.5t-83.5 15t-59.5 27t-55.5 40.5q-70 47 -104 47q-57 0 -142 -127l-114 86q7 7 26 35.5t36.5 52t26.5 30.5q10 7 28 25q62 62 145.5 62t198.5 -84zM870 1462q207 0 369 -100 t248 -269t86 -376t-86 -376t-248 -269.5t-369 -100.5t-368.5 100.5t-248.5 269.5t-87 376t87 377t248.5 269t368.5 99zM869 1278q-222 0 -361 -157.5t-139 -402.5t139 -403.5t362 -158.5t361.5 157.5t138.5 403.5t-139.5 403.5t-361.5 157.5z" glyph-name="Otilde" horiz-adv-x="1740" unicode="Õ"/><glyph d="M651 1823q45 0 77 -32t32 -77t-32 -76.5t-77 -31.5t-76.5 31.5t-31.5 76.5t31.5 77t76.5 32zM1087.5 1823q45.5 0 77 -32t31.5 -77t-31.5 -76.5t-77 -31.5t-77 31.5t-31.5 76.5t31.5 77t77 32zM870 1462q207 0 369 -100t248 -269t86 -376t-86 -376t-248 -269.5 t-369 -100.5t-368.5 100.5t-248.5 269.5t-87 376t87 377t248.5 269t368.5 99zM869 1278q-222 0 -361 -157.5t-139 -402.5t139 -403.5t362 -158.5t361.5 157.5t138.5 403.5t-139.5 403.5t-361.5 157.5z" glyph-name="Odieresis" horiz-adv-x="1740" unicode="Ö"/><glyph d="M942 909l-313 -313l313 -311l-117 -117l-311 313l-313 -313l-115 117l311 311l-311 313l115 115l313 -311l311 311z" glyph-name="multiply" horiz-adv-x="1026" unicode="×"/><glyph d="M1573 710q0 -200 -86 -369t-248 -269.5t-369 -100.5q-139 0 -262 47l-59 -120h-180l98 196q-141 100 -221 264t-80 365t87 371t249 269t368 99q139 0 260 -47l62 121h180l-98 -197q141 -100 220 -264.5t79 -364.5zM369 717q0 -139 49 -256t137 -193l492 979 q-84 31 -179 31q-221 0 -360 -157.5t-139 -403.5zM870 156q223 0 361.5 157.5t138.5 403.5q0 141 -48 257t-136 191l-492 -979q82 -30 176 -30z" glyph-name="Oslash" horiz-adv-x="1740" unicode="Ø"/><glyph d="M883 1565h-193l-284 354h215zM1374 1434v-949q0 -219 -161.5 -366.5t-420.5 -147.5t-422 148.5t-163 365.5v949h194v-949q0 -154 105.5 -248t285.5 -94t284 94.5t104 247.5v949h194z" glyph-name="Ugrave" horiz-adv-x="1572" unicode="Ù"/><glyph d="M874 1565h-190l262 352h215zM1374 1434v-949q0 -219 -161.5 -366.5t-420.5 -147.5t-422 148.5t-163 365.5v949h194v-949q0 -154 105.5 -248t285.5 -94t284 94.5t104 247.5v949h194z" glyph-name="Uacute" horiz-adv-x="1572" unicode="Ú"/><glyph d="M594 1565h-215l311 354h191l313 -354h-215l-193 237zM1374 1434v-949q0 -219 -161.5 -366.5t-420.5 -147.5t-422 148.5t-163 365.5v949h194v-949q0 -154 105.5 -248t285.5 -94t284 94.5t104 247.5v949h194z" glyph-name="Ucircumflex" horiz-adv-x="1572" unicode="Û"/><glyph d="M567 1823q45 0 77 -32t32 -77t-32 -76.5t-77 -31.5t-75.5 31.5t-30.5 76.5t30.5 77t75.5 32zM1003.5 1823q45.5 0 77 -32t31.5 -77t-31.5 -76.5t-77 -31.5t-77 31.5t-31.5 76.5t31.5 77t77 32zM1374 1434v-949q0 -219 -161.5 -366.5t-420.5 -147.5t-422 148.5t-163 365.5 v949h194v-949q0 -154 105.5 -248t285.5 -94t284 94.5t104 247.5v949h194z" glyph-name="Udieresis" horiz-adv-x="1572" unicode="Ü"/><glyph d="M805 1565h-193l262 352h216zM805 0h-195v500l-547 934h232l418 -729l420 729h231l-559 -932v-502z" glyph-name="Yacute" horiz-adv-x="1427" unicode="Ý"/><glyph d="M401 1194h449q174 0 295 -128t121 -331t-121 -329.5t-295 -126.5h-449v-279h-194v1434h194v-240zM1063 736q0 138 -61.5 216t-151.5 78h-449v-588h449q88 0 150.5 78t62.5 216z" glyph-name="Thorn" horiz-adv-x="1392" unicode="Þ"/><glyph d="M681 1536q208 0 339 -96.5t151 -259.5q11 -102 -33.5 -157t-133.5 -84.5t-167 -51.5t-108.5 -48t-26.5 -83t47.5 -84t188.5 -66q4 -2 30 -8t50 -13t69.5 -22.5t101.5 -48.5t95 -89.5t39 -139.5q0 -82 -40 -144.5t-136 -116t-244 -53.5q-149 0 -268 53.5t-170 151.5 l153 78q27 -51 102.5 -84t179.5 -33t175.5 40t71.5 100t-41.5 92t-97.5 46.5t-122 32.5t-153 48t-141 83.5t-66 155.5q-11 179 85 232.5t208 84.5t147 53.5t29 72.5q-8 86 -83.5 139t-222.5 53t-227.5 -61.5t-80.5 -165.5v-1143h-176v1143q0 176 134 284.5t342 108.5z" glyph-name="germandbls" horiz-adv-x="1466" unicode="ß"/><glyph d="M547 1155l-287 354h215l262 -354h-190zM1083 1024v-1024h-174v131q-155 -160 -349 -160t-319.5 156t-125.5 385t126 385q127 156 321 156t347 -158v129h174zM571 137q82 0 173.5 41t164.5 117v434q-74 76 -165 117t-173 41q-127 0 -199.5 -101.5t-72.5 -273.5 t72.5 -273.5t199.5 -101.5z" glyph-name="agrave" unicode="à"/><glyph d="M731 1155h-192l262 352h215zM1083 1024v-1024h-174v131q-155 -160 -349 -160t-319.5 156t-125.5 385t126 385q127 156 321 156t347 -158v129h174zM571 137q82 0 173.5 41t164.5 117v434q-74 76 -165 117t-173 41q-127 0 -199.5 -101.5t-72.5 -273.5t72.5 -273.5 t199.5 -101.5z" glyph-name="aacute" unicode="á"/><glyph d="M449 1155h-216l312 354h192l312 -354h-215l-193 238zM1083 1024v-1024h-174v131q-155 -160 -349 -160t-319.5 156t-125.5 385t126 385q127 156 321 156t347 -158v129h174zM571 137q82 0 173.5 41t164.5 117v434q-74 76 -165 117t-173 41q-127 0 -199.5 -101.5 t-72.5 -273.5t72.5 -273.5t199.5 -101.5z" glyph-name="acircumflex" unicode="â"/><glyph d="M489 1311q-57 0 -141 -127l-115 86q0 2 18.5 27.5t23 30.5t21.5 28q16 24 26 32t28 26q62 62 145 61.5t199 -84.5q66 -47 99 -48q59 0 143 127l113 -86q-113 -163 -181 -189q-34 -13 -77.5 -13t-83 14t-58 26.5t-72 50.5t-88.5 38zM1083 1024v-1024h-174v131 q-154 -160 -348.5 -160t-320 156t-125.5 385t126 385t320.5 156t347.5 -158v129h174zM571 137q82 0 173.5 41t164.5 117v434q-74 76 -165 117t-173 41q-127 0 -199.5 -101.5t-72.5 -273.5t72.5 -273.5t199.5 -101.5z" glyph-name="atilde" unicode="ã"/><glyph d="M424 1196q-45 0 -77 32t-32 77t32 76.5t77 31.5t75.5 -31.5t30.5 -76.5t-30.5 -77t-75.5 -32zM859 1196q-44 0 -75.5 32t-31.5 77t31.5 76.5t75.5 31.5t76 -31.5t32 -76.5t-32 -77t-76 -32zM1083 1024v-1024h-174v131q-155 -160 -349 -160t-319.5 156t-125.5 385t126 385 q127 156 321 156t347 -158v129h174zM571 137q82 0 173.5 41t164.5 117v434q-74 76 -165 117t-173 41q-127 0 -199.5 -101.5t-72.5 -273.5t72.5 -273.5t199.5 -101.5z" glyph-name="adieresis" unicode="ä"/><glyph d="M641 1108q-121 0 -195.5 74.5t-74.5 186.5t74.5 186.5t195.5 74.5t196.5 -75.5t75.5 -186.5t-75.5 -185.5t-196.5 -74.5zM514 1369.5q0 -62.5 36 -100.5t91 -38t91 38t36 100.5t-36 99t-91 37.5t-91 -36.5t-36 -100zM1083 1024v-1024h-174v131q-154 -160 -348.5 -160 t-320 156t-125.5 385t126 385t320.5 156t347.5 -158v129h174zM571 137q82 0 173.5 41t164.5 117v434q-74 76 -165 117t-173 41q-127 0 -199.5 -101.5t-72.5 -273.5t72.5 -273.5t199.5 -101.5z" glyph-name="aring" unicode="å"/><glyph d="M563 1053q100 0 205.5 -43t196.5 -125q141 170 369 169t351 -152.5t123 -387.5v-45h-786q2 -16 4 -33q18 -135 102 -217t228.5 -82t316.5 94l45 -120q-182 -139 -397 -139.5t-356 167.5q-90 -82 -195.5 -125t-206.5 -43q-201 0 -325.5 155t-124.5 386t124.5 386 t325.5 155zM1340 887q-124 0 -205.5 -74t-104.5 -199h596q-18 129 -90 201t-196 72zM586 887q-144 0 -217.5 -100.5t-73.5 -273.5t73.5 -274.5t202.5 -101.5q74 0 159 34t159 95q-51 113 -51 246t51 248q-159 127 -303 127z" glyph-name="ae" horiz-adv-x="1914" unicode="æ"/><glyph d="M850 -295q0 -87 -75 -149q-117 -96 -345 -50q-80 16 -131 43l51 115q96 -39 210 -39t116 84q-2 84 -92 82q-57 2 -111 -20l-35 73l68 142q-172 43 -275.5 188t-103.5 338q0 233 142.5 388t356.5 154t396 -143l-43 -118q-174 94 -334 94t-249 -102.5t-88 -271.5t90 -272.5 t249 -103.5t330 94l45 -120q-176 -135 -377 -140l-18 -61h16q94 -12 150.5 -64.5t56.5 -140.5z" glyph-name="ccedilla" horiz-adv-x="1146" unicode="ç"/><glyph d="M717 1155h-193l-284 354h215zM1098 514q0 -23 -2 -45h-785q0 -10 2 -18q16 -141 100.5 -227.5t231 -86.5t318.5 94l45 -120q-182 -139 -394 -139.5t-349.5 155.5t-137.5 386t137.5 386t362.5 155t348 -152.5t123 -387.5zM628 887q-124 0 -205 -74t-106 -199h598 q-20 129 -91.5 201t-195.5 72z" glyph-name="egrave" horiz-adv-x="1204" unicode="è"/><glyph d="M709 1155h-191l262 352h215zM1098 514q0 -23 -2 -45h-785q0 -10 2 -18q16 -141 100.5 -227.5t231 -86.5t318.5 94l45 -120q-182 -139 -394 -139.5t-349.5 155.5t-137.5 386t137.5 386t362.5 155t348 -152.5t123 -387.5zM628 887q-124 0 -205 -74t-106 -199h598 q-20 129 -91.5 201t-195.5 72z" glyph-name="eacute" horiz-adv-x="1204" unicode="é"/><glyph d="M426 1155h-213l311 354h191l313 -354h-215l-192 238zM1098 514q0 -23 -2 -45h-785q0 -10 2 -18q16 -141 100.5 -227.5t231 -86.5t318.5 94l45 -120q-182 -139 -394 -139.5t-349.5 155.5t-137.5 386t137 386t362.5 155t348.5 -152.5t123 -387.5zM628 887q-124 0 -205 -74 t-106 -199h598q-20 129 -91.5 201t-195.5 72z" glyph-name="ecircumflex" horiz-adv-x="1204" unicode="ê"/><glyph d="M401 1413q45 0 77 -31.5t32 -76.5t-32 -77t-77 -32t-75.5 32t-30.5 77t30.5 76.5t75.5 31.5zM838 1413q45 0 76.5 -31.5t31.5 -76.5t-31.5 -77t-76.5 -32t-77 32t-32 77t32 76.5t77 31.5zM1098 514q0 -23 -2 -45h-785q0 -10 2 -18q16 -141 100.5 -227.5t231 -86.5 t318.5 94l45 -120q-182 -139 -394 -139.5t-349.5 155.5t-137.5 386t137.5 386t362.5 155t348 -152.5t123 -387.5zM628 887q-124 0 -205 -74t-106 -199h598q-20 129 -91.5 201t-195.5 72z" glyph-name="edieresis" horiz-adv-x="1204" unicode="ë"/><glyph d="M358 1155h-190l-287 354h215zM354 0h-176v1024h176v-1024z" glyph-name="igrave" horiz-adv-x="522" unicode="ì"/><glyph d="M352 1155h-192l262 352h215zM354 0h-176v1024h176v-1024z" glyph-name="iacute" horiz-adv-x="522" unicode="í"/><glyph d="M670 1155h-215l-193 238l-192 -238h-215l313 354h190zM178 1024h176v-1024h-176v1024z" glyph-name="icircumflex" horiz-adv-x="522" unicode="î"/><glyph d="M45 1413q45 0 77 -31.5t32 -76.5t-32 -77t-77 -32t-76.5 32t-31.5 77t31.5 76.5t76.5 31.5zM480 1413q44 0 76 -31.5t32 -76.5t-32 -77t-76 -32t-75.5 32t-31.5 77t31.5 76.5t75.5 31.5zM354 0h-176v1024h176v-1024z" glyph-name="idieresis" horiz-adv-x="522" unicode="ï"/><glyph d="M655 -29q-233 0 -381.5 145.5t-148.5 371.5t128.5 360.5t356.5 134.5t381 -154q-35 217 -160 349l-262 -138l-80 146l189 100q-92 39 -220 39t-263 -57l-66 137q164 86 352 84q213 2 377 -109l219 117l82 -145l-168 -88q203 -238 197 -623q-4 -285 -97.5 -424 t-196.5 -192.5t-239 -53.5zM307 492q0 -162 94.5 -258.5t247.5 -96.5q347 0 357 506v25q-176 150 -390 149q-309 1 -309 -325z" glyph-name="eth" horiz-adv-x="1333" unicode="ð"/><glyph d="M473 1311q-57 0 -141 -127l-113 86q0 9 21.5 36t39 50.5t26.5 31t27.5 26t33 25.5t40.5 21t74 15q82 0 197 -84q68 -47 100 -48q57 0 142 127l112 -86q-65 -94 -105 -135t-75 -54t-77 -13t-83 14t-59.5 26.5t-54.5 41.5q-70 47 -105 47zM702 1053q150 0 250.5 -99.5 t100.5 -285.5v-668h-176v668q0 109 -57.5 165t-143.5 56q-186 0 -342 -144v-745h-176v1024h176v-129q80 78 178 118t190 40z" glyph-name="ntilde" horiz-adv-x="1200" unicode="ñ"/><glyph d="M733 1155h-192l-285 354h215zM1147 512q0 -229 -141.5 -385t-368.5 -156t-368.5 156t-141.5 386t141.5 386t368.5 155t368.5 -157t141.5 -385zM636 887q-151 0 -240 -104.5t-88 -270.5t90 -270.5t239 -104.5t238 103.5t88 271.5t-88 271.5t-239 103.5z" glyph-name="ograve" horiz-adv-x="1271" unicode="ò"/><glyph d="M725 1155h-190l262 352h215zM1147 512q0 -229 -141.5 -385t-368.5 -156t-368.5 156t-141.5 386t141.5 386t368.5 155t368.5 -157t141.5 -385zM636 887q-151 0 -240 -104.5t-88 -270.5t90 -270.5t239 -104.5t238 103.5t88 271.5t-88 271.5t-239 103.5z" glyph-name="oacute" horiz-adv-x="1271" unicode="ó"/><glyph d="M442 1155h-213l312 354h190l313 -354h-215l-192 238zM1147 512q0 -229 -141.5 -385t-368.5 -156t-368.5 156t-141.5 386t141.5 386t368.5 155t368.5 -157t141.5 -385zM637 137q150 0 238 103.5t88 271.5t-88.5 271.5t-239 103.5t-239.5 -104.5t-88 -270.5t90 -270.5 t239 -104.5z" glyph-name="ocircumflex" horiz-adv-x="1271" unicode="ô"/><glyph d="M492 1475q82 0 196 -84q68 -47 100 -48q59 0 142 127l114 -86q-74 -103 -111 -140q-62 -62 -149 -62q-41 0 -81.5 14t-58 26.5t-72 50.5t-89.5 38q-57 0 -141 -127l-113 86q0 9 21.5 36t39.5 50q20 24 28 32l26 26q20 21 60 41t88 20zM1147 512q0 -229 -141.5 -385 t-368.5 -156t-368.5 156t-141.5 386t141.5 386t368.5 155t368.5 -157t141.5 -385zM636 887q-151 0 -240 -104.5t-88 -270.5t90 -270.5t239 -104.5t238 103.5t88 271.5t-88 271.5t-239 103.5z" glyph-name="otilde" horiz-adv-x="1271" unicode="õ"/><glyph d="M418 1413q45 0 76.5 -31.5t31.5 -76.5t-31.5 -77t-76.5 -32t-76 32t-31 77t31 76.5t76 31.5zM854 1413q45 0 77 -31.5t32 -76.5t-32 -77t-77 -32t-77 32t-32 77t32 76.5t77 31.5zM1147 512q0 -229 -141.5 -385t-368.5 -156t-368.5 156t-141.5 386t141.5 386t368.5 155 t368.5 -157t141.5 -385zM636 887q-151 0 -240 -104.5t-88 -270.5t90 -270.5t239 -104.5t238 103.5t88 271.5t-88 271.5t-239 103.5z" glyph-name="odieresis" horiz-adv-x="1271" unicode="ö"/><glyph d="M607 1042q50 0 86 -35.5t36 -85.5t-36 -85t-86 -35t-86 34.5t-36 84.5t36 86t86 36zM1128 608v-168h-1042v168h1042zM607 248q50 0 86 -36t36 -86t-36 -85t-86 -35t-86 35t-36 85t36 86t86 36z" glyph-name="divide" horiz-adv-x="1214" unicode="÷"/><glyph d="M1147 512q0 -229 -141.5 -385t-368.5 -156q-90 0 -170 27l-51 -100h-178l88 176q-94 74 -146.5 188.5t-52.5 249.5q0 231 141.5 387t368.5 154q88 0 168 -29l51 102h180l-90 -178q94 -76 147.5 -189.5t53.5 -246.5zM396 782.5q-89 -104.5 -88 -274.5t98 -275l323 641 q-43 12 -92 13q-152 0 -241 -104.5zM637 137q150 0 238 103.5t88 275.5t-95 277l-325 -643q45 -13 94 -13z" glyph-name="oslash" horiz-adv-x="1271" unicode="ø"/><glyph d="M500 1155l-285 354h215l262 -354h-192zM1042 1024v-1024h-176v129q-80 -76 -176 -117t-188 -41q-156 0 -255.5 97.5t-99.5 287.5v668h177v-668q0 -106 51 -163.5t143 -57.5q188 0 348 144v745h176z" glyph-name="ugrave" horiz-adv-x="1189" unicode="ù"/><glyph d="M684 1155h-190l262 352h215zM1042 1024v-1024h-176v129q-80 -76 -176 -117t-188 -41q-156 0 -255.5 97.5t-99.5 287.5v668h177v-668q0 -106 51 -163.5t143 -57.5q188 0 348 144v745h176z" glyph-name="uacute" horiz-adv-x="1189" unicode="ú"/><glyph d="M403 1155h-215l312 354h192l312 -354h-216l-192 238zM1042 1024v-1024h-176v129q-80 -76 -176 -117t-188 -41q-156 0 -255.5 97.5t-99.5 287.5v668h177v-668q0 -106 51 -163.5t143 -57.5q188 0 348 144v745h176z" glyph-name="ucircumflex" horiz-adv-x="1189" unicode="û"/><glyph d="M378 1196q-44 0 -76 32t-32 77t32 76.5t76 31.5t75.5 -31.5t31.5 -76.5t-31.5 -77t-75.5 -32zM813 1196q-45 0 -75.5 32t-30.5 77t30.5 76.5t75.5 31.5t77 -31.5t32 -76.5t-32 -77t-77 -32zM1042 1024v-1024h-176v129q-80 -76 -176 -117t-188 -41q-156 0 -255.5 97.5 t-99.5 287.5v668h177v-668q0 -106 51 -163.5t143 -57.5q188 0 348 144v745h176z" glyph-name="udieresis" horiz-adv-x="1189" unicode="ü"/><glyph d="M653 1155h-192l262 352h215zM1083 1024l-598 -1434h-166l166 414l-442 1020h193l337 -805l326 805h184z" glyph-name="yacute" horiz-adv-x="1126" unicode="ý"/><glyph d="M1112 512q0 -231 -126 -387t-324 -154q-88 0 -179.5 42t-167.5 120v-543h-174v1844h174v-543q76 78 167.5 120t179.5 42q199 2 324.5 -154t125.5 -387zM659 137q125 0 198 103.5t73 271.5t-73 271.5t-198 103.5q-86 0 -177 -42t-167 -120v-426q76 -78 167 -120t177 -42z " glyph-name="thorn" horiz-adv-x="1234" unicode="þ"/><glyph d="M346 1196q-45 0 -76.5 32t-31.5 77t31.5 76.5t76.5 31.5t76 -31.5t31 -76.5t-31 -77t-76 -32zM781 1196q-44 0 -75.5 32t-31.5 77t31.5 76.5t75.5 31.5t76 -31.5t32 -76.5t-32 -77t-76 -32zM1083 1024l-598 -1434h-166l166 414l-442 1020h193l337 -805l326 805h184z" glyph-name="ydieresis" horiz-adv-x="1126" unicode="ÿ"/><glyph d="M1075 1616h-672v168h672v-168zM1413 0h-205l-125 330h-690l-123 -330h-207l562 1434h229zM455 494h567l-283 757z" glyph-name="Amacron" horiz-adv-x="1478" unicode="Ā"/><glyph d="M977 1206h-672v168h672v-168zM1083 1024v-1024h-174v131q-155 -160 -349 -160t-319.5 156t-125.5 385t126 385q127 156 321 156t347 -158v129h174zM571 137q82 0 173.5 41t164.5 117v434q-74 76 -165 117t-173 41q-127 0 -199.5 -101.5t-72.5 -273.5t72.5 -273.5 t199.5 -101.5z" glyph-name="amacron" unicode="ā"/><glyph d="M946 1913h172q0 -141 -105.5 -237.5t-273.5 -96.5t-273.5 96.5t-105.5 237.5h172q0 -80 58.5 -129t148.5 -49t148.5 49t58.5 129zM1413 0h-205l-125 330h-690l-123 -330h-207l562 1434h229zM455 494h567l-283 757z" glyph-name="Abreve" horiz-adv-x="1478" unicode="Ă"/><glyph d="M642 1169q-169 0 -274.5 96.5t-105.5 237.5h172q0 -80 58.5 -129t148.5 -49t148.5 49t58.5 129h172q0 -141 -104.5 -237.5t-273.5 -96.5zM1083 1024v-1024h-174v131q-154 -160 -348.5 -160t-320 156t-125.5 385t126 385t320.5 156t347.5 -158v129h174zM571 137 q82 0 173.5 41t164.5 117v434q-74 76 -165 117t-173 41q-127 0 -199.5 -101.5t-72.5 -273.5t72.5 -273.5t199.5 -101.5z" glyph-name="abreve" unicode="ă"/><glyph d="M1473 -264l43 -117q-84 -55 -205 -57q-104 2 -179 55t-75 145q2 129 151 238l-125 330h-690l-123 -330h-207l562 1434h229l559 -1434h-70q-115 -88 -114 -184q0 -106 129 -107q64 0 115 27zM455 494h567l-283 757z" glyph-name="Aogonek" horiz-adv-x="1478" unicode="Ą"/><glyph d="M560 -29q-194 0 -319.5 156t-125.5 385t126.5 385t320.5 156t347 -158v129h174v-1024h-39q-129 -92 -129 -196t129 -105q64 0 115 27l43 -117q-84 -55 -205 -58q-104 2 -179 54.5t-75 146.5q2 135 166 248v129q-155 -158 -349 -158zM571 137q82 0 173.5 41t164.5 117v434 q-74 76 -165 117t-173 41q-127 0 -199.5 -101.5t-72.5 -273.5t72.5 -273.5t199.5 -101.5z" glyph-name="aogonek" unicode="ą"/><glyph d="M920 1565h-191l262 352h215zM868 1278q-221 0 -360 -157.5t-139 -402.5t139 -404.5t360 -159.5q256 0 500 165l53 -147q-125 -96 -270 -148.5t-283 -52.5q-207 0 -367.5 100.5t-247.5 269.5t-87 376t87 377t247.5 270t367.5 98q137 0 282.5 -52t270.5 -148l-53 -148 q-242 164 -500 164z" glyph-name="Cacute" horiz-adv-x="1566" unicode="Ć"/><glyph d="M700 1155h-190l262 352h215zM645 887q-160 0 -249 -102.5t-88 -271.5t90 -272.5t249 -103.5t330 94l45 -120q-182 -139 -397 -139.5t-356.5 156.5t-141.5 387t142.5 385t356.5 154t396 -143l-43 -118q-174 94 -334 94z" glyph-name="cacute" horiz-adv-x="1146" unicode="ć"/><glyph d="M830 1823q44 0 76 -32t32 -77t-32 -76.5t-76 -31.5t-75.5 31.5t-31.5 76.5t31.5 77t75.5 32zM868 1278q-221 0 -360 -157.5t-139 -402.5t139 -404.5t360 -159.5q256 0 500 165l53 -147q-125 -96 -270 -148.5t-283 -52.5q-207 0 -367.5 100.5t-247.5 269.5t-87 376t87 377 t247.5 270t367.5 98q137 0 282.5 -52t270.5 -148l-53 -148q-242 164 -500 164z" glyph-name="Cdotaccent" horiz-adv-x="1566" unicode="Ċ"/><glyph d="M611 1413q44 0 76 -31.5t32 -76.5t-32 -77t-76 -32t-75.5 32t-31.5 77t31.5 76.5t75.5 31.5zM645 887q-160 0 -249 -102.5t-88 -271.5t90 -272.5t249 -103.5t330 94l45 -120q-182 -139 -397 -139.5t-356.5 156.5t-141.5 387t142.5 385t356.5 154t396 -143l-43 -118 q-174 94 -334 94z" glyph-name="cdotaccent" horiz-adv-x="1146" unicode="ċ"/><glyph d="M735 1565l-311 354h213l194 -236l193 236h215l-313 -354h-191zM868 154q256 0 500 165l53 -147q-125 -96 -270 -148.5t-283 -52.5q-207 0 -367.5 100.5t-247.5 269.5t-87 376t87 377t248 270t367 98q137 0 282.5 -52t270.5 -148l-53 -148q-242 164 -500 164 q-221 0 -360 -157.5t-139 -402.5t139 -404.5t360 -159.5z" glyph-name="Ccaron" horiz-adv-x="1566" unicode="Č"/><glyph d="M516 1155l-311 354h213l194 -235l193 235h215l-313 -354h-191zM647 137q160 0 330 94l45 -120q-182 -139 -397 -139.5t-356.5 156.5t-141.5 387t142.5 385t356.5 154t396 -143l-43 -118q-174 94 -334 94t-249 -102.5t-88 -271.5t90 -272.5t249 -103.5z" glyph-name="ccaron" horiz-adv-x="1146" unicode="č"/><glyph d="M670 1565l-314 354h215l193 -236l194 236h213l-311 -354h-190zM207 1434h493q317 0 513 -202t196 -515.5t-195.5 -515t-513.5 -201.5h-493v1434zM401 164h299q231 0 368.5 150.5t137.5 402.5t-137 402.5t-369 150.5h-299v-1106z" glyph-name="Dcaron" horiz-adv-x="1574" unicode="Ď"/><glyph d="M1298 1373q0 36 28 62.5t66 26.5t63.5 -24t34.5 -82t-37 -149t-118 -148l-63 41q76 76 94 180q-29 8 -48.5 32.5t-19.5 60.5zM922 1434h174v-1434h-174v133q-156 -162 -352 -162t-320.5 156t-124.5 386t126 386t327 154q86 0 177 -42t167 -120v543zM584 137q80 0 172 42 t166 120v426q-74 78 -165 120t-179 42q-125 0 -198 -103.5t-73 -272.5t74 -271.5t203 -102.5z" glyph-name="dcaron" horiz-adv-x="1263" unicode="ď"/><glyph d="M207 1434h493q317 0 513 -202t196 -515.5t-195.5 -515t-513.5 -201.5h-493v645h-205v143h205v646zM401 164h299q231 0 368.5 150.5t137.5 402.5t-137 402.5t-369 150.5h-299v-482h363v-143h-363v-481z" glyph-name="Dcroat" horiz-adv-x="1574" unicode="Đ"/><glyph d="M1313 1139h-217v-1139h-174v133q-156 -162 -352 -162t-320.5 156t-124.5 386t126 386t327 154q86 0 177 -42t167 -120v248h-281v143h281v152h174v-152h217v-143zM578 887q-125 0 -198 -103.5t-73 -272.5t74 -271.5t203 -102.5q80 0 172 42t166 120v426q-158 162 -344 162 z" glyph-name="dcroat" horiz-adv-x="1263" unicode="đ"/><glyph d="M1024 1616h-672v168h672v-168zM1169 164v-164h-962v1434h942v-164h-748v-439h668v-161h-668v-506h768z" glyph-name="Emacron" horiz-adv-x="1273" unicode="Ē"/><glyph d="M956 1206h-671v168h671v-168zM1098 514q0 -23 -2 -45h-785q0 -10 2 -18q16 -141 100.5 -227.5t231 -86.5t318.5 94l45 -120q-182 -139 -394 -139.5t-349.5 155.5t-137.5 386t137.5 386t362.5 155t348 -152.5t123 -387.5zM628 887q-124 0 -205 -74t-106 -199h598 q-20 129 -91.5 201t-195.5 72z" glyph-name="emacron" horiz-adv-x="1204" unicode="ē"/><glyph d="M688 1606q-45 0 -76.5 31.5t-31.5 76.5t31.5 77t76.5 32t76 -32t31 -77t-31 -76.5t-76 -31.5zM1169 164v-164h-962v1434h942v-164h-748v-439h668v-161h-668v-506h768z" glyph-name="Edotaccent" horiz-adv-x="1273" unicode="Ė"/><glyph d="M620.5 1413q45.5 0 76 -31.5t30.5 -76.5t-30.5 -77t-76 -32t-77 32t-31.5 77t31.5 76.5t77 31.5zM1098 514q0 -23 -2 -45h-785q0 -10 2 -18q16 -141 100.5 -227.5t231 -86.5t318.5 94l45 -120q-182 -139 -394 -139.5t-349.5 155.5t-137.5 386t137.5 386t362.5 155 t348 -152.5t123 -387.5zM628 887q-124 0 -205 -74t-106 -199h598q-20 129 -91.5 201t-195.5 72z" glyph-name="edotaccent" horiz-adv-x="1204" unicode="ė"/><glyph d="M1048.5 -436q-112.5 0 -187.5 53t-75 145q2 129 150 238h-729v1434h942v-164h-748v-439h668v-161h-668v-506h768v-164h-98q-113 -86 -113 -182q0 -109 129 -107q64 -2 115 25l43 -117q-84 -55 -196.5 -55z" glyph-name="Eogonek" horiz-adv-x="1273" unicode="Ę"/><glyph d="M1098 514q0 -23 -2 -45h-785q0 -10 2 -18q16 -141 100.5 -227.5t231 -86.5t318.5 94l45 -120q-70 -53 -150 -86q-129 -94 -129 -195q0 -109 129 -106q63 -2 115 24l43 -117q-84 -55 -196.5 -55t-187.5 53.5t-75 151.5t102 192q-20 -2 -38 -2q-219 0 -356.5 156 t-137.5 386t137 386t362.5 155t348.5 -152.5t123 -387.5zM628 887q-124 0 -205 -74t-106 -199h598q-20 129 -91.5 201t-195.5 72z" glyph-name="eogonek" horiz-adv-x="1204" unicode="ę"/><glyph d="M592 1565l-311 354h213l194 -236l193 236h215l-314 -354h-190zM1169 164v-164h-962v1434h942v-164h-748v-439h668v-161h-668v-506h768z" glyph-name="Ecaron" horiz-adv-x="1273" unicode="Ě"/><glyph d="M524 1155l-311 354h215l193 -235l192 235h215l-313 -354h-191zM1098 514q0 -23 -2 -45h-785q0 -10 2 -18q16 -141 100.5 -227.5t231 -86.5t318.5 94l45 -120q-182 -139 -394 -139.5t-349.5 155.5t-137.5 386t137 386t362.5 155t348.5 -152.5t123 -387.5zM628 887 q-124 0 -205 -74t-106 -199h598q-20 129 -91.5 201t-195.5 72z" glyph-name="ecaron" horiz-adv-x="1204" unicode="ě"/><glyph d="M850 1579q-168 0 -273.5 96.5t-105.5 237.5h170q0 -80 58.5 -129t149.5 -49t148.5 49t57.5 129h172q0 -141 -104.5 -237.5t-272.5 -96.5zM1493 752v-752h-145l-23 127q-217 -156 -439.5 -156t-384 100.5t-248.5 269.5t-87 376t87 377t249 270t368 98q141 0 291 -53 t281 -154l-53 -147q-250 170 -521 170q-221 0 -360 -157.5t-139 -402.5t139 -403.5t356 -158.5t434 120v312h-292v164h487z" glyph-name="Gbreve" horiz-adv-x="1691" unicode="Ğ"/><glyph d="M641 1169q-168 0 -273.5 96.5t-105.5 237.5h172q0 -80 58.5 -129t148.5 -49t148.5 49t58.5 129h172q0 -141 -105.5 -237.5t-273.5 -96.5zM1098 1024v-993q0 -231 -121 -350t-315 -119q-240 0 -441 170l10 143q98 -78 210 -118t210 -40q270 0 271 316v129 q-156 -158 -352 -158t-320.5 150.5t-124.5 374t126 374t320 150.5q195 0 351 -158v129h176zM584 160q84 0 175 41t163 116v414q-70 72 -162 114t-176 42q-129 0 -202 -97.5t-73 -265.5t73 -266t202 -98z" glyph-name="gbreve" horiz-adv-x="1255" unicode="ğ"/><glyph d="M849 1606q-44 0 -76 31.5t-32 76.5t32 77t76 32t75.5 -32t31.5 -77t-31.5 -76.5t-75.5 -31.5zM1495 752v-752h-147l-23 127q-217 -156 -439 -156t-384 100.5t-249 269.5t-87 376t87 377t249 270t368 98q141 0 291 -53t281 -154l-53 -147q-250 170 -521 170 q-221 0 -360 -157.5t-139 -402.5t140 -403.5t356 -158.5t433 120v312h-292v164h489z" glyph-name="Gdotaccent" horiz-adv-x="1691" unicode="Ġ"/><glyph d="M641 1196q-45 0 -77 32t-32 77t32 76.5t77 31.5t77 -31.5t32 -76.5t-32 -77t-77 -32zM1098 1024v-993q0 -231 -121 -350t-315 -119q-240 0 -441 170l10 143q98 -78 210 -118t210 -40q270 0 271 316v129q-156 -158 -352 -158t-320.5 150.5t-124.5 374t126 374t320 150.5 q195 0 351 -158v129h176zM584 160q84 0 175 41t163 116v414q-70 72 -162 114t-176 42q-129 0 -202 -97.5t-73 -265.5t73 -266t202 -98z" glyph-name="gdotaccent" horiz-adv-x="1255" unicode="ġ"/><glyph d="M1493 752v-752h-145l-23 127q-217 -156 -439.5 -156t-384 100.5t-248.5 269.5t-87 376t87 377t249 270t368 98q141 0 291 -53t281 -154l-53 -147q-250 170 -521 170q-221 0 -360 -157.5t-139 -402.5t140 -403.5t356 -158.5t433 120v312h-292v164h487zM859 -127 q38 0 63.5 -24.5t35.5 -82t-35.5 -148.5t-119.5 -148l-64 41q76 76 95 180q-27 8 -47.5 32.5t-20.5 60.5t27.5 62.5t65.5 26.5z" glyph-name="Gcommaaccent" horiz-adv-x="1691" unicode="Ģ"/><glyph d="M624 1133q-38 0 -65 25.5t-33 66.5q-12 72 34 164t120 147l63 -41q-78 -74 -96 -180q29 -6 48.5 -30.5t19.5 -60.5t-26.5 -63.5t-64.5 -27.5zM1098 1024v-993q0 -231 -121 -350t-315 -119q-240 0 -441 170l10 143q98 -78 210 -118t210 -40q270 0 271 316v129 q-156 -158 -352 -158t-320.5 150.5t-124.5 374t126 374t320 150.5q195 0 351 -158v129h176zM584 160q84 0 175 41t163 116v414q-70 72 -162 114t-176 42q-129 0 -202 -97.5t-73 -265.5t73 -266t202 -98z" glyph-name="gcommaaccent" horiz-adv-x="1255" unicode="ģ"/><glyph d="M1624 1057h-205v-1057h-194v670h-822v-670h-194v1057h-209v162h209v215h194v-215h822v215h194v-215h205v-162zM1225 1057h-822v-226h822v226z" glyph-name="Hbar" horiz-adv-x="1624" unicode="Ħ"/><glyph d="M713 1053q152 0 251 -99.5t99 -285.5v-668h-176v668q0 111 -59.5 166t-146.5 55q-181 0 -337 -144v-745h-176v1139h-215v143h215v152h176v-152h281v-143h-281v-244q80 76 177.5 117t191.5 41z" glyph-name="hbar" horiz-adv-x="1210" unicode="ħ"/><glyph d="M356 1800q68 -47 101 -47q59 0 141 127l115 -86q-72 -100 -110 -138q-65 -65 -150 -65q-41 0 -82 14.5t-59.5 27t-55.5 40.5q-70 47 -104 47q-57 0 -142 -127l-112 86q0 7 21.5 35.5t38.5 52t26.5 30.5t27.5 25q62 62 146 62t198 -84zM401 0h-194v1434h194v-1434z" glyph-name="Itilde" horiz-adv-x="608" unicode="Ĩ"/><glyph d="M315 1391q66 -47 99 -48q59 0 143 127l113 -86q-112 -163 -163.5 -182.5t-93.5 -19.5t-83 14t-59.5 26.5t-72.5 50.5t-87 38q-57 0 -142 -127l-114 86q0 3 22.5 33t39.5 53.5t26.5 31t49.5 47.5t123 40t199 -84zM354 0h-176v1024h176v-1024z" glyph-name="itilde" horiz-adv-x="522" unicode="ĩ"/><glyph d="M641 1616h-672v168h672v-168zM401 0h-194v1434h194v-1434z" glyph-name="Imacron" horiz-adv-x="608" unicode="Ī"/><glyph d="M598 1206h-672v168h672v-168zM354 0h-176v1024h176v-1024z" glyph-name="imacron" horiz-adv-x="522" unicode="ī"/><glyph d="M334 -467q-112 0 -187 53.5t-75 145.5q0 150 192 268h-57v1434h194v-1434q-158 -102 -157 -213q0 -109 129 -106q63 -3 114 24l41 -117q-82 -55 -194 -55z" glyph-name="Iogonek" horiz-adv-x="608" unicode="Į"/><glyph d="M262 1196q-45 0 -76.5 32t-31.5 77t31.5 76.5t76.5 31.5t77 -31.5t32 -76.5t-32 -77t-77 -32zM286 -467q-112 0 -186.5 53.5t-74.5 145.5q0 150 192 268h-39v1024h176v-1024q-158 -102 -159 -213q2 -109 131 -106q61 -3 112 24l43 -117q-83 -55 -195 -55z" glyph-name="iogonek" horiz-adv-x="522" unicode="į"/><glyph d="M305 1823q45 0 76 -32t31 -77t-31 -76.5t-76 -31.5t-76.5 31.5t-31.5 76.5t31.5 77t76.5 32zM401 0h-194v1434h194v-1434z" glyph-name="Idotaccent" horiz-adv-x="608" unicode="İ"/><glyph d="M354 0h-176v1024h176v-1024z" glyph-name="dotlessi" horiz-adv-x="522" unicode="ı"/><glyph d="M401 0h-194v1434h194v-1434zM1368 1434v-947q0 -219 -139 -367.5t-363 -148.5q-104 0 -196 37l53 146q68 -18 143 -19q137 0 222.5 97.5t85.5 254.5v947h194z" glyph-name="IJ" horiz-adv-x="1572" unicode="Ĳ"/><glyph d="M266 1413q45 0 77 -31.5t32 -76.5t-32 -77t-77 -32t-76.5 32t-31.5 77t31.5 76.5t76.5 31.5zM795 1413q45 0 76.5 -31.5t31.5 -76.5t-31.5 -77t-76.5 -32t-77 32t-32 77t32 76.5t77 31.5zM354 0h-176v1024h176v-1024zM883 1024v-1145q0 -156 -77 -236.5t-198 -80.5 q-72 0 -147 24l12 144q49 -10 105 -10t92.5 41.5t36.5 117.5v1145h176z" glyph-name="ij" horiz-adv-x="1050" unicode="ĳ"/><glyph d="M401 0h-194v1434h194v-689l674 689h273l-562 -551l613 -883h-240l-504 756l-254 -250v-506zM740 -127q38 0 64.5 -24.5t36 -82t-36.5 -148.5t-120 -148l-63 41q78 76 96 180q-29 8 -48.5 32.5t-19.5 60.5t26.5 62.5t64.5 26.5z" glyph-name="Kcommaaccent" horiz-adv-x="1462" unicode="Ķ"/><glyph d="M344 0h-176v1434h176v-875l479 465h250l-395 -375l444 -649h-211l-354 537l-213 -203v-334zM595 -127q38 0 64.5 -24.5t32.5 -67.5q12 -72 -34 -163t-119 -148l-64 41q78 76 96 180q-29 8 -48 32.5t-19 60.5t26.5 62.5t64.5 26.5z" glyph-name="kcommaaccent" horiz-adv-x="1165" unicode="ķ"/><glyph d="M655 1565h-190l262 352h215zM1075 164v-164h-868v1434h194v-1270h674z" glyph-name="Lacute" horiz-adv-x="1140" unicode="Ĺ"/><glyph d="M422 1565h-193l263 352h215zM344 1434v-1160q0 -145 156 -145q29 0 57 6l53 -137q-74 -27 -147 -27q-127 0 -211 75t-84 228v1160h176z" glyph-name="lacute" horiz-adv-x="710" unicode="ĺ"/><glyph d="M1075 164v-164h-868v1434h194v-1270h674zM577 -127q38 0 64.5 -24.5t32.5 -67.5q12 -72 -34 -163t-120 -148l-63 41q78 76 96 180q-29 8 -48.5 32.5t-19.5 60.5t27 62.5t65 26.5z" glyph-name="Lcommaaccent" horiz-adv-x="1140" unicode="Ļ"/><glyph d="M344 1434v-1160q0 -145 156 -145q29 0 57 6l53 -137q-74 -27 -147 -27q-127 0 -211 75t-84 228v1160h176zM366 -127q38 0 64.5 -24.5t32.5 -67.5q12 -72 -34 -163t-120 -148l-63 41q78 76 96 180q-29 8 -48.5 32.5t-19.5 60.5t27 62.5t65 26.5z" glyph-name="lcommaaccent" horiz-adv-x="710" unicode="ļ"/><glyph d="M743 1373q0 36 27 62.5t65 26.5t63.5 -24.5t35.5 -82t-36 -148.5t-120 -148l-63 41q76 76 96 180q-29 8 -48.5 32.5t-19.5 60.5zM1075 164v-164h-868v1434h194v-1270h674z" glyph-name="Lcaron" horiz-adv-x="1140" unicode="Ľ"/><glyph d="M638 1462q38 0 63.5 -24.5t35.5 -82t-36 -148.5t-119 -148l-64 41q76 76 94 180q-27 8 -47 32.5t-20 60.5t27.5 62.5t65.5 26.5zM344 1434v-1160q0 -145 156 -145q29 0 59 6l51 -137q-74 -27 -147 -27q-127 0 -211 75t-84 228v1160h176z" glyph-name="lcaron" horiz-adv-x="710" unicode="ľ"/><glyph d="M1075 164v-164h-868v1434h194v-1270h674zM735 582q-47 0 -80.5 33.5t-33.5 80.5t33.5 81t80.5 34t81 -34t34 -81t-34 -80.5t-81 -33.5z" glyph-name="Ldot" horiz-adv-x="1140" unicode="Ŀ"/><glyph d="M344 1434v-1160q0 -145 156 -145q29 0 57 6l53 -137q-74 -27 -147 -27q-127 0 -211 75t-84 228v1160h176zM565 811q47 0 80 -34t33 -81t-33 -80.5t-80 -33.5t-80.5 33.5t-33.5 80.5t33.5 81t80.5 34z" glyph-name="ldot" horiz-adv-x="710" unicode="ŀ"/><glyph d="M1075 164v-164h-868v580l-174 -97l-80 144l254 139v668h194v-562l256 142l80 -144l-336 -184v-522h674z" glyph-name="Lslash" horiz-adv-x="1140" unicode="Ł"/><glyph d="M468.5 125q51.5 0 90.5 8l-12 -145q-53 -16 -103 -17q-121 0 -198.5 80t-77.5 238v336l-174 -95l-70 125l244 136v643h176v-547l240 131l69 -125l-309 -172v-432q0 -78 36.5 -121t88 -43z" glyph-name="lslash" horiz-adv-x="657" unicode="ł"/><glyph d="M877 1565h-191l262 352h215zM1378 1434v-1434h-172l-815 1079v-1079h-194v1434h172l815 -1080v1080h194z" glyph-name="Nacute" horiz-adv-x="1574" unicode="Ń"/><glyph d="M715 1155h-191l260 352h215zM702 1053q150 0 250.5 -99.5t100.5 -285.5v-668h-176v668q0 109 -57.5 165t-143.5 56q-186 0 -342 -144v-745h-176v1024h176v-129q80 78 178 118t190 40z" glyph-name="nacute" horiz-adv-x="1200" unicode="ń"/><glyph d="M1378 1434v-1434h-172l-815 1079v-1079h-194v1434h172l815 -1080v1080h194zM798 -127q38 0 63.5 -24.5t35.5 -82t-36 -148.5t-120 -148l-63 41q76 76 96 180q-29 8 -48 32.5t-19 60.5t26.5 62.5t64.5 26.5z" glyph-name="Ncommaaccent" horiz-adv-x="1574" unicode="Ņ"/><glyph d="M702 1053q150 0 250.5 -99.5t100.5 -285.5v-668h-176v668q0 109 -57.5 165t-143.5 56q-186 0 -342 -144v-745h-176v1024h176v-129q80 78 178 118t190 40zM636 -127q38 0 63.5 -24.5t35.5 -82t-36 -148.5t-119 -148l-64 41q76 76 94 180q-27 8 -47 32.5t-20 60.5 t27.5 62.5t65.5 26.5z" glyph-name="ncommaaccent" horiz-adv-x="1200" unicode="ņ"/><glyph d="M692 1565l-311 354h213l194 -236l193 236h215l-313 -354h-191zM1378 1434v-1434h-172l-815 1079v-1079h-194v1434h172l815 -1080v1080h194z" glyph-name="Ncaron" horiz-adv-x="1574" unicode="Ň"/><glyph d="M530 1155l-311 354h213l193 -235l194 235h213l-311 -354h-191zM702 1053q150 0 250.5 -99.5t100.5 -285.5v-668h-176v668q0 109 -57.5 165t-143.5 56q-186 0 -342 -144v-745h-176v1024h176v-129q80 78 178 118t190 40z" glyph-name="ncaron" horiz-adv-x="1200" unicode="ň"/><glyph d="M1378 1434v-1356q0 -219 -138 -367.5t-361 -148.5q-106 0 -197 37l51 145q70 -18 146 -18q127 0 208.5 84t94.5 223l-791 1046v-1079h-194v1434h172l815 -1080v1080h194z" glyph-name="Eng" horiz-adv-x="1574" unicode="Ŋ"/><glyph d="M702 1053q150 0 250.5 -99.5t100.5 -285.5v-789q0 -156 -77 -236.5t-198 -80.5q-72 0 -147 24l12 144q49 -10 104.5 -10.5t92.5 41.5t37 118v789q0 109 -57.5 165t-143.5 56q-186 0 -342 -144v-745h-176v1024h176v-129q80 78 178 118t190 40z" glyph-name="eng" horiz-adv-x="1200" unicode="ŋ"/><glyph d="M1204 1616h-669v168h669v-168zM870 1462q207 0 369 -100t248 -269t86 -376t-86 -376t-248 -269.5t-369 -100.5t-368.5 100.5t-248.5 269.5t-87 376t87 377t248.5 269t368.5 99zM869 1278q-222 0 -361 -157.5t-139 -402.5t139 -403.5t362 -158.5t361.5 157.5t138.5 403.5 t-139.5 403.5t-361.5 157.5z" glyph-name="Omacron" horiz-adv-x="1740" unicode="Ō"/><glyph d="M973 1206h-672v168h672v-168zM1147 512q0 -229 -141.5 -385t-368.5 -156t-368.5 156t-141.5 386t141.5 386t368.5 155t368.5 -157t141.5 -385zM636 887q-151 0 -240 -104.5t-88 -270.5t90 -270.5t239 -104.5t238 103.5t88 271.5t-88 271.5t-239 103.5z" glyph-name="omacron" horiz-adv-x="1271" unicode="ō"/><glyph d="M764 1565h-193l263 354h215zM1169 1565h-190l262 354h215zM870 1462q207 0 369 -100t248 -269t86 -376t-86 -376t-248 -269.5t-369 -100.5t-368.5 100.5t-248.5 269.5t-87 376t87 377t248.5 269t368.5 99zM869 1278q-222 0 -361 -157.5t-139 -402.5t139 -403.5 t362 -158.5t361.5 157.5t138.5 403.5t-139.5 403.5t-361.5 157.5z" glyph-name="Ohungarumlaut" horiz-adv-x="1740" unicode="Ő"/><glyph d="M530 1155h-190l262 354h215zM938 1155h-193l263 354h215zM1147 512q0 -229 -141.5 -385t-368.5 -156t-368.5 156t-141.5 386t141.5 386t368.5 155t368.5 -157t141.5 -385zM636 887q-151 0 -240 -104.5t-88 -270.5t90 -270.5t239 -104.5t238 103.5t88 271.5t-88 271.5 t-239 103.5z" glyph-name="ohungarumlaut" horiz-adv-x="1271" unicode="ő"/><glyph d="M2343 164v-164h-963v188q-199 -217 -510 -217q-207 0 -368.5 100.5t-248.5 269.5t-87 376t87 377t249 269t368 99q311 0 510 -217v189h942v-164h-747v-439h668v-161h-668v-506h768zM870 156q223 0 361.5 157.5t138.5 403.5t-139 403.5t-361 157.5t-361.5 -157.5 t-139.5 -402.5t139 -403.5t362 -158.5z" glyph-name="OE" horiz-adv-x="2447" unicode="Œ"/><glyph d="M1460 1053q229 0 352 -151.5t125 -387.5q0 -23 -2 -45h-784q0 -14 2 -29q18 -137 101 -220t229.5 -83t316.5 94l45 -120q-180 -139 -385 -140q-131 0 -235.5 59.5t-169.5 164.5q-66 -104 -174.5 -164t-243.5 -60q-227 0 -368.5 156t-141.5 386t141.5 386t368.5 154 q135 0 242.5 -59.5t175.5 -164.5q63 104 168.5 164t236.5 60zM636 887q-151 0 -240 -104.5t-88 -270.5t90 -270.5t239 -104.5t238 103.5t88 271.5t-88 271.5t-239 103.5zM1467 887q-124 0 -205.5 -74t-104.5 -199h596q-18 129 -90 201t-196 72z" glyph-name="oe" horiz-adv-x="2043" unicode="œ"/><glyph d="M776 1565h-190l262 352h215zM401 571v-571h-194v1434h622q174 0 295 -121t119 -309q0 -152 -75.5 -260.5t-200.5 -149.5l348 -594h-230l-313 571h-371zM401 735h428q92 0 152.5 72t60.5 196t-60 195.5t-153 71.5h-428v-535z" glyph-name="Racute" horiz-adv-x="1380" unicode="Ŕ"/><glyph d="M492 1155h-191l262 352h215zM334 1024v-145q88 86 194.5 131t208.5 45q12 0 27 -2l-31 -179q-16 2 -33 3q-197 0 -366 -152v-725h-176v1024h176z" glyph-name="racute" horiz-adv-x="806" unicode="ŕ"/><glyph d="M401 571v-571h-194v1434h622q174 0 295 -121t119 -309q0 -152 -75.5 -260.5t-200.5 -149.5l348 -594h-230l-313 571h-371zM401 735h428q92 0 152.5 72t60.5 196t-60 195.5t-153 71.5h-428v-535zM697 -127q38 0 64.5 -24.5t36 -82t-36.5 -148.5t-120 -148l-63 41 q78 76 96 180q-29 8 -48.5 32.5t-19.5 60.5t26.5 62.5t64.5 26.5z" glyph-name="Rcommaaccent" horiz-adv-x="1380" unicode="Ŗ"/><glyph d="M737 1055q12 0 27 -2l-31 -179q-16 2 -33 3q-197 0 -366 -152v-725h-176v1024h176v-145q88 86 194.5 131t208.5 45zM413 -127q38 0 64.5 -24.5t32.5 -67.5q12 -72 -34 -163t-120 -148l-63 41q78 76 96 180q-29 8 -48 32.5t-19 60.5t26.5 62.5t64.5 26.5z" glyph-name="rcommaaccent" horiz-adv-x="806" unicode="ŗ"/><glyph d="M592 1565l-311 354h213l194 -236l193 236h215l-314 -354h-190zM401 571v-571h-194v1434h622q174 0 295 -121t119 -309q0 -152 -75.5 -260.5t-200.5 -149.5l348 -594h-230l-313 571h-371zM401 735h428q92 0 152.5 72t60.5 196t-60 195.5t-153 71.5h-428v-535z" glyph-name="Rcaron" horiz-adv-x="1380" unicode="Ř"/><glyph d="M307 1155l-311 354h215l192 -235l193 235h215l-311 -354h-193zM334 1024v-145q88 86 194.5 131t208.5 45q12 0 27 -2l-31 -179q-16 2 -33 3q-197 0 -366 -152v-725h-176v1024h176z" glyph-name="rcaron" horiz-adv-x="806" unicode="ř"/><glyph d="M745 1565h-190l260 352h215zM686 1462q125 0 259 -50t231 -134l-107 -135q-170 139 -412 139q-311 -2 -311 -238q0 -58 28 -92q53 -64 326 -137q90 -18 182 -51q94 -34 126 -52q104 -59 140 -116q56 -86 57 -192.5t-46 -191.5t-126 -136q-163 -105 -345 -105t-337.5 67.5 t-246.5 176.5l107 133q76 -94 205 -146t261 -52t229.5 65.5t97.5 181.5q0 71 -43.5 114.5t-100 63t-128 39t-85.5 23.5q-283 76 -393.5 161t-110.5 246q0 111 44 195t121 131t165 69.5t213 22.5z" glyph-name="Sacute" horiz-adv-x="1310" unicode="Ś"/><glyph d="M584 1155h-191l260 352h215zM514 1053q92 0 194.5 -34t168.5 -101l-80 -123q-47 49 -127 76.5t-174 27.5t-153.5 -37t-59.5 -100t49 -92t124.5 -49.5t105.5 -27.5t54.5 -14.5t69.5 -23.5q44 -17 70 -31q78 -44 114.5 -95.5t38.5 -137.5q4 -168 -128 -244t-275.5 -76 t-254 44t-167.5 122l82 125q45 -66 132 -102.5t190 -36.5t175 43t72 119q0 40 -13 55.5t-20.5 25t-26 18.5t-29.5 14q-30 14 -76 25q-282 68 -370.5 136t-88.5 189q0 162 115.5 233.5t287.5 71.5z" glyph-name="sacute" horiz-adv-x="995" unicode="ś"/><glyph d="M920 -295q0 -87 -75 -149q-119 -98 -345 -48q-80 18 -131 41l51 115q96 -39 210 -39t115 84q-2 84 -92 82q-55 2 -110 -20l-35 73l63 133q-139 18 -265 82t-202 156l107 133q76 -94 205 -146t261 -52t229.5 65.5t97.5 181.5q0 71 -43.5 114.5t-100 63t-128 39t-85.5 23.5 q-283 76 -393.5 161t-110.5 246q0 111 44 195t121 131q151 92 327 92q334 0 541 -184l-107 -135q-170 139 -412 139q-311 -2 -311 -238q0 -58 28 -92q53 -64 326 -137q82 -16 178 -50q98 -35 130 -53q104 -59 140 -116q56 -86 57 -189.5t-41 -184.5t-112 -132 q-142 -102 -337 -117l-19 -63h17q94 -12 150.5 -64.5t56.5 -140.5z" glyph-name="Scedilla" horiz-adv-x="1310" unicode="Ş"/><glyph d="M584 -291q0 84 -90 82q-57 2 -113 -20l-35 73l64 131q-104 12 -190.5 54.5t-135.5 107.5l82 125q45 -66 132 -102.5t190 -36.5t175 43t72 119q0 40 -13 55.5t-20.5 25t-26 18.5t-29.5 14q-30 14 -76 25q-282 68 -370.5 136t-88.5 189q0 162 115.5 233.5t248.5 71.5 q269 0 402 -135l-80 -123q-47 49 -127 76.5t-174 27.5t-153.5 -37t-57.5 -108q-2 -55 47 -84t124.5 -49.5t105.5 -27.5t54.5 -14.5t69.5 -23.5q44 -17 70 -31q78 -44 114.5 -95.5t40.5 -143.5q0 -139 -102 -217t-254 -93l-18 -65h16q94 -12 150.5 -64.5t56.5 -140.5 q0 -87 -76 -149q-120 -96 -344 -48q-80 18 -133 41l53 115q96 -39 210 -39t114 84z" glyph-name="scedilla" horiz-adv-x="995" unicode="ş"/><glyph d="M561 1565l-311 354h213l194 -236l193 236h213l-311 -354h-191zM677 150q132 0 229.5 65.5t97.5 181.5q0 71 -43.5 114.5t-100 63t-128 39t-85.5 23.5q-283 76 -393.5 161t-110.5 246q0 111 44 195t121 131q151 92 327 92q334 0 541 -184l-107 -135q-170 139 -412 139 q-311 -2 -311 -238q0 -58 28 -92q53 -64 326 -137q90 -18 182 -51q94 -34 126 -52q104 -59 140 -116q56 -86 57 -192.5t-46 -191.5t-126 -136q-163 -105 -345 -105t-337.5 67.5t-246.5 176.5l107 133q76 -94 205 -146t261 -52z" glyph-name="Scaron" horiz-adv-x="1310" unicode="Š"/><glyph d="M399 1155l-311 354h213l193 -235l194 235h213l-311 -354h-191zM464.5 -29q-102.5 0 -213 44t-167.5 122l82 125q45 -66 132 -102.5t190 -36.5t175 43t72 119q0 40 -13 55.5t-20.5 25t-26 18.5t-29.5 14q-30 14 -76 25q-282 68 -370.5 136t-88.5 189q0 162 115.5 233.5 t248.5 71.5q269 0 402 -135l-80 -123q-47 49 -127 76.5t-174 27.5t-153.5 -37t-57.5 -108q-2 -55 47 -84t124.5 -49.5t105.5 -27.5t54.5 -14.5t69.5 -23.5q44 -17 70 -31q78 -44 114.5 -95.5t38.5 -137.5t-34.5 -148.5t-99 -98.5t-135.5 -54.5t-175.5 -18.5z" glyph-name="scaron" horiz-adv-x="995" unicode="š"/><glyph d="M905 -296q0 -87 -74.5 -149.5t-197.5 -62.5q-66 -2 -146.5 14.5t-132.5 42.5l52 113q98 -39 211.5 -39t113.5 84t-90 84q-57 2 -113 -20l-34 71l75 158h-37v1270h-469v164h1135v-164h-469v-1270h-18l-27 -90q8 0 16 -2q92 -10 148.5 -63.5t56.5 -140.5z" glyph-name="Tcommaaccent" horiz-adv-x="1261" unicode="Ţ"/><glyph d="M723 -295q0 -87 -75 -149q-118 -96 -344 -48q-81 18 -132 41l51 115q96 -39 210 -39t116 84q-2 84 -92 82q-55 2 -111 -20l-35 73l80 168q-127 78 -127 262v603h-203v112l191 31h12v295h176v-295h310v-143h-310v-603q0 -145 156 -145q74 0 156 33l45 -121 q-109 -70 -238 -70q-20 0 -39 2l-20 -63h16q94 -12 150.5 -64.5t56.5 -140.5z" glyph-name="tcommaaccent" horiz-adv-x="909" unicode="ţ"/><glyph d="M535 1565l-312 354h215l193 -236l192 236h215l-311 -354h-192zM1198 1270h-469v-1270h-197v1270h-469v164h1135v-164z" glyph-name="Tcaron" horiz-adv-x="1261" unicode="Ť"/><glyph d="M741 1373q0 36 28 62.5t66 26.5t63.5 -24.5t35.5 -82t-36 -148.5t-120 -148l-63 41q76 76 96 180q-29 8 -49.5 32.5t-20.5 60.5zM596 129q74 0 156 33l45 -121q-109 -70 -237 -70t-212 75t-84 228v603h-203v112l191 31h12v295h176v-295h310v-143h-310v-603 q0 -145 156 -145z" glyph-name="tcaron" horiz-adv-x="909" unicode="ť"/><glyph d="M729 1270v-469h238v-168h-238v-633h-197v633h-237v168h237v469h-469v164h1135v-164h-469z" glyph-name="Tbar" horiz-adv-x="1261" unicode="Ŧ"/><glyph d="M560 -29q-128 0 -212 75t-84 228v297h-203v144h203v162h-203v112l191 31h12v295h176v-295h310v-143h-310v-162h293v-144h-293v-297q0 -145 156 -145q74 0 156 33l45 -121q-109 -70 -237 -70z" glyph-name="tbar" horiz-adv-x="909" unicode="ŧ"/><glyph d="M838 1800q68 -47 100 -47q59 0 141 127l115 -86q-71 -99 -109 -138q-64 -65 -151 -65q-41 0 -82 14.5t-58.5 27t-72 50t-88.5 37.5q-57 0 -141 -127l-113 86q0 2 17.5 28t21.5 31t22.5 28.5t26.5 30.5q9 7 27 25q62 62 145.5 62t198.5 -84zM1374 1434v-949 q0 -219 -161.5 -366.5t-420.5 -147.5t-422 148.5t-163 365.5v949h194v-949q0 -154 105.5 -248t285 -94t284 94.5t104.5 247.5v949h194z" glyph-name="Utilde" horiz-adv-x="1572" unicode="Ũ"/><glyph d="M444 1311q-59 0 -143 -127l-113 86q0 9 21.5 36t40 50.5t28.5 31.5l26 26q58 62 143.5 61.5t199.5 -84.5q68 -47 101 -48q59 0 141 127l115 -86q-111 -162 -183 -189q-35 -13 -77 -13t-81.5 14t-58 26.5t-72 50.5t-88.5 38zM1042 1024v-1024h-176v129q-80 -76 -176 -117 t-188 -41q-156 0 -255.5 97.5t-99.5 287.5v668h177v-668q0 -106 51 -163.5t143 -57.5q188 0 348 144v745h176z" glyph-name="utilde" horiz-adv-x="1189" unicode="ũ"/><glyph d="M1122 1616h-671v168h671v-168zM1374 1434v-949q0 -219 -161.5 -366.5t-420.5 -147.5t-422 148.5t-163 365.5v949h194v-949q0 -154 105.5 -248t285.5 -94t284 94.5t104 247.5v949h194z" glyph-name="Umacron" horiz-adv-x="1572" unicode="Ū"/><glyph d="M932 1206h-672v168h672v-168zM1042 1024v-1024h-176v129q-80 -76 -176 -117t-188 -41q-156 0 -255.5 97.5t-99.5 287.5v668h177v-668q0 -106 51 -163.5t143 -57.5q188 0 348 144v745h176z" glyph-name="umacron" horiz-adv-x="1189" unicode="ū"/><glyph d="M786 2040q121 0 196 -76t75 -186.5t-75 -185t-196 -74.5t-196.5 74.5t-75.5 186.5t75.5 186.5t196.5 74.5zM659 1778.5q0 -62.5 36 -100.5t91 -38t91 38t36 100.5t-36 99.5t-91 38t-91 -37t-36 -100.5zM1374 1434v-949q0 -219 -161.5 -366.5t-420.5 -147.5t-422 148.5 t-163 365.5v949h194v-949q0 -154 105.5 -248t285 -94t284 94.5t104.5 247.5v949h194z" glyph-name="Uring" horiz-adv-x="1572" unicode="Ů"/><glyph d="M596 1108q-121 0 -196.5 74.5t-75.5 186.5t75.5 186.5t196.5 74.5t195.5 -75.5t74.5 -186.5t-74.5 -185.5t-195.5 -74.5zM469 1369.5q0 -62.5 36 -100.5t91 -38t91 38t36 100.5t-36 99t-91 37.5t-91 -36.5t-36 -100zM1042 1024v-1024h-176v129q-80 -76 -176 -117 t-188 -41q-156 0 -255.5 97.5t-99.5 287.5v668h177v-668q0 -106 51 -163.5t143 -57.5q188 0 348 144v745h176z" glyph-name="uring" horiz-adv-x="1189" unicode="ů"/><glyph d="M680 1565h-191l263 354h215zM1087 1565h-192l262 354h215zM1374 1434v-949q0 -219 -161.5 -366.5t-420.5 -147.5t-422 148.5t-163 365.5v949h194v-949q0 -154 105.5 -248t285.5 -94t284 94.5t104 247.5v949h194z" glyph-name="Uhungarumlaut" horiz-adv-x="1572" unicode="Ű"/><glyph d="M489 1155h-190l262 354h215zM707 1155l260 354h215l-285 -354h-190zM866 1024h176v-1024h-176v129q-80 -76 -176 -117t-188 -41q-156 0 -255.5 97.5t-99.5 287.5v668h177v-668q0 -106 51 -163.5t143 -57.5q188 0 348 144v745z" glyph-name="uhungarumlaut" horiz-adv-x="1189" unicode="ű"/><glyph d="M967 -158q0 -107 129 -104q63 -2 114 24l41 -116q-82 -56 -194 -56t-187 53.5t-75 148.5t90 185q-45 -6 -94 -6q-258 0 -421 148.5t-163 365.5v949h194v-949q0 -154 105.5 -248t285.5 -94t284 94.5t104 247.5v949h194v-949q0 -141 -70.5 -257.5t-199.5 -184.5 q-137 -94 -137 -201z" glyph-name="Uogonek" horiz-adv-x="1572" unicode="Ų"/><glyph d="M972 -440q-113 0 -187 53t-76 145q2 133 157 244v127q-80 -76 -176 -117t-188 -41q-156 0 -255.5 97.5t-99.5 287.5v668h177v-668q0 -106 51 -163.5t143 -57.5q188 0 348 144v745h176v-1024h-41q-119 -88 -120 -186q2 -109 131 -107q61 -2 112 25l43 -117 q-82 -55 -195 -55z" glyph-name="uogonek" horiz-adv-x="1189" unicode="ų"/><glyph d="M848 1565h-213l311 354h191l313 -354h-215l-193 237zM2017 1434l-368 -1434h-254l-355 1235l-352 -1235h-254l-371 1434h209l295 -1192l330 1192h287l329 -1192l297 1192h207z" glyph-name="Wcircumflex" horiz-adv-x="2080" unicode="Ŵ"/><glyph d="M645 1155h-215l311 354h193l311 -354h-215l-192 238zM1630 1024l-352 -1024h-201l-239 823l-242 -823h-201l-352 1024h188l265 -807l233 807h215l234 -807l264 807h188z" glyph-name="wcircumflex" horiz-adv-x="1673" unicode="ŵ"/><glyph d="M522 1565h-215l311 354h193l311 -354h-215l-192 237zM805 0h-195v500l-547 934h232l418 -729l420 729h231l-559 -932v-502z" glyph-name="Ycircumflex" horiz-adv-x="1427" unicode="Ŷ"/><glyph d="M371 1155h-215l311 354h192l312 -354h-215l-193 238zM1083 1024l-598 -1434h-166l166 414l-442 1020h193l337 -805l326 805h184z" glyph-name="ycircumflex" horiz-adv-x="1126" unicode="ŷ"/><glyph d="M497 1606q-44 0 -76 31.5t-32 76.5t32 77t76 32t75.5 -32t31.5 -77t-31.5 -76.5t-75.5 -31.5zM933 1606q-44 0 -76 31.5t-32 76.5t32 77t76 32t75.5 -32t31.5 -77t-31.5 -76.5t-75.5 -31.5zM805 0h-195v500l-547 934h232l418 -729l420 729h231l-559 -932v-502z" glyph-name="Ydieresis" horiz-adv-x="1427" unicode="Ÿ"/><glyph d="M733 1565h-192l262 352h215zM1182 164v-164h-1078l-2 129l809 1141h-757v164h1007v-129l-809 -1141h830z" glyph-name="Zacute" horiz-adv-x="1284" unicode="Ź"/><glyph d="M588 1155h-191l262 352h215zM905 143v-143h-831v113l590 768h-560v143h785v-113l-592 -768h608z" glyph-name="zacute" horiz-adv-x="999" unicode="ź"/><glyph d="M643 1606q-45 0 -75.5 31.5t-30.5 76.5t30.5 77t75.5 32t77 -32t32 -77t-32 -76.5t-77 -31.5zM1182 164v-164h-1078l-2 129l809 1141h-757v164h1007v-129l-809 -1141h830z" glyph-name="Zdotaccent" horiz-adv-x="1284" unicode="Ż"/><glyph d="M500 1196q-45 0 -77 32t-32 77t32 76.5t77 31.5t76.5 -31.5t31.5 -76.5t-31.5 -77t-76.5 -32zM905 143v-143h-831v113l590 768h-560v143h785v-113l-592 -768h608z" glyph-name="zdotaccent" horiz-adv-x="999" unicode="ż"/><glyph d="M549 1565l-313 354h215l192 -236l195 236h213l-312 -354h-190zM1182 164v-164h-1078l-2 129l809 1141h-757v164h1007v-129l-809 -1141h830z" glyph-name="Zcaron" horiz-adv-x="1284" unicode="Ž"/><glyph d="M403 1155l-311 354h215l193 -235l192 235h215l-311 -354h-193zM905 143v-143h-831v113l590 768h-560v143h785v-113l-592 -768h608z" glyph-name="zcaron" horiz-adv-x="999" unicode="ž"/><glyph d="M451 1094v-240h309v-143h-309v-836q0 -154 -76 -231.5t-193 -77.5q-55 0 -110 12l12 148q29 -2 55 -2q66 0 100.5 39.5t34.5 111.5v836h-202v112l190 31h12v227q0 188 92.5 284.5t237.5 96.5t293 -86l-45 -123q-122 54 -218 53q-182 -2 -183 -212z" glyph-name="florin" horiz-adv-x="870" unicode="ƒ"/><glyph d="M1573 717q0 -207 -86 -376t-248 -269.5t-369 -100.5t-368.5 100.5t-248.5 269.5t-87 376t87 377t249 269t368 99q207 0 371 -102q121 -47 185.5 4t13.5 205l157 47q81 -252 -57 -350q-55 -43 -139 -43q172 -207 172 -506zM871 156q222 0 360.5 157.5t138.5 403.5 t-139 403.5t-361.5 157.5t-361.5 -157.5t-139 -402.5t140 -403.5t362 -158.5z" glyph-name="Ohorn" horiz-adv-x="1740" unicode="Ơ"/><glyph d="M1147 498q0 -215 -141.5 -371t-368.5 -156t-368.5 156t-141.5 386t141.5 386t368.5 154q168 0 293 -90q68 -12 104 16q64 49 23 180l137 41q70 -221 -49 -305q-45 -33 -109 -37q111 -145 111 -360zM637 137q150 0 238 103.5t88 271.5t-88.5 271.5t-239 103.5 t-239.5 -104.5t-88 -270.5t90 -270.5t239 -104.5z" glyph-name="ohorn" horiz-adv-x="1271" unicode="ơ"/><glyph d="M1374 485q0 -219 -161.5 -366.5t-420.5 -147.5t-422 148.5t-163 365.5v949h194v-949q0 -154 105.5 -248t285 -94t284 94.5t104.5 247.5v949h178q45 0 72 22q59 47 30 170l160 45q54 -221 -70 -309q-70 -51 -176 -41v-836z" glyph-name="Uhorn" horiz-adv-x="1572" unicode="Ư"/><glyph d="M1042 0h-176v129q-80 -76 -176 -117t-188 -41q-156 0 -255.5 97.5t-99.5 287.5v668h177v-668q0 -106 51 -163.5t143 -57.5q188 0 348 144v745h144q43 0 67 23q62 47 23 176l137 43q68 -219 -49 -303q-57 -43 -146 -39v-924z" glyph-name="uhorn" horiz-adv-x="1189" unicode="ư"/><glyph d="M643 1565l-311 354h215l192 -236l193 236h215l-311 -354h-193zM1413 0h-205l-125 330h-690l-123 -330h-207l562 1434h229zM1022 494l-283 757l-284 -757h567z" glyph-name="uni01CD" horiz-adv-x="1478" unicode="Ǎ"/><glyph d="M545 1155l-312 354h216l192 -235l193 235h215l-312 -354h-192zM1083 1024v-1024h-174v131q-155 -160 -349 -160t-319.5 156t-125.5 385t126 385q127 156 321 156t347 -158v129h174zM571 137q82 0 173.5 41t164.5 117v434q-74 76 -165 117t-173 41q-127 0 -199.5 -101.5 t-72.5 -273.5t72.5 -273.5t199.5 -101.5z" glyph-name="uni01CE" unicode="ǎ"/><glyph d="M209 1565l-311 354h213l194 -236l193 236h215l-314 -354h-190zM207 1434h194v-1434h-194v1434z" glyph-name="uni01CF" horiz-adv-x="608" unicode="Ǐ"/><glyph d="M670 1509l-312 -354h-190l-313 354h215l192 -235l193 235h215zM178 1024h176v-1024h-176v1024z" glyph-name="uni01D0" horiz-adv-x="522" unicode="ǐ"/><glyph d="M774 1565l-311 354h213l192 -236l195 236h213l-311 -354h-191zM870 1462q207 0 369 -100t248 -269t86 -376t-86 -376t-248 -269.5t-369 -100.5t-368.5 100.5t-248.5 269.5t-87 376t87 377t248.5 269t368.5 99zM870 156q223 0 361.5 157.5t138.5 403.5t-139 403.5 t-361 157.5t-361.5 -157.5t-139.5 -402.5t139 -403.5t362 -158.5z" glyph-name="uni01D1" horiz-adv-x="1740" unicode="Ǒ"/><glyph d="M541 1155l-312 354h215l193 -235l192 235h215l-313 -354h-190zM1147 512q0 -229 -141.5 -385t-368.5 -156t-368.5 156t-141.5 386t141.5 386t368.5 155t368.5 -157t141.5 -385zM637 137q150 0 238 103.5t88 271.5t-88.5 271.5t-239 103.5t-239.5 -104.5t-88 -270.5 t90 -270.5t239 -104.5z" glyph-name="uni01D2" horiz-adv-x="1271" unicode="ǒ"/><glyph d="M690 1565l-311 354h215l192 -236l193 236h215l-313 -354h-191zM1374 1434v-949q0 -219 -161.5 -366.5t-420.5 -147.5t-422 148.5t-163 365.5v949h194v-949q0 -154 105.5 -248t285.5 -94t284 94.5t104 247.5v949h194z" glyph-name="uni01D3" horiz-adv-x="1572" unicode="Ǔ"/><glyph d="M500 1155l-312 354h215l193 -235l192 235h216l-312 -354h-192zM1042 1024v-1024h-176v129q-80 -76 -176 -117t-188 -41q-156 0 -255.5 97.5t-99.5 287.5v668h177v-668q0 -106 51 -163.5t143 -57.5q188 0 348 144v745h176z" glyph-name="uni01D4" horiz-adv-x="1189" unicode="ǔ"/><glyph d="M1122 1976h-671v168h671v-168zM567 1823q45 0 77 -32t32 -77t-32 -76.5t-77 -31.5t-75.5 31.5t-30.5 76.5t30.5 77t75.5 32zM1003.5 1823q45.5 0 77 -32t31.5 -77t-31.5 -76.5t-77 -31.5t-77 31.5t-31.5 76.5t31.5 77t77 32zM1374 1434v-949q0 -219 -161.5 -366.5 t-420.5 -147.5t-422 148.5t-163 365.5v949h194v-949q0 -154 105.5 -248t285.5 -94t284 94.5t104 247.5v949h194z" glyph-name="uni01D5" horiz-adv-x="1572" unicode="Ǖ"/><glyph d="M932 1538h-672v168h672v-168zM270 1305q0 45 32 76.5t76 31.5t75.5 -31.5t31.5 -76.5t-31.5 -77t-75.5 -32t-76 32t-32 77zM707 1305q0 45 30.5 76.5t75.5 31.5t77 -31.5t32 -76.5t-32 -77t-77 -32t-75.5 32t-30.5 77zM1042 1024v-1024h-176v129q-80 -76 -176 -117 t-188 -41q-156 0 -255.5 97.5t-99.5 287.5v668h177v-668q0 -106 51 -163.5t143 -57.5q188 0 348 144v745h176z" glyph-name="uni01D6" horiz-adv-x="1189" unicode="ǖ"/><glyph d="M874 1919h-190l262 354h215zM567 1823q45 0 77 -32t32 -77t-32 -76.5t-77 -31.5t-75.5 31.5t-30.5 76.5t30.5 77t75.5 32zM1003.5 1823q45.5 0 77 -32t31.5 -77t-31.5 -76.5t-77 -31.5t-77 31.5t-31.5 76.5t31.5 77t77 32zM1374 1434v-949q0 -219 -161.5 -366.5 t-420.5 -147.5t-422 148.5t-163 365.5v949h194v-949q0 -154 105.5 -248t285.5 -94t284 94.5t104 247.5v949h194z" glyph-name="uni01D7" horiz-adv-x="1572" unicode="Ǘ"/><glyph d="M684 1509h-190l262 355h215zM378 1196q-44 0 -76 32t-32 77t32 76.5t76 31.5t75.5 -31.5t31.5 -76.5t-31.5 -77t-75.5 -32zM707 1305q0 45 30.5 76.5t75.5 31.5t77 -31.5t32 -76.5t-32 -77t-77 -32t-75.5 32t-30.5 77zM1042 1024v-1024h-176v129q-80 -76 -176 -117 t-188 -41q-156 0 -255.5 97.5t-99.5 287.5v668h177v-668q0 -106 51 -163.5t143 -57.5q188 0 348 144v745h176z" glyph-name="uni01D8" horiz-adv-x="1189" unicode="ǘ"/><glyph d="M690 1919l-311 354h215l192 -237l193 237h215l-313 -354h-191zM461 1714q0 45 30.5 77t75.5 32t77 -32t32 -77t-32 -76.5t-77 -31.5t-75.5 31.5t-30.5 76.5zM895 1714q0 45 31.5 77t77 32t77 -32t31.5 -77t-31.5 -76.5t-77 -31.5t-77 31.5t-31.5 76.5zM1374 1434v-949 q0 -219 -161.5 -366.5t-420.5 -147.5t-422 148.5t-163 365.5v949h194v-949q0 -154 105.5 -248t285.5 -94t284 94.5t104 247.5v949h194z" glyph-name="uni01D9" horiz-adv-x="1572" unicode="Ǚ"/><glyph d="M500 1509l-312 355h215l193 -238l192 238h216l-312 -355h-192zM270 1305q0 45 32 76.5t76 31.5t75.5 -31.5t31.5 -76.5t-31.5 -77t-75.5 -32t-76 32t-32 77zM707 1305q0 45 30.5 76.5t75.5 31.5t77 -31.5t32 -76.5t-32 -77t-77 -32t-75.5 32t-30.5 77zM1042 1024v-1024 h-176v129q-80 -76 -176 -117t-188 -41q-156 0 -255.5 97.5t-99.5 287.5v668h177v-668q0 -106 51 -163.5t143 -57.5q188 0 348 144v745h176z" glyph-name="uni01DA" horiz-adv-x="1189" unicode="ǚ"/><glyph d="M883 1919h-193l-284 354h215zM567 1823q45 0 77 -32t32 -77t-32 -76.5t-77 -31.5t-75.5 31.5t-30.5 76.5t30.5 77t75.5 32zM1003.5 1823q45.5 0 77 -32t31.5 -77t-31.5 -76.5t-77 -31.5t-77 31.5t-31.5 76.5t31.5 77t77 32zM1374 1434v-949q0 -219 -161.5 -366.5 t-420.5 -147.5t-422 148.5t-163 365.5v949h194v-949q0 -154 105.5 -248t285.5 -94t284 94.5t104 247.5v949h194z" glyph-name="uni01DB" horiz-adv-x="1572" unicode="Ǜ"/><glyph d="M500 1509l-285 355h215l262 -355h-192zM270 1305q0 45 32 76.5t76 31.5t75.5 -31.5t31.5 -76.5t-31.5 -77t-75.5 -32t-76 32t-32 77zM813 1196q-45 0 -75.5 32t-30.5 77t30.5 76.5t75.5 31.5t77 -31.5t32 -76.5t-32 -77t-77 -32zM1042 1024v-1024h-176v129 q-80 -76 -176 -117t-188 -41q-156 0 -255.5 97.5t-99.5 287.5v668h177v-668q0 -106 51 -163.5t143 -57.5q188 0 348 144v745h176z" glyph-name="uni01DC" horiz-adv-x="1189" unicode="ǜ"/><glyph d="M686 1462q125 0 259 -50t231 -134l-107 -135q-170 139 -412 139q-311 -2 -311 -238q0 -58 28 -92q53 -64 326 -137q90 -18 182 -51q94 -34 126 -52q104 -59 140 -116q56 -86 57 -192.5t-46 -191.5t-126 -136q-163 -105 -345 -105t-337.5 67.5t-246.5 176.5l107 133 q76 -94 205 -146t261 -52t229.5 65.5t97.5 181.5q0 71 -43.5 114.5t-100 63t-128 39t-85.5 23.5q-283 76 -393.5 161t-110.5 246q0 111 44 195t121 131t165 69.5t213 22.5zM654 -127q38 0 64.5 -24.5t36 -82t-36.5 -148.5t-120 -148l-63 41q78 76 96 180q-29 8 -48.5 32.5 t-19.5 60.5t26.5 62.5t64.5 26.5z" glyph-name="Scommaaccent" horiz-adv-x="1310" unicode="Ș"/><glyph d="M514 1053q92 0 194.5 -34t168.5 -101l-80 -123q-47 49 -127 76.5t-174 27.5t-153.5 -37t-57.5 -108q-2 -55 47 -84t124.5 -49.5t105.5 -27.5t54.5 -14.5t69.5 -23.5q44 -17 70 -31q78 -44 114.5 -95.5t38.5 -137.5q4 -168 -128 -244t-275.5 -76t-254 44t-167.5 122 l82 125q45 -66 132 -102.5t190 -36.5t175 43t72 119q0 40 -13 55.5t-20.5 25t-26 18.5t-29.5 14q-30 14 -76 25q-282 68 -370.5 136t-88.5 189q0 162 115.5 233.5t287.5 71.5zM495 -127q38 0 63.5 -24.5t35.5 -82t-36 -148.5t-120 -148l-63 41q76 76 94 180 q-27 8 -47.5 32.5t-20.5 60.5t28 62.5t66 26.5z" glyph-name="scommaaccent" horiz-adv-x="995" unicode="ș"/><glyph d="M1198 1434v-164h-469v-1270h-197v1270h-469v164h1135zM641 -127q37 0 63.5 -24.5t35.5 -82t-37 -148.5t-117 -148l-64 41q76 76 94 180q-29 8 -48 32.5t-19 60.5t27.5 62.5t64.5 26.5z" glyph-name="uni021A" horiz-adv-x="1261" unicode="Ț"/><glyph d="M560 -29q-128 0 -212 75t-84 228v603h-203v112l191 31h12v295h176v-295h310v-143h-310v-603q0 -145 156 -145q74 0 156 33l45 -121q-109 -70 -237 -70zM459 -127q37 0 63.5 -24.5t32.5 -67.5q12 -72 -34 -163t-120 -148l-61 41q76 76 94 180q-29 8 -48 32.5t-19 60.5 t27.5 62.5t64.5 26.5z" glyph-name="uni021B" horiz-adv-x="909" unicode="ț"/><glyph d="M684 1157l-192 238l-195 -238h-213l311 354h191l311 -354h-213z" glyph-name="circumflex" horiz-adv-x="980" unicode="ˆ"/><glyph d="M897 1511l-311 -354h-191l-311 354h213l195 -237l192 237h213z" glyph-name="caron" horiz-adv-x="980" unicode="ˇ"/><glyph d="M668 1505h172q0 -141 -104.5 -237.5t-273.5 -96.5t-273.5 96.5t-104.5 237.5h170q0 -80 58.5 -129t149.5 -49t148.5 49t57.5 129z" glyph-name="breve" horiz-adv-x="923" unicode="˘"/><glyph d="M181 1413q44 0 76 -30.5t32 -75.5t-32 -77t-76 -32t-75.5 32t-31.5 77t31.5 75.5t75.5 30.5z" glyph-name="dotaccent" horiz-adv-x="362" unicode="˙"/><glyph d="M365 1632q121 0 195.5 -75.5t74.5 -186t-75 -186.5t-195 -76q-121 0 -197 76t-76 186q0 111 76 186.5t197 75.5zM363 1507q-56 0 -91.5 -37.5t-35.5 -99t36 -99.5t92 -38t92 37t36 99.5t-36.5 100t-92.5 37.5z" glyph-name="ring" horiz-adv-x="727" unicode="˚"/><glyph d="M84 -258q0 151 197 270h135q-160 -104 -162 -215q2 -109 131 -106q61 -2 115 24l41 -116q-83 -55 -195 -55t-187 53t-75 145z" glyph-name="ogonek" horiz-adv-x="624" unicode="˛"/><glyph d="M346 1477q82 0 197 -84q68 -49 100 -47q57 -2 141 127l113 -87q-70 -102 -120.5 -152t-137.5 -50q-41 0 -82 14t-59 26.5t-72 50.5t-88 38q-57 0 -141 -127l-113 86l18 26q17 25 21 30t21.5 28.5t26.5 32t27.5 27t33 25.5t43 21.5t71.5 14.5z" glyph-name="tilde" horiz-adv-x="980" unicode="˜"/><glyph d="M274 1157h-190l260 354h215zM682 1157h-193l263 354h215z" glyph-name="hungarumlaut" horiz-adv-x="1050" unicode="˝"/><glyph d="M181 -150q44 0 76 -31.5t32 -75.5t-32 -76t-76 -32t-75.5 32t-31.5 76t31.5 75.5t75.5 31.5z" glyph-name="dotbelowcomb" horiz-adv-x="0" unicode="̣"/><glyph d="M177 -127q38 0 64.5 -24.5t32.5 -67.5q12 -72 -33.5 -163t-119.5 -148l-64 41q78 76 97 180q-29 8 -48.5 32.5t-19.5 60.5t26.5 62.5t64.5 26.5z" glyph-name="uni0326" horiz-adv-x="0" unicode="̦"/><glyph d="M684 -457l-192 236l-195 -236h-213l311 353h191l311 -353h-213z" glyph-name="uni032D" horiz-adv-x="0" unicode="̭"/><glyph d="M754 -328h-670v168h670v-168z" glyph-name="uni0331" horiz-adv-x="0" unicode="̱"/><glyph glyph-name="Delta" horiz-adv-x="1228" unicode="Δ"/><glyph glyph-name="Omega" horiz-adv-x="1228" unicode="Ω"/><glyph glyph-name="mu" horiz-adv-x="1228" unicode="μ"/><glyph glyph-name="pi" horiz-adv-x="1228" unicode="π"/><glyph d="M1139 1565h-193l-284 354h215zM1649 0h-256l-353 1235l-352 -1235h-256l-369 1434h209l295 -1192l330 1192h287l329 -1192l297 1192h207z" glyph-name="Wgrave" horiz-adv-x="2080" unicode="Ẁ"/><glyph d="M934 1155h-193l-284 354h215zM1278 0h-201l-239 823l-242 -823h-201l-352 1024h188l265 -807l233 807h215l234 -807l264 807h188z" glyph-name="wgrave" horiz-adv-x="1673" unicode="ẁ"/><glyph d="M1130 1565h-190l262 352h215zM1649 0h-254l-355 1235l-352 -1235h-254l-371 1434h209l295 -1192l330 1192h287l329 -1192l297 1192h207z" glyph-name="Wacute" horiz-adv-x="2080" unicode="Ẃ"/><glyph d="M926 1155h-191l262 352h215zM1278 0h-201l-239 823l-242 -823h-201l-352 1024h188l265 -807l233 807h215l234 -807l264 807h188z" glyph-name="wacute" horiz-adv-x="1673" unicode="ẃ"/><glyph d="M823 1823q45 0 77 -32t32 -77t-32 -76.5t-77 -31.5t-76.5 31.5t-31.5 76.5t31.5 77t76.5 32zM1259.5 1823q45.5 0 77 -32t31.5 -77t-31.5 -76.5t-77 -31.5t-77 31.5t-31.5 76.5t31.5 77t77 32zM1649 0h-256l-353 1235l-352 -1235h-256l-369 1434h209l295 -1192l330 1192 h287l329 -1192l297 1192h207z" glyph-name="Wdieresis" horiz-adv-x="2080" unicode="Ẅ"/><glyph d="M619.5 1413q44.5 0 76 -31.5t31.5 -76.5t-31.5 -77t-76 -32t-76 32t-31.5 77t31.5 76.5t76 31.5zM1055 1413q45 0 76.5 -31.5t31.5 -76.5t-31.5 -77t-76.5 -32t-77 32t-32 77t32 76.5t77 31.5zM1278 0h-201l-239 823l-242 -823h-201l-352 1024h188l265 -807l233 807h215 l234 -807l264 807h188z" glyph-name="wdieresis" horiz-adv-x="1673" unicode="ẅ"/><glyph d="M1413 0h-205l-125 330h-690l-123 -330h-207l562 1434h229zM455 494h567l-283 757zM739 -150q45 0 77 -31.5t32 -75.5t-32 -76t-77 -32t-76.5 32t-31.5 76t31.5 75.5t76.5 31.5z" glyph-name="uni1EA0" horiz-adv-x="1478" unicode="Ạ"/><glyph d="M1083 1024v-1024h-174v131q-155 -160 -349 -160t-319.5 156t-125.5 385t126 385q127 156 321 156t347 -158v129h174zM571 137q82 0 173.5 41t164.5 117v434q-74 76 -165 117t-173 41q-127 0 -199.5 -101.5t-72.5 -273.5t72.5 -273.5t199.5 -101.5zM641 -150 q45 0 77 -31.5t32 -75.5t-32 -76t-77 -32t-77 32t-32 76t32 75.5t77 31.5z" glyph-name="uni1EA1" unicode="ạ"/><glyph d="M817 2038q242 0 242 -186q0 -96 -37 -135.5t-107.5 -75t-86 -49t-17.5 -38.5h-154q4 91 51.5 133t105.5 70.5t75.5 47t15.5 38.5q0 53 -75.5 53t-155.5 -24l-64 125q94 41 207 41zM1413 0h-205l-125 330h-690l-123 -330h-207l562 1434h229zM455 494h567l-283 757z" glyph-name="uni1EA2" horiz-adv-x="1478" unicode="Ả"/><glyph d="M690 1675q240 0 240 -186q0 -96 -36 -135t-107.5 -74.5t-86 -49t-18.5 -38.5h-154q4 92 52 133t106.5 70t75 47t16.5 39q-2 53 -77.5 53t-155.5 -25l-62 125q94 41 207 41zM1083 1024v-1024h-174v131q-154 -160 -348.5 -160t-320 156t-125.5 385t126 385t320.5 156 t347.5 -158v129h174zM571 137q82 0 173.5 41t164.5 117v434q-74 76 -165 117t-173 41q-127 0 -199.5 -101.5t-72.5 -273.5t72.5 -273.5t199.5 -101.5z" glyph-name="uni1EA3" unicode="ả"/><glyph d="M1315 1690h-193l262 354h215zM547 1565h-215l311 354h193l311 -354h-215l-193 237zM854 1434l559 -1434h-205l-125 330h-690l-123 -330h-207l562 1434h229zM1022 494l-283 757l-284 -757h567z" glyph-name="uni1EA4" horiz-adv-x="1478" unicode="Ấ"/><glyph d="M1501 1634l-284 -354h-191l260 354h215zM449 1155h-216l312 354h192l312 -354h-215l-193 238zM909 1024h174v-1024h-174v131q-155 -160 -349 -160t-319.5 156t-125.5 385t126 385q127 156 321 156t347 -158v129zM571 137q82 0 173.5 41t164.5 117v434q-74 76 -165 117 t-173 41q-127 0 -199.5 -101.5t-72.5 -273.5t72.5 -273.5t199.5 -101.5z" glyph-name="uni1EA5" unicode="ấ"/><glyph d="M1206 1690l-284 354h215l260 -354h-191zM547 1565h-215l311 354h193l311 -354h-215l-193 237zM1413 0h-205l-125 330h-690l-123 -330h-207l562 1434h229zM1022 494l-283 757l-284 -757h567z" glyph-name="uni1EA6" horiz-adv-x="1478" unicode="Ầ"/><glyph d="M1300 1280h-192l-285 354h215zM449 1155h-216l312 354h192l312 -354h-215l-193 238zM909 1024h174v-1024h-174v131q-155 -160 -349 -160t-319.5 156t-125.5 385t126 385q127 156 321 156t347 -158v129zM571 137q82 0 173.5 41t164.5 117v434q-74 76 -165 117t-173 41 q-127 0 -199.5 -101.5t-72.5 -273.5t72.5 -273.5t199.5 -101.5z" glyph-name="uni1EA7" unicode="ầ"/><glyph d="M1296 2122q113 0 177.5 -45t64.5 -160q0 -78 -37 -117t-107.5 -75.5t-86 -50t-17.5 -38.5h-153q5 116 103 174l66 36q78 39 78 81q0 53 -88 51q-63 0 -143 -24l-63 125q93 43 206 43zM547 1565h-215l311 354h193l311 -354h-215l-193 237zM854 1434l559 -1434h-205 l-125 330h-690l-123 -330h-207l562 1434h229zM1022 494l-283 757l-284 -757h567z" glyph-name="uni1EA8" horiz-adv-x="1478" unicode="Ẩ"/><glyph d="M1200 1712q113 0 176.5 -45t63.5 -160q0 -78 -36 -116.5t-107.5 -75.5t-87 -50.5t-17.5 -37.5h-154q6 119 104 174q22 12 66.5 35t62 41t17.5 41q-2 53 -90 51q-63 0 -143 -25l-62 125q94 43 207 43zM449 1155h-216l312 354h192l312 -354h-215l-193 238zM909 1024h174 v-1024h-174v131q-154 -160 -348.5 -160t-320 156t-125.5 385t126 385t320.5 156t347.5 -158v129zM571 137q82 0 173.5 41t164.5 117v434q-74 76 -165 117t-173 41q-127 0 -199.5 -101.5t-72.5 -273.5t72.5 -273.5t199.5 -101.5z" glyph-name="uni1EA9" unicode="ẩ"/><glyph d="M588 2089q-59 0 -144 -127l-112 86l18 26t21.5 30.5t22 28.5t27.5 32t26.5 26.5t32 25.5t40.5 21t74 15q82 0 197 -84q68 -49 100 -47q59 -2 141 125l115 -86q-111 -163 -187 -190t-138 -4q-62 24 -130.5 73t-103.5 49zM836 1919l311 -354h-215l-193 237l-192 -237h-215 l311 354h193zM1413 0h-205l-125 330h-690l-123 -330h-207l562 1434h229zM1022 494l-283 757l-284 -757h567z" glyph-name="uni1EAA" horiz-adv-x="1478" unicode="Ẫ"/><glyph d="M489 1679q-57 0 -141 -127l-115 86l19 26q18 26 22.5 31t21.5 28.5t26.5 31.5t28 26.5t32.5 26t40 21.5t73 14q82 0 173 -66.5t124 -64.5q59 -2 143 125l113 -86q-112 -164 -187 -191q-74 -26 -154 4q-40 16 -58.5 28t-72 49.5t-88.5 37.5zM737 1509l312 -354h-215 l-193 238l-192 -238h-216l312 354h192zM1083 1024v-1024h-174v131q-154 -160 -348.5 -160t-320 156t-125.5 385t126 385t320.5 156t347.5 -158v129h174zM571 137q82 0 173.5 41t164.5 117v434q-74 76 -165 117t-173 41q-127 0 -199.5 -101.5t-72.5 -273.5t72.5 -273.5 t199.5 -101.5z" glyph-name="uni1EAB" unicode="ẫ"/><glyph d="M547 1565h-215l311 354h193l311 -354h-215l-193 237zM1413 0h-205l-125 330h-690l-123 -330h-207l562 1434h229zM1022 494l-283 757l-284 -757h567zM739 -150q45 0 77 -31.5t32 -75.5t-32 -76t-77 -32t-76.5 32t-31.5 76t31.5 75.5t76.5 31.5z" glyph-name="uni1EAC" horiz-adv-x="1478" unicode="Ậ"/><glyph d="M449 1155h-216l312 354h192l312 -354h-215l-193 238zM1083 1024v-1024h-174v131q-155 -160 -349 -160t-319.5 156t-125.5 385t126 385q127 156 321 156t347 -158v129h174zM571 137q82 0 173.5 41t164.5 117v434q-74 76 -165 117t-173 41q-127 0 -199.5 -101.5 t-72.5 -273.5t72.5 -273.5t199.5 -101.5zM641 -150q45 0 77 -31.5t32 -75.5t-32 -76t-77 -32t-77 32t-32 76t32 75.5t77 31.5z" glyph-name="uni1EAD" unicode="ậ"/><glyph d="M827 1919h-190l262 354h215zM946 1913h172q0 -141 -105.5 -237.5t-273.5 -96.5t-273.5 96.5t-105.5 237.5h172q0 -80 58.5 -129t148.5 -49t148.5 49t58.5 129zM1413 0h-205l-125 330h-690l-123 -330h-207l562 1434h229zM455 494h567l-283 757z" glyph-name="uni1EAE" horiz-adv-x="1478" unicode="Ắ"/><glyph d="M731 1509h-192l262 353h215zM642 1169q-169 0 -274.5 96.5t-105.5 237.5h172q0 -80 58.5 -129t148.5 -49t148.5 49t58.5 129h172q0 -141 -104.5 -237.5t-273.5 -96.5zM1083 1024v-1024h-174v131q-154 -160 -348.5 -160t-320 156t-125.5 385t126 385t320.5 156t347.5 -158 v129h174zM571 137q82 0 173.5 41t164.5 117v434q-74 76 -165 117t-173 41q-127 0 -199.5 -101.5t-72.5 -273.5t72.5 -273.5t199.5 -101.5z" glyph-name="uni1EAF" unicode="ắ"/><glyph d="M836 1919h-193l-285 354h215zM946 1913h172q0 -141 -105.5 -237.5t-273.5 -96.5t-273.5 96.5t-105.5 237.5h172q0 -80 58.5 -129t148.5 -49t148.5 49t58.5 129zM1413 0h-205l-125 330h-690l-123 -330h-207l562 1434h229zM455 494h567l-283 757z" glyph-name="uni1EB0" horiz-adv-x="1478" unicode="Ằ"/><glyph d="M547 1509l-287 353h215l262 -353h-190zM262 1503h172q0 -80 58.5 -129t148.5 -49t148.5 49t58.5 129h172q0 -141 -105.5 -237.5t-273.5 -96.5t-273.5 96.5t-105.5 237.5zM1083 1024v-1024h-174v131q-155 -160 -349 -160t-319.5 156t-125.5 385t126 385q127 156 321 156 t347 -158v129h174zM571 137q82 0 173.5 41t164.5 117v434q-74 76 -165 117t-173 41q-127 0 -199.5 -101.5t-72.5 -273.5t72.5 -273.5t199.5 -101.5z" glyph-name="uni1EB1" unicode="ằ"/><glyph d="M786 2355q242 -1 242 -187q0 -96 -37 -134.5t-107.5 -74t-86 -49.5t-17.5 -38h-153q4 92 49 131.5t105 70t78 48.5t15 39q0 53 -75.5 53t-155.5 -25l-63 125q93 41 206 41zM946 1913h172q0 -141 -105.5 -237.5t-273.5 -96.5t-273.5 96.5t-105.5 237.5h172 q0 -80 58.5 -129t148.5 -49t148.5 49t58.5 129zM1413 0h-205l-125 330h-690l-123 -330h-207l562 1434h229zM455 494h567l-283 757z" glyph-name="uni1EB2" horiz-adv-x="1478" unicode="Ẳ"/><glyph d="M690 1946q240 0 240 -187q0 -96 -36 -135t-107.5 -74.5t-86 -49t-18.5 -38.5h-154q4 92 54.5 135t106.5 70t72.5 45.5t16.5 38.5q-2 53 -77.5 53t-155.5 -24l-62 125q94 41 207 41zM641 1169q-168 0 -273.5 96.5t-105.5 237.5h172q0 -80 58.5 -128t148.5 -48t148.5 48 t58.5 128h172q0 -141 -105.5 -237.5t-273.5 -96.5zM1083 1024v-1024h-174v131q-154 -160 -348 -160t-320 156t-126 385t126 385t320.5 156t347.5 -158v129h174zM571 137q82 0 173.5 41t164.5 117v434q-74 76 -165 117t-173 41q-127 0 -199.5 -101.5t-72.5 -273.5 t72.5 -273.5t199.5 -101.5z" glyph-name="uni1EB3" unicode="ẳ"/><glyph d="M594 2257q82 0 197 -84q68 -47 100 -47q59 0 141 127l115 -86q-75 -104 -111 -140q-64 -63 -145 -63q-79 0 -143 41q-18 12 -72 50t-88 38q-59 0 -144 -127l-112 86q0 2 17.5 26.5t21.5 31t22.5 30t27.5 30.5t26.5 25.5t32 26.5t38.5 22q25 14 76 13zM946 1913h172 q0 -141 -105.5 -237.5t-273.5 -96.5t-273.5 96.5t-105.5 237.5h172q0 -80 58.5 -128t148.5 -48t148.5 48t58.5 128zM1413 0h-205l-125 330h-690l-123 -330h-207l562 1434h229zM455 494h567l-283 757z" glyph-name="uni1EB4" horiz-adv-x="1478" unicode="Ẵ"/><glyph d="M489 1663q-57 0 -141 -127l-115 86q0 2 18.5 26.5t23 31t21.5 30t26.5 30.5t28 25.5t32.5 25.5t37 21t76 15q82 0 198 -84q66 -47 99 -47q59 0 143 127l113 -86q-111 -161 -181 -189q-34 -14 -77.5 -14t-83 14.5t-58 26.5t-72 50t-88.5 38zM641 1325q90 0 148.5 49 t58.5 129h172q0 -141 -104.5 -237.5t-273.5 -96.5t-274.5 96.5t-105.5 237.5h172q0 -80 58.5 -129t148.5 -49zM1083 1024v-1024h-174v131q-154 -160 -348.5 -160t-320 156t-125.5 385t126 385t320.5 156t347.5 -158v129h174zM571 137q82 0 173.5 41t164.5 117v434 q-74 76 -165 117t-173 41q-127 0 -199.5 -101.5t-72.5 -273.5t72.5 -273.5t199.5 -101.5z" glyph-name="uni1EB5" unicode="ẵ"/><glyph d="M946 1913h172q0 -141 -105.5 -237.5t-273.5 -96.5t-273.5 96.5t-105.5 237.5h172q0 -80 58.5 -129t148.5 -49t148.5 49t58.5 129zM1413 0h-205l-125 330h-690l-123 -330h-207l562 1434h229zM455 494h567l-283 757zM739 -150q45 0 77 -31.5t32 -75.5t-32 -76t-77 -32 t-76.5 32t-31.5 76t31.5 75.5t76.5 31.5z" glyph-name="uni1EB6" horiz-adv-x="1478" unicode="Ặ"/><glyph d="M642 1169q-169 0 -274.5 96.5t-105.5 237.5h172q0 -80 58.5 -129t148.5 -49t148.5 49t58.5 129h172q0 -141 -104.5 -237.5t-273.5 -96.5zM1083 1024v-1024h-174v131q-154 -160 -348.5 -160t-320 156t-125.5 385t126 385t320.5 156t347.5 -158v129h174zM571 137 q82 0 173.5 41t164.5 117v434q-74 76 -165 117t-173 41q-127 0 -199.5 -101.5t-72.5 -273.5t72.5 -273.5t199.5 -101.5zM641 -150q45 0 77 -31.5t32 -75.5t-32 -76t-77 -32t-77 32t-32 76t32 75.5t77 31.5z" glyph-name="uni1EB7" unicode="ặ"/><glyph d="M1169 164v-164h-962v1434h942v-164h-748v-439h668v-161h-668v-506h768zM688 -150q45 0 77 -31.5t32 -75.5t-32 -76t-77 -32t-76.5 32t-31.5 76t31.5 75.5t76.5 31.5z" glyph-name="uni1EB8" horiz-adv-x="1273" unicode="Ẹ"/><glyph d="M1098 514q0 -23 -2 -45h-785q0 -10 2 -18q16 -141 100.5 -227.5t231 -86.5t318.5 94l45 -120q-182 -139 -394 -139.5t-349.5 155.5t-137.5 386t137.5 386t362.5 155t348 -152.5t123 -387.5zM628 887q-124 0 -205 -74t-106 -199h598q-20 129 -91.5 201t-195.5 72z M622 -150q44 0 75.5 -31.5t31.5 -75.5t-31.5 -76t-75.5 -32t-76 32t-32 76t32 75.5t76 31.5z" glyph-name="uni1EB9" horiz-adv-x="1204" unicode="ẹ"/><glyph d="M768 2038q240 0 240 -186q0 -96 -36 -135.5t-107.5 -75t-86 -49t-18.5 -38.5h-152q0 87 51 132.5t109 70.5q55 29 71.5 47.5t16.5 38.5q0 53 -77 53t-154 -24l-64 125q94 41 207 41zM1169 164v-164h-962v1434h942v-164h-748v-436h668v-164h-668v-506h768z" glyph-name="uni1EBA" horiz-adv-x="1273" unicode="Ẻ"/><glyph d="M674 1675q239 0 239 -186q0 -96 -35.5 -135t-107.5 -74.5t-86 -49t-18 -38.5h-152q0 87 49.5 131t107.5 72.5t74.5 46.5t16.5 39q0 53 -77 53t-157 -25l-61 125q94 41 207 41zM1098 514q0 -23 -2 -45h-785q0 -10 2 -18q16 -141 100.5 -227.5t231 -86.5t318.5 94l45 -120 q-182 -139 -394 -139.5t-349.5 155.5t-137.5 386t137.5 386t362.5 155t348 -152.5t123 -387.5zM628 887q-124 0 -205 -74t-106 -199h598q-20 129 -91.5 201t-195.5 72z" glyph-name="uni1EBB" horiz-adv-x="1204" unicode="ẻ"/><glyph d="M535 1720q-57 0 -142 -127l-112 86q0 2 17 28t21.5 31t22.5 28.5t26 30.5q10 7 28 25q62 62 145.5 62t197.5 -84q68 -47 101 -47q59 0 141 127l115 -86q-72 -100 -110 -138q-65 -65 -150 -65q-41 0 -82 14.5t-58.5 27t-71.5 50t-89 37.5zM1169 164v-164h-962v1434h942 v-164h-748v-439h668v-161h-668v-506h768z" glyph-name="uni1EBC" horiz-adv-x="1273" unicode="Ẽ"/><glyph d="M475 1475q82 0 197 -84q68 -47 100 -48q59 0 141 127l115 -86q-71 -99 -109 -138q-63 -64 -151 -64q-41 0 -82 14t-58.5 26.5t-72 50.5t-88.5 38q-57 0 -141 -127l-113 86q0 9 21.5 36t40 50.5t26.5 31t26.5 26t33 25.5t40 21.5t74.5 14.5zM1098 514q0 -23 -2 -45h-785 q0 -10 2 -18q16 -141 100.5 -227.5t231 -86.5t318.5 94l45 -120q-182 -139 -394 -139.5t-349.5 155.5t-137.5 386t137.5 386t362.5 155t348 -152.5t123 -387.5zM628 887q-124 0 -205 -74t-106 -199h598q-20 129 -91.5 201t-195.5 72z" glyph-name="uni1EBD" horiz-adv-x="1204" unicode="ẽ"/><glyph d="M1548 2044l-286 -354h-191l262 354h215zM494 1565h-213l311 354h190l314 -354h-215l-193 237zM401 164h768v-164h-962v1434h942v-164h-748v-439h668v-161h-668v-506z" glyph-name="uni1EBE" horiz-adv-x="1273" unicode="Ế"/><glyph d="M1481 1634l-287 -354h-190l262 354h215zM426 1155h-213l311 354h191l313 -354h-215l-192 238zM1098 514q0 -23 -2 -45h-785q0 -10 2 -18q16 -141 100.5 -227.5t231 -86.5t318.5 94l45 -120q-182 -139 -394 -139.5t-349.5 155.5t-137.5 386t137.5 386t362.5 155 t348 -152.5t123 -387.5zM628 887q-124 0 -205 -74t-106 -199h598q-20 129 -91.5 201t-195.5 72z" glyph-name="uni1EBF" horiz-adv-x="1204" unicode="ế"/><glyph d="M1155 1690l-285 354h215l261 -354h-191zM496 1565h-215l311 354h192l312 -354h-215l-193 237zM401 164h768v-164h-962v1434h942v-164h-748v-439h668v-161h-668v-506z" glyph-name="uni1EC0" horiz-adv-x="1273" unicode="Ề"/><glyph d="M1087 1280l-284 354h215l260 -354h-191zM426 1155h-213l311 354h191l313 -354h-215l-192 238zM1098 514q0 -23 -2 -45h-785q0 -10 2 -18q16 -141 100.5 -227.5t231 -86.5t318.5 94l45 -120q-182 -139 -394 -139.5t-349.5 155.5t-137.5 386t137.5 386t362.5 155 t348 -152.5t123 -387.5zM628 887q-124 0 -205 -74t-106 -199h598q-20 129 -91.5 201t-195.5 72z" glyph-name="uni1EC1" horiz-adv-x="1204" unicode="ề"/><glyph d="M1245 2122q113 0 176.5 -45t63.5 -160q0 -78 -36 -117t-107.5 -75.5t-86 -50t-16.5 -38.5h-154q5 114 103 174q20 12 66 35t62.5 41.5t16.5 40.5q0 53 -88 51q-63 0 -143 -24l-64 125q94 43 207 43zM494 1565h-213l311 354h190l314 -354h-215l-193 237zM401 164h768v-164 h-962v1434h942v-164h-748v-439h668v-161h-668v-506z" glyph-name="uni1EC2" horiz-adv-x="1273" unicode="Ể"/><glyph d="M1178 1712q113 0 177 -45t64 -160q0 -78 -36.5 -116.5t-108.5 -75.5t-86 -50.5t-17 -37.5h-153q4 117 102 174q20 12 66.5 35t63 41t16.5 41q0 53 -88 51q-63 0 -144 -25l-63 125q94 43 207 43zM426 1155h-213l311 354h191l313 -354h-215l-192 238zM1098 514 q0 -23 -2 -45h-785q0 -10 2 -18q16 -141 100.5 -227.5t231 -86.5t318.5 94l45 -120q-182 -139 -394 -139.5t-349.5 155.5t-137.5 386t137.5 386t362.5 155t348 -152.5t123 -387.5zM628 887q-124 0 -205 -74t-106 -199h598q-20 129 -91.5 201t-195.5 72z" glyph-name="uni1EC3" horiz-adv-x="1204" unicode="ể"/><glyph d="M535 2089q-57 0 -142 -127l-112 86l17 26t21.5 30.5t22.5 28.5t26.5 32t27 26.5t32.5 25.5t41 21t74 15q82 0 196 -84q68 -49 101 -47q59 -2 141 125l115 -86q-75 -104 -111 -140q-60 -59 -142 -61q-83 -2 -149 41q-18 12 -71 50t-88 38zM782 1919l314 -354h-215 l-193 237l-194 -237h-213l311 354h190zM1169 164v-164h-962v1434h942v-164h-748v-439h668v-161h-668v-506h768z" glyph-name="uni1EC4" horiz-adv-x="1273" unicode="Ễ"/><glyph d="M467 1679q-57 0 -141 -127l-113 86l17 26q18 26 22 31t22.5 28.5t26.5 31.5l27 27q19 19 60.5 40t86.5 21q82 0 197 -84q68 -49 100 -47q59 -2 141 125l115 -86q-74 -103 -111 -140q-59 -59 -149 -63q-41 0 -82 15.5t-58.5 28t-71.5 50t-89 37.5zM715 1509l313 -354h-215 l-192 238l-195 -238h-213l311 354h191zM1098 514q0 -23 -2 -45h-785q0 -10 2 -18q16 -141 100.5 -227.5t231 -86.5t318.5 94l45 -120q-182 -139 -394 -139.5t-349.5 155.5t-137.5 386t137 386t362.5 155t348.5 -152.5t123 -387.5zM628 887q-124 0 -205 -74t-106 -199h598 q-20 129 -91.5 201t-195.5 72z" glyph-name="uni1EC5" horiz-adv-x="1204" unicode="ễ"/><glyph d="M494 1565h-213l311 354h190l314 -354h-215l-193 237zM1169 164v-164h-962v1434h942v-164h-748v-439h668v-161h-668v-506h768zM688 -150q45 0 77 -31.5t32 -75.5t-32 -76t-77 -32t-76.5 32t-31.5 76t31.5 75.5t76.5 31.5z" glyph-name="uni1EC6" horiz-adv-x="1273" unicode="Ệ"/><glyph d="M426 1155h-213l311 354h191l313 -354h-215l-192 238zM1098 514q0 -23 -2 -45h-785q0 -10 2 -18q16 -141 100.5 -227.5t231 -86.5t318.5 94l45 -120q-182 -139 -394 -139.5t-349.5 155.5t-137.5 386t137 386t362.5 155t348.5 -152.5t123 -387.5zM628 887q-124 0 -205 -74 t-106 -199h598q-20 129 -91.5 201t-195.5 72zM622 -150q44 0 75.5 -31.5t31.5 -75.5t-31.5 -76t-75.5 -32t-76 32t-32 76t32 75.5t76 31.5z" glyph-name="uni1EC7" horiz-adv-x="1204" unicode="ệ"/><glyph d="M389 2038q240 0 240 -186q0 -96 -36 -135.5t-107.5 -75t-87 -49t-17.5 -38.5h-154q4 92 54.5 135t105.5 70t72.5 45.5t17.5 38.5q-2 53 -77.5 53t-155.5 -24l-62 125q94 41 207 41zM401 0h-194v1434h194v-1434z" glyph-name="uni1EC8" horiz-adv-x="608" unicode="Ỉ"/><glyph d="M352 1675q240 0 240 -186q0 -96 -36 -135t-107.5 -74.5t-86 -49t-18.5 -38.5h-151q0 91 48.5 132.5t107 70.5t75 47t16.5 39q-2 53 -78 53t-155 -25l-62 125q94 41 207 41zM354 0h-176v1024h176v-1024z" glyph-name="uni1EC9" horiz-adv-x="522" unicode="ỉ"/><glyph d="M401 0h-194v1434h194v-1434zM305 -150q45 0 76 -31.5t31 -75.5t-31 -76t-76 -32t-76.5 32t-31.5 76t31.5 75.5t76.5 31.5z" glyph-name="uni1ECA" horiz-adv-x="608" unicode="Ị"/><glyph d="M266 1413q45 0 77 -31.5t32 -76.5t-32 -77t-77 -32t-76.5 32t-31.5 77t31.5 76.5t76.5 31.5zM354 0h-176v1024h176v-1024zM266 -150q45 0 77 -31.5t32 -75.5t-32 -76t-77 -32t-76.5 32t-31.5 76t31.5 75.5t76.5 31.5z" glyph-name="uni1ECB" horiz-adv-x="522" unicode="ị"/><glyph d="M870 1462q207 0 369 -100t248 -269t86 -376t-86 -376t-248 -269.5t-369 -100.5t-368.5 100.5t-248.5 269.5t-87 376t87 377t248.5 269t368.5 99zM869 1278q-222 0 -361 -157.5t-139 -402.5t139 -403.5t362 -158.5t361.5 157.5t138.5 403.5t-139.5 403.5t-361.5 157.5z M868 -150q45 0 77 -31.5t32 -75.5t-32 -76t-77 -32t-76.5 32t-31.5 76t31.5 75.5t76.5 31.5z" glyph-name="uni1ECC" horiz-adv-x="1740" unicode="Ọ"/><glyph d="M1147 512q0 -229 -141.5 -385t-368.5 -156t-368.5 156t-141.5 386t141.5 386t368.5 155t368.5 -157t141.5 -385zM636 887q-151 0 -240 -104.5t-88 -270.5t90 -270.5t239 -104.5t238 103.5t88 271.5t-88 271.5t-239 103.5zM637 -150q45 0 75.5 -31.5t30.5 -75.5t-30.5 -76 t-75.5 -32t-77 32t-32 76t32 75.5t77 31.5z" glyph-name="uni1ECD" horiz-adv-x="1271" unicode="ọ"/><glyph d="M934 2038q240 0 240 -186q0 -96 -36 -135.5t-108 -75t-86 -49t-18 -38.5h-152q4 91 53 134.5t107 68.5q55 29 71.5 47.5t16.5 38.5q0 53 -75.5 53t-155.5 -24l-64 125q94 41 207 41zM870 1462q207 0 369 -100t248 -269t86 -376t-86 -376t-248 -269.5t-369 -100.5 t-368.5 100.5t-248.5 269.5t-87 376t87 377t248.5 269t368.5 99zM869 1278q-222 0 -361 -157.5t-139 -402.5t139 -403.5t362 -158.5t361.5 157.5t138.5 403.5t-139.5 403.5t-361.5 157.5z" glyph-name="uni1ECE" horiz-adv-x="1740" unicode="Ỏ"/><glyph d="M688 1675q240 0 240 -186q0 -96 -36 -135t-107.5 -74.5t-87 -49t-17.5 -38.5h-154q4 92 52 133t106.5 70t75 47t16.5 39q-2 53 -77.5 53t-155.5 -25l-62 125q94 41 207 41zM1147 512q0 -229 -141.5 -385t-368.5 -156t-368.5 156t-141.5 386t141.5 386t368.5 155 t368.5 -157t141.5 -385zM636 887q-151 0 -240 -104.5t-88 -270.5t90 -270.5t239 -104.5t238 103.5t88 271.5t-88 271.5t-239 103.5z" glyph-name="uni1ECF" horiz-adv-x="1271" unicode="ỏ"/><glyph d="M1446 1690h-193l263 354h215zM678 1565h-215l311 354h193l311 -354h-215l-193 237zM870 1462q207 0 369 -100t248 -269t86 -376t-86 -376t-248 -269.5t-369 -100.5t-368.5 100.5t-248.5 269.5t-87 376t87 377t248.5 269t368.5 99zM871 156q222 0 360.5 157.5t138.5 403.5 t-139 403.5t-361.5 157.5t-361.5 -157.5t-139 -402.5t140 -403.5t362 -158.5z" glyph-name="uni1ED0" horiz-adv-x="1740" unicode="Ố"/><glyph d="M1497 1634l-287 -354h-190l262 354h215zM442 1155h-213l312 354h190l313 -354h-215l-192 238zM1147 512q0 -229 -141.5 -385t-368.5 -156t-368.5 156t-141.5 386t141.5 386t368.5 155t368.5 -157t141.5 -385zM637 137q150 0 238 103.5t88 271.5t-88.5 271.5t-239 103.5 t-239.5 -104.5t-88 -270.5t90 -270.5t239 -104.5z" glyph-name="uni1ED1" horiz-adv-x="1271" unicode="ố"/><glyph d="M1337 1690l-286 354h215l262 -354h-191zM676 1565h-213l311 354h191l311 -354h-213l-195 237zM870 1462q207 0 369 -100t248 -269t86 -376t-86 -376t-248 -269.5t-369 -100.5t-368.5 100.5t-248.5 269.5t-87 376t87 377t248.5 269t368.5 99zM870 156q223 0 361.5 157.5 t138.5 403.5t-139 403.5t-361 157.5t-361.5 -157.5t-139.5 -402.5t139 -403.5t362 -158.5z" glyph-name="uni1ED2" horiz-adv-x="1740" unicode="Ồ"/><glyph d="M1104 1280l-285 354h215l260 -354h-190zM442 1155h-213l312 354h190l313 -354h-215l-192 238zM1147 512q0 -229 -141.5 -385t-368.5 -156t-368.5 156t-141.5 386t141.5 386t368.5 155t368.5 -157t141.5 -385zM637 137q150 0 238 103.5t88 271.5t-88.5 271.5t-239 103.5 t-239.5 -104.5t-88 -270.5t90 -270.5t239 -104.5z" glyph-name="uni1ED3" horiz-adv-x="1271" unicode="ồ"/><glyph d="M1425 2122q113 0 177.5 -45t64.5 -160q0 -78 -37 -117t-107.5 -75.5t-86 -50t-17.5 -38.5h-153q6 116 104 174l66 36q83 42 77 81q0 53 -88 51q-63 0 -143 -24l-63 125q93 43 206 43zM676 1565h-215l311 354h193l311 -354h-215l-193 237zM870 1462q207 0 369 -100 t248 -269t86 -376t-86 -376t-248 -269.5t-369 -100.5t-368.5 100.5t-248.5 269.5t-87 376t87 377t248.5 269t368.5 99zM870 156q223 0 361.5 157.5t138.5 403.5t-139 403.5t-361.5 157.5t-361.5 -157.5t-139 -402.5t139 -403.5t362 -158.5z" glyph-name="uni1ED4" horiz-adv-x="1740" unicode="Ổ"/><glyph d="M1194 1712q113 0 177.5 -45t64.5 -160q0 -78 -37 -116.5t-108.5 -75.5t-86 -50.5t-16.5 -37.5h-154q4 117 102 174q20 12 66.5 35t63 41t16.5 41q0 53 -88 51q-63 0 -143 -25l-64 125q94 43 207 43zM442 1155h-213l312 354h190l313 -354h-215l-192 238zM1147 512 q0 -229 -141.5 -385t-368.5 -156t-368.5 156t-141.5 386t141.5 386t368.5 155t368.5 -157t141.5 -385zM637 137q150 0 238 103.5t88 271.5t-88.5 271.5t-239 103.5t-239.5 -104.5t-88 -270.5t90 -270.5t239 -104.5z" glyph-name="uni1ED5" horiz-adv-x="1271" unicode="ổ"/><glyph d="M717 2089q-57 0 -142 -127l-114 86q2 0 19.5 25.5t21.5 30.5t21.5 29t26.5 32t27.5 26.5t33 25.5t41.5 21.5t73 14.5q82 0 197 -84q68 -49 100 -47q57 -2 141 125l113 -86q-68 -99 -107 -137.5t-73.5 -51t-76.5 -13.5t-83 14.5t-59.5 27.5t-71.5 50t-88 38zM965 1919 l311 -354h-213l-195 237l-192 -237h-213l311 354h191zM870 1462q207 0 369 -100t248 -269t86 -376t-86 -376t-248 -269.5t-369 -100.5t-368.5 100.5t-248.5 269.5t-87 376t87 377t248.5 269t368.5 99zM871 156q222 0 360.5 157.5t138.5 403.5t-139 403.5t-361.5 157.5 t-361.5 -157.5t-139 -402.5t140 -403.5t362 -158.5z" glyph-name="uni1ED6" horiz-adv-x="1740" unicode="Ỗ"/><glyph d="M483 1679q-57 0 -141 -127l-113 86l17 26q18 26 22 31t22 29q20 23 28 31q8 9 26 27q18 19 60 40t88 21q82 0 196 -84q68 -49 100 -47q59 -2 142 125l114 -86q-41 -57 -60 -83t-53 -60q-57 -56 -147 -60q-41 0 -81.5 15.5t-58 28t-72 50t-89.5 37.5zM731 1509l313 -354 h-215l-192 238l-195 -238h-213l312 354h190zM1147 512q0 -229 -141.5 -385t-368.5 -156t-368.5 156t-141.5 386t141.5 386t368.5 155t368.5 -157t141.5 -385zM637 137q150 0 238 103.5t88 271.5t-88.5 271.5t-239 103.5t-239.5 -104.5t-88 -270.5t90 -270.5t239 -104.5z" glyph-name="uni1ED7" horiz-adv-x="1271" unicode="ỗ"/><glyph d="M676 1565h-213l311 354h191l311 -354h-213l-195 237zM870 1462q207 0 369 -100t248 -269t86 -376t-86 -376t-248 -269.5t-369 -100.5t-368.5 100.5t-248.5 269.5t-87 376t87 377t248.5 269t368.5 99zM870 156q223 0 361.5 157.5t138.5 403.5t-139 403.5t-361 157.5 t-361.5 -157.5t-139.5 -402.5t139 -403.5t362 -158.5zM868 -150q45 0 77 -31.5t32 -75.5t-32 -76t-77 -32t-76.5 32t-31.5 76t31.5 75.5t76.5 31.5z" glyph-name="uni1ED8" horiz-adv-x="1740" unicode="Ộ"/><glyph d="M442 1155h-213l312 354h190l313 -354h-215l-192 238zM1147 512q0 -229 -141.5 -385t-368.5 -156t-368.5 156t-141.5 386t141.5 386t368.5 155t368.5 -157t141.5 -385zM637 137q150 0 238 103.5t88 271.5t-88.5 271.5t-239 103.5t-239.5 -104.5t-88 -270.5t90 -270.5 t239 -104.5zM637 -150q45 0 75.5 -31.5t30.5 -75.5t-30.5 -76t-75.5 -32t-77 32t-32 76t32 75.5t77 31.5z" glyph-name="uni1ED9" horiz-adv-x="1271" unicode="ộ"/><glyph d="M958 1565h-190l260 352h215zM1573 717q0 -207 -86 -376t-248 -269.5t-369 -100.5t-368.5 100.5t-248.5 269.5t-87 376t87 377t249 269t368 99q207 0 371 -102q121 -47 185.5 4t13.5 205l157 47q81 -252 -57 -350q-55 -43 -139 -43q172 -207 172 -506zM871 156 q222 0 360.5 157.5t138.5 403.5t-139 403.5t-361.5 157.5t-361.5 -157.5t-139 -402.5t140 -403.5t362 -158.5z" glyph-name="uni1EDA" horiz-adv-x="1740" unicode="Ớ"/><glyph d="M725 1155h-190l262 352h215zM1147 498q0 -215 -141.5 -371t-368.5 -156t-368.5 156t-141.5 386t141.5 386t368.5 154q168 0 293 -90q68 -12 104 16q64 49 23 180l137 41q70 -221 -49 -305q-45 -33 -109 -37q111 -145 111 -360zM637 137q150 0 238 103.5t88 271.5 t-88.5 271.5t-239 103.5t-239.5 -104.5t-88 -270.5t90 -270.5t239 -104.5z" glyph-name="uni1EDB" horiz-adv-x="1271" unicode="ớ"/><glyph d="M774 1565l-285 354h216l260 -354h-191zM1573 717q0 -207 -86 -376t-248 -269.5t-369 -100.5t-368.5 100.5t-248.5 269.5t-87 376t87 377t249 269t368 99q207 0 371 -102q121 -47 185.5 4t13.5 205l157 47q81 -252 -57 -350q-55 -43 -139 -43q172 -207 172 -506zM870 156 q223 0 361.5 157.5t138.5 403.5t-139 403.5t-361.5 157.5t-361.5 -157.5t-139 -402.5t139 -403.5t362 -158.5z" glyph-name="uni1EDC" horiz-adv-x="1740" unicode="Ờ"/><glyph d="M541 1155l-285 354h215l262 -354h-192zM1147 498q0 -215 -141.5 -371t-368.5 -156t-368.5 156t-141.5 386t141.5 386t368.5 154q168 0 293 -90q68 -12 104 16q64 49 23 180l137 41q70 -221 -49 -305q-45 -33 -109 -37q111 -145 111 -360zM637 137q150 0 238 103.5 t88 271.5t-88.5 271.5t-239 103.5t-239.5 -104.5t-88 -270.5t90 -270.5t239 -104.5z" glyph-name="uni1EDD" horiz-adv-x="1271" unicode="ờ"/><glyph d="M934 2038q240 0 240 -186q0 -96 -36 -135.5t-108 -75t-86 -49t-16 -38.5h-154q4 91 53 134.5t107 68.5q55 29 71.5 47.5t16.5 38.5q0 53 -75.5 53t-155.5 -24l-64 125q94 41 207 41zM1573 717q0 -207 -86 -376t-248 -269.5t-369 -100.5t-368.5 100.5t-248.5 269.5 t-87 376t87 377t249 269t368 99q207 0 371 -102q121 -47 185.5 4t13.5 205l157 47q81 -252 -57 -350q-55 -43 -139 -43q172 -207 172 -506zM871 156q222 0 360.5 157.5t138.5 403.5t-139 403.5t-361.5 157.5t-361.5 -157.5t-139 -402.5t140 -403.5t362 -158.5z" glyph-name="uni1EDE" horiz-adv-x="1740" unicode="Ở"/><glyph d="M688 1675q240 0 240 -186q0 -96 -36 -135t-107.5 -74.5t-87 -49t-17.5 -38.5h-154q4 92 52 133t106.5 70t75 47t16.5 39q-2 53 -77.5 53t-155.5 -25l-62 125q94 41 207 41zM1147 498q0 -215 -141.5 -371t-368.5 -156t-368.5 156t-141.5 386t141.5 386t368.5 154 q168 0 293 -90q68 -12 104 16q64 49 23 180l137 41q70 -221 -49 -305q-45 -33 -109 -37q111 -145 111 -360zM637 137q150 0 238 103.5t88 271.5t-88.5 271.5t-239 103.5t-239.5 -104.5t-88 -270.5t90 -270.5t239 -104.5z" glyph-name="uni1EDF" horiz-adv-x="1271" unicode="ở"/><glyph d="M717 1720q-57 0 -142 -127l-114 86q7 7 26 35.5t36.5 52t26.5 30.5q10 7 28 25q62 62 145.5 62t198.5 -84q68 -47 100 -47q57 0 141 127l113 -86q-110 -162 -180 -190q-34 -14 -76.5 -13.5t-83.5 15t-59.5 27t-71.5 50t-88 37.5zM1573 717q0 -207 -86 -376t-248 -269.5 t-369 -100.5t-368.5 100.5t-248.5 269.5t-87 376t87 377t249 269t368 99q207 0 371 -102q121 -47 185.5 4t13.5 205l157 47q81 -252 -57 -350q-55 -43 -139 -43q172 -207 172 -506zM871 156q222 0 360.5 157.5t138.5 403.5t-139 403.5t-361.5 157.5t-361.5 -157.5 t-139 -402.5t140 -403.5t362 -158.5z" glyph-name="uni1EE0" horiz-adv-x="1740" unicode="Ỡ"/><glyph d="M483 1311q-57 0 -141 -127l-113 86q0 9 21.5 36t39.5 50q20 24 28 32l26 26q20 21 60 41t88 20q82 0 196 -84q68 -47 100 -48q59 0 142 127l114 -86q-74 -103 -111 -140q-62 -62 -149 -62q-41 0 -81.5 14t-58 26.5t-72 50.5t-89.5 38zM1147 498q0 -215 -141.5 -371 t-368.5 -156t-368.5 156t-141.5 386t141.5 386t368.5 154q168 0 293 -90q68 -12 104 16q64 49 23 180l137 41q70 -221 -49 -305q-45 -33 -109 -37q111 -145 111 -360zM637 137q150 0 238 103.5t88 271.5t-88.5 271.5t-239 103.5t-239.5 -104.5t-88 -270.5t90 -270.5 t239 -104.5z" glyph-name="uni1EE1" horiz-adv-x="1271" unicode="ỡ"/><glyph d="M1573 717q0 -207 -86 -376t-248 -269.5t-369 -100.5t-368.5 100.5t-248.5 269.5t-87 376t87 377t249 269t368 99q207 0 371 -102q121 -47 185.5 4t13.5 205l157 47q81 -252 -57 -350q-55 -43 -139 -43q172 -207 172 -506zM871 156q222 0 360.5 157.5t138.5 403.5 t-139 403.5t-361.5 157.5t-361.5 -157.5t-139 -402.5t140 -403.5t362 -158.5zM868 -150q45 0 77 -31.5t32 -75.5t-32 -76t-77 -32t-76.5 32t-31.5 76t31.5 75.5t76.5 31.5z" glyph-name="uni1EE2" horiz-adv-x="1740" unicode="Ợ"/><glyph d="M1147 498q0 -215 -141.5 -371t-368.5 -156t-368.5 156t-141.5 386t141.5 386t368.5 154q168 0 293 -90q68 -12 104 16q64 49 23 180l137 41q70 -221 -49 -305q-45 -33 -109 -37q111 -145 111 -360zM637 137q150 0 238 103.5t88 271.5t-88.5 271.5t-239 103.5 t-239.5 -104.5t-88 -270.5t90 -270.5t239 -104.5zM637 -150q45 0 75.5 -31.5t30.5 -75.5t-30.5 -76t-75.5 -32t-77 32t-32 76t32 75.5t77 31.5z" glyph-name="uni1EE3" horiz-adv-x="1271" unicode="ợ"/><glyph d="M1374 1434v-949q0 -219 -161.5 -366.5t-420.5 -147.5t-422 148.5t-163 365.5v949h194v-949q0 -154 105.5 -248t285.5 -94t284 94.5t104 247.5v949h194zM790.5 -150q45.5 0 77 -31.5t31.5 -75.5t-31.5 -76t-77 -32t-76 32t-30.5 76t30.5 75.5t76 31.5z" glyph-name="uni1EE4" horiz-adv-x="1572" unicode="Ụ"/><glyph d="M1042 1024v-1024h-176v129q-80 -76 -176 -117t-188 -41q-156 0 -255.5 97.5t-99.5 287.5v668h177v-668q0 -106 51 -163.5t143 -57.5q188 0 348 144v745h176zM596 -150q45 0 77 -31.5t32 -75.5t-32 -76t-77 -32t-77 32t-32 76t32 75.5t77 31.5z" glyph-name="uni1EE5" horiz-adv-x="1189" unicode="ụ"/><glyph d="M856 2038q240 0 240 -186q0 -96 -36 -135.5t-107.5 -75t-86 -49t-18.5 -38.5h-152q0 87 51 132.5t109 70.5q55 29 71.5 47.5t16.5 38.5q0 53 -77 53t-154 -24l-64 125q94 41 207 41zM1374 1434v-949q0 -219 -161.5 -366.5t-420.5 -147.5t-422 148.5t-163 365.5v949h194 v-949q0 -154 105.5 -248t285 -94t284 94.5t104.5 247.5v949h194z" glyph-name="uni1EE6" horiz-adv-x="1572" unicode="Ủ"/><glyph d="M654 1675q242 0 241 -186q0 -96 -36 -135t-107.5 -74.5t-87 -49t-17.5 -38.5h-153q4 92 49 131.5t105 70t77.5 48.5t17.5 39q-2 53 -77.5 53t-155.5 -25l-61 125q93 41 205 41zM1042 1024v-1024h-176v129q-80 -76 -176 -117t-188 -41q-156 0 -255.5 97.5t-99.5 287.5v668 h177v-668q0 -106 51 -163.5t143 -57.5q188 0 348 144v745h176z" glyph-name="uni1EE7" horiz-adv-x="1189" unicode="ủ"/><glyph d="M874 1565h-190l262 352h215zM1374 485q0 -219 -161.5 -366.5t-420.5 -147.5t-422 148.5t-163 365.5v949h194v-949q0 -154 105.5 -248t285 -94t284 94.5t104.5 247.5v949h178q45 0 72 22q59 47 30 170l160 45q54 -221 -70 -309q-70 -51 -176 -41v-836z" glyph-name="uni1EE8" horiz-adv-x="1572" unicode="Ứ"/><glyph d="M684 1155h-190l262 352h215zM1042 0h-176v129q-80 -76 -176 -117t-188 -41q-156 0 -255.5 97.5t-99.5 287.5v668h177v-668q0 -106 51 -163.5t143 -57.5q188 0 348 144v745h144q43 0 67 23q62 47 23 176l137 43q68 -219 -49 -303q-57 -43 -146 -39v-924z" glyph-name="uni1EE9" horiz-adv-x="1189" unicode="ứ"/><glyph d="M690 1565l-284 354h215l262 -354h-193zM1374 485q0 -219 -161.5 -366.5t-420.5 -147.5t-422 148.5t-163 365.5v949h194v-949q0 -154 105.5 -248t285 -94t284 94.5t104.5 247.5v949h178q45 0 72 22q59 47 30 170l160 45q54 -221 -70 -309q-70 -51 -176 -41v-836z" glyph-name="uni1EEA" horiz-adv-x="1572" unicode="Ừ"/><glyph d="M500 1155l-285 354h215l262 -354h-192zM1042 0h-176v129q-80 -76 -176 -117t-188 -41q-156 0 -255.5 97.5t-99.5 287.5v668h177v-668q0 -106 51 -163.5t143 -57.5q188 0 348 144v745h144q43 0 67 23q62 47 23 176l137 43q68 -219 -49 -303q-57 -43 -146 -39v-924z" glyph-name="uni1EEB" horiz-adv-x="1189" unicode="ừ"/><glyph d="M856 2038q240 0 240 -186q0 -96 -36 -135.5t-107.5 -75t-86 -49t-18.5 -38.5h-152q0 87 51 132.5t109 70.5q55 29 71.5 47.5t16.5 38.5q0 53 -77 53t-154 -24l-64 125q94 41 207 41zM1374 485q0 -219 -161.5 -366.5t-420.5 -147.5t-422 148.5t-163 365.5v949h194v-949 q0 -154 105.5 -248t285 -94t284 94.5t104.5 247.5v949h178q45 0 72 22q59 47 30 170l160 45q54 -221 -70 -309q-70 -51 -176 -41v-836z" glyph-name="uni1EEC" horiz-adv-x="1572" unicode="Ử"/><glyph d="M654 1675q242 0 241 -186q0 -96 -36 -135t-107.5 -74.5t-87 -49t-17.5 -38.5h-153q4 92 49 131.5t105 70t77.5 48.5t17.5 39q-2 53 -77.5 53t-155.5 -25l-61 125q93 41 205 41zM1042 0h-176v129q-80 -76 -176 -117t-188 -41q-156 0 -255.5 97.5t-99.5 287.5v668h177v-668 q0 -106 51 -163.5t143 -57.5q188 0 348 144v745h144q43 0 67 23q62 49 23 176l137 43q68 -219 -49 -303q-57 -43 -146 -39v-924z" glyph-name="uni1EED" horiz-adv-x="1189" unicode="ử"/><glyph d="M633 1720q-57 0 -141 -127l-113 86q0 2 17.5 28t21.5 31t22.5 28.5t26.5 30.5t26.5 25.5t32.5 25.5q14 8 39.5 22t75.5 14q82 0 197 -84q68 -47 100 -47q59 0 141 127l115 -86q-71 -99 -109 -138q-64 -65 -151 -65q-41 0 -82 14.5t-58.5 27t-71.5 50t-89 37.5zM1374 485 q0 -219 -161.5 -366.5t-420.5 -147.5t-422 148.5t-163 365.5v949h194v-949q0 -154 105.5 -248t285 -94t284 94.5t104.5 247.5v949h178q45 0 72 22q59 47 30 170l160 45q54 -221 -70 -309q-70 -51 -176 -41v-836z" glyph-name="uni1EEE" horiz-adv-x="1572" unicode="Ữ"/><glyph d="M444 1311q-59 0 -141 -127l-115 86q0 9 21.5 36t40 50.5t28 31t27 26t31.5 25.5t40 21t75 15q82 0 196 -84q68 -47 101 -48q59 0 141 127l115 -86q-111 -162 -183 -189q-35 -13 -77 -13t-81.5 14t-58 26.5t-72 50.5t-88.5 38zM1042 0h-176v129q-80 -76 -176 -117 t-188 -41q-156 0 -255.5 97.5t-99.5 287.5v668h177v-668q0 -106 51 -163.5t143 -57.5q188 0 348 144v745h144q43 0 67 23q62 49 23 176l137 43q68 -219 -49 -303q-57 -43 -146 -39v-924z" glyph-name="uni1EEF" horiz-adv-x="1189" unicode="ữ"/><glyph d="M1374 485q0 -219 -161.5 -366.5t-420.5 -147.5t-422 148.5t-163 365.5v949h194v-949q0 -154 105.5 -248t285 -94t284 94.5t104.5 247.5v949h178q45 0 72 22q59 47 30 170l160 45q54 -221 -70 -309q-70 -51 -176 -41v-836zM790.5 -150q45.5 0 77 -31.5t31.5 -75.5 t-31.5 -76t-77 -32t-76 32t-30.5 76t30.5 75.5t76 31.5z" glyph-name="uni1EF0" horiz-adv-x="1572" unicode="Ự"/><glyph d="M1042 0h-176v129q-80 -76 -176 -117t-188 -41q-156 0 -255.5 97.5t-99.5 287.5v668h177v-668q0 -106 51 -163.5t143 -57.5q188 0 348 144v745h144q43 0 67 23q62 47 23 176l137 43q68 -219 -49 -303q-57 -43 -146 -39v-924zM596 -150q45 0 77 -31.5t32 -75.5t-32 -76 t-77 -32t-77 32t-32 76t32 75.5t77 31.5z" glyph-name="uni1EF1" horiz-adv-x="1189" unicode="ự"/><glyph d="M621 1565l-287 354h215l262 -354h-190zM805 0h-195v500l-547 934h232l418 -729l420 729h231l-559 -932v-502z" glyph-name="Ygrave" horiz-adv-x="1427" unicode="Ỳ"/><glyph d="M469 1155l-287 354h215l262 -354h-190zM1083 1024l-598 -1434h-166l166 414l-442 1020h193l337 -805l326 805h184z" glyph-name="ygrave" horiz-adv-x="1126" unicode="ỳ"/><glyph d="M805 0h-195v500l-547 934h232l418 -729l420 729h231l-559 -932v-502zM716 -150q44 0 75.5 -31.5t31.5 -75.5t-31.5 -76t-75.5 -32t-76 32t-32 76t32 75.5t76 31.5z" glyph-name="uni1EF4" horiz-adv-x="1427" unicode="Ỵ"/><glyph d="M1083 1024l-598 -1434h-166l166 414l-442 1020h193l337 -805l326 805h184zM818 -150q44 0 76 -31.5t32 -75.5t-32 -76t-76 -32t-75.5 32t-31.5 76t31.5 75.5t75.5 31.5z" glyph-name="uni1EF5" horiz-adv-x="1126" unicode="ỵ"/><glyph d="M766 2038q240 0 240 -186q0 -96 -36 -135.5t-108 -75t-86 -49t-18 -38.5h-154q4 92 54.5 135t106.5 70t72.5 45.5t16.5 38.5q-2 53 -77.5 53t-155.5 -24l-62 125q94 41 207 41zM805 0h-195v500l-547 934h232l418 -729l420 729h231l-559 -932v-502z" glyph-name="uni1EF6" horiz-adv-x="1427" unicode="Ỷ"/><glyph d="M629 1675q239 0 239 -186q0 -96 -35.5 -135t-107.5 -74.5t-86 -49t-18 -38.5h-154q4 92 52.5 133t106.5 70t74.5 47t16.5 39q-2 53 -77.5 53t-156.5 -25l-61 125q94 41 207 41zM1083 1024l-598 -1434h-166l166 414l-442 1020h193l337 -805l326 805h184z" glyph-name="uni1EF7" horiz-adv-x="1126" unicode="ỷ"/><glyph d="M563 1720q-59 0 -141 -127l-115 86q0 2 17.5 28t21.5 31t22.5 28.5t28 30.5t26.5 25.5t31 25.5q14 8 39.5 22t75.5 14q82 0 199 -84q66 -47 98 -47q59 0 142 127l114 -86q-111 -162 -181 -190q-34 -14 -77 -13.5t-83 15t-58 27t-71.5 50t-88.5 37.5zM805 0h-195v500 l-547 934h232l418 -729l420 729h231l-559 -932v-502z" glyph-name="uni1EF8" horiz-adv-x="1427" unicode="Ỹ"/><glyph d="M412 1311q-57 0 -142 -127l-114 86q0 7 22.5 35t40 51.5t26.5 31t27.5 26t32.5 25.5t38 21t75 15q82 0 198 -84q66 -47 99 -48q59 0 143 127l113 -86q-113 -163 -181 -189q-34 -13 -76 -13t-83 14t-59.5 26.5t-71.5 50.5t-88 38zM1083 1024l-598 -1434h-166l166 414 l-442 1020h193l337 -805l326 805h184z" glyph-name="uni1EF9" horiz-adv-x="1126" unicode="ỹ"/><glyph d="M1169 522h-1063v146h1063v-146z" glyph-name="endash" horiz-adv-x="1275" unicode="–"/><glyph d="M1819 522h-1713v146h1713v-146z" glyph-name="emdash" horiz-adv-x="1925" unicode="—"/><glyph d="M340 1158q0 -44 -33 -77.5t-79 -33.5t-78.5 30.5t-40.5 83.5q-14 88 43 200.5t147 180.5l78 -49q-96 -92 -119 -221q35 -10 58.5 -40t23.5 -74z" glyph-name="quoteleft" horiz-adv-x="460" unicode="‘"/><glyph d="M121 1433q0 44 34 77.5t79 33.5t77.5 -30.5t40.5 -83.5q14 -88 -42 -201t-146 -180l-78 49q94 92 119 221q-35 10 -59.5 40t-24.5 74z" glyph-name="quoteright" horiz-adv-x="460" unicode="’"/><glyph d="M234 221q45 0 77.5 -30.5t40.5 -81.5q14 -88 -42 -202t-146 -181l-78 49q94 94 119 223q-35 8 -59.5 39t-24.5 75t34 76.5t79 32.5z" glyph-name="quotesinglbase" horiz-adv-x="460" unicode="‚"/><glyph d="M340 1158q0 -44 -33 -77.5t-79 -33.5t-78.5 30.5t-40.5 83.5q-14 88 43 200.5t147 180.5l78 -49q-96 -92 -119 -221q35 -10 58.5 -40t23.5 -74zM707 1158q0 -44 -33 -77.5t-79 -33.5t-79 30.5t-41 83.5q-14 88 43.5 200.5t147.5 180.5l77 -49q-96 -92 -118 -221 q35 -10 58.5 -40t23.5 -74z" glyph-name="quotedblleft" horiz-adv-x="827" unicode="“"/><glyph d="M121 1433q0 44 34 77.5t79 33.5t77.5 -30.5t40.5 -83.5q14 -88 -42 -201t-146 -180l-78 49q94 92 119 221q-35 10 -59.5 40t-24.5 74zM487 1433q0 44 34 77.5t80 33.5t78 -30.5t40 -83.5q14 -88 -42 -201t-147 -180l-77 49q94 92 118 221q-35 10 -59.5 40t-24.5 74z" glyph-name="quotedblright" horiz-adv-x="827" unicode="”"/><glyph d="M234 221q45 0 77.5 -30.5t40.5 -81.5q14 -88 -42 -202t-146 -181l-78 49q94 94 119 223q-35 8 -59.5 39t-24.5 75t34 76.5t79 32.5zM601 221q46 0 78 -30.5t40 -81.5q14 -88 -42 -202t-147 -181l-77 49q94 94 118 223q-35 8 -59.5 39t-24.5 75t34 76.5t80 32.5z" glyph-name="quotedblbase" horiz-adv-x="827" unicode="„"/><glyph d="M1114 770h-409v-1208h-175v1208h-411v166h411v526h175v-526h409v-166z" glyph-name="dagger" horiz-adv-x="1226" unicode="†"/><glyph d="M705 770v-516h409v-166h-409v-526h-175v526h-411v166h411v516h-411v166h411v526h175v-526h409v-166h-409z" glyph-name="daggerdbl" horiz-adv-x="1226" unicode="‡"/><glyph d="M354 825q102 0 174 -72.5t72 -174t-72.5 -173t-174 -71.5t-173 71.5t-71.5 174.5q0 102 71.5 173.5t173.5 71.5z" glyph-name="bullet" horiz-adv-x="708" unicode="•"/><glyph d="M211 221q47 0 80 -33.5t33 -81t-33 -80t-80 -32.5t-81 32.5t-34 80.5t34 81t81 33zM682 221q47 0 81 -33.5t34 -81t-34 -80t-81 -32.5t-80 32.5t-33 80.5t33 81t80 33zM1155 221q47 0 81 -33.5t34 -81t-34 -80t-81 -32.5t-80 32.5t-33 80.5t33 81t80 33z" glyph-name="ellipsis" horiz-adv-x="1366" unicode="…"/><glyph d="M848 1057q0 -172 -105.5 -289t-275.5 -117t-276.5 117t-106.5 289t106.5 289.5t276.5 116.5t275.5 -117.5t105.5 -288.5zM651 -29h-198l821 1491h199zM465 1315q-92 0 -151.5 -70.5t-59.5 -186.5t59.5 -187.5t152.5 -71.5t152.5 70.5t59.5 187.5t-60.5 187.5t-152.5 70.5 zM1862 377q0 -172 -105.5 -289t-275.5 -117t-276.5 117t-106.5 289t106.5 289.5t276.5 116.5t275.5 -117.5t105.5 -288.5zM2748 377q0 -172 -106.5 -289t-276.5 -117t-276.5 117t-106.5 289t106.5 289.5t276.5 116.5t276.5 -117.5t106.5 -288.5zM1480 635 q-93 0 -152.5 -70.5t-59.5 -186.5t60.5 -187.5t152.5 -71.5t151.5 70.5t59.5 187.5t-59.5 187.5t-152.5 70.5zM2365 635q-92 0 -151.5 -70.5t-59.5 -186.5t59.5 -187.5t151.5 -71.5t151.5 70.5t59.5 187.5t-59.5 187.5t-151.5 70.5z" glyph-name="perthousand" horiz-adv-x="2830" unicode="‰"/><glyph d="M690 963l-432 -381l432 -379l-104 -115l-523 438v113l523 438z" glyph-name="guilsinglleft" horiz-adv-x="757" unicode="‹"/><glyph d="M694 639v-113l-522 -438l-106 115l432 379l-432 381l106 114z" glyph-name="guilsinglright" horiz-adv-x="757" unicode="›"/><glyph d="M1112 1462l-919 -1491h-160l919 1491h160z" glyph-name="fraction" horiz-adv-x="1175" unicode="⁄"/><glyph d="M1010 -29q-248 0 -425 140.5t-243 367.5h-209v144h180q-4 47 -4 87t2 72h-178v144h201q59 242 239.5 390t436.5 146q135 0 279.5 -51t271.5 -149l-56 -148q-240 164 -497 164q-168 0 -292 -95.5t-175 -256.5h587v-144h-614q-4 -32 -4 -72t6 -87h612v-144h-575 q55 -150 175 -237.5t282 -87.5q251 -1 495 165l56 -147q-127 -96 -271.5 -148.5t-279.5 -52.5z" glyph-name="Euro" horiz-adv-x="1703" unicode="€"/><glyph d="M686 1296h-235v-634h-152v634h-236v138h623v-138zM1569 662h-152v485l-188 -254h-127l-189 254v-485h-151v772h127l276 -383l277 383h127v-772z" glyph-name="trademark" horiz-adv-x="1673" unicode="™"/><glyph d="M1507 1462l-917 -1491h-162l920 1491h159zM305 690v590l-186 -82l-49 102l295 134h77v-744h187v-112h-533v112h209zM1589 -18q-166 0 -270.5 70.5t-104.5 187.5q0 164 199 211q-162 49 -162 190q0 104 94.5 168.5t244.5 64.5t244.5 -64.5t92.5 -168.5q0 -141 -162 -190 q203 -47 201 -211q0 -117 -105.5 -187.5t-271.5 -70.5zM1589 762q-90 0 -144 -37t-54 -97t51 -94t148 -34t148.5 34t51.5 94t-55.5 97t-145.5 37zM1589 401q-235 0 -235 -146q0 -71 64.5 -116t171 -45t171 45t65.5 116t-60.5 108.5t-176.5 37.5z" glyph-name="oneeighth" horiz-adv-x="2066" unicode="⅛"/><glyph d="M1573 1462l-918 -1491h-161l919 1491h160zM770 819q0 -117 -104.5 -188.5t-275.5 -71.5t-310 53l55 109q119 -47 245 -47t188.5 42t62.5 107t-55.5 103.5t-149.5 38.5h-154v114h140q84 0 133 34t49 91t-56 95t-164 38t-206 -39l-49 107q123 47 275 47t245.5 -64.5 t93.5 -168.5q0 -66 -41 -114t-114 -73q90 -25 141 -81t51 -132zM1655 -18q-166 0 -270.5 70.5t-104.5 187.5q0 164 199 211q-162 49 -162 190q0 104 94 168.5t245 64.5t245 -64.5t92 -168.5q0 -141 -162 -190q203 -47 201 -211q0 -117 -105.5 -187.5t-271.5 -70.5zM1656 762 q-89 0 -144.5 -37t-55.5 -97t51.5 -94t148.5 -34t148 34t51 94t-55 97t-144 37zM1655.5 94q105.5 0 171 45t65.5 116t-61.5 108.5t-175.5 37.5q-115 0 -175.5 -37.5t-60.5 -108.5t65.5 -116t171 -45z" glyph-name="threeeighths" horiz-adv-x="2134" unicode="⅜"/><glyph d="M1561 1462l-918 -1491h-162l920 1491h160zM766 841q0 -124 -105.5 -203t-271.5 -79t-297 51l55 107q111 -43 231 -43t183.5 47t63.5 123t-58.5 116.5t-164.5 40.5t-205 -43l-66 62v414h567v-113h-432v-238q76 23 162 23q150 0 244 -70.5t94 -194.5zM1642.5 -18 q-165.5 0 -270 70.5t-104.5 187.5q0 164 198 211q-162 49 -161 190q0 104 94.5 168.5t244.5 64.5t244 -64.5t92 -168.5q1 -141 -161 -190q203 -47 200 -211q0 -117 -105.5 -187.5t-271 -70.5zM1642 762q-90 0 -144 -37t-54 -97t51 -94t148 -34t148.5 34t51.5 94t-55.5 97 t-145.5 37zM1642 401q-235 0 -235 -146q0 -71 64.5 -116t171 -45t171 45t65.5 116t-60.5 108.5t-176.5 37.5z" glyph-name="fiveeighths" horiz-adv-x="2119" unicode="⅝"/><glyph d="M1294 1462l-919 -1491h-162l920 1491h161zM63 1321v113h633v-88l-403 -768h-150l410 743h-490zM1374 -18q-166 0 -270.5 70.5t-104.5 187.5q0 164 199 211q-162 49 -162 190q0 104 95 168.5t245 64.5t244 -64.5t94 -168.5q0 -141 -164 -190q203 -47 201 -211 q0 -117 -105.5 -187.5t-271.5 -70.5zM1376 762q-90 0 -145 -37t-55 -97t51 -94t148 -34t148.5 34t51.5 94t-54.5 97t-144.5 37zM1374 401q-235 0 -235 -146q0 -71 65.5 -116t171 -45t171 45t65.5 116t-61.5 108.5t-176.5 37.5z" glyph-name="seveneighths" horiz-adv-x="1853" unicode="⅞"/><glyph glyph-name="partialdiff" horiz-adv-x="1228" unicode="∂"/><glyph glyph-name="emptyset" horiz-adv-x="1228" unicode="∅"/><glyph glyph-name="product" horiz-adv-x="1228" unicode="∏"/><glyph glyph-name="summation" horiz-adv-x="1228" unicode="∑"/><glyph d="M1036 514h-950v164h950v-164z" glyph-name="minus" horiz-adv-x="1122" unicode="−"/><glyph glyph-name="radical" horiz-adv-x="1228" unicode="√"/><glyph glyph-name="infinity" horiz-adv-x="1228" unicode="∞"/><glyph glyph-name="integral" horiz-adv-x="1228" unicode="∫"/><glyph d="M394 961q48 0 106.5 -21t144.5 -87q86 -65 141 -65q88 0 193 154l111 -84q-75 -106 -141.5 -175t-159.5 -69t-151 37t-101 68q-92 68 -148 67q-88 0 -192 -153l-111 84l12 18q122 175 185 200.5t111 25.5zM394 555q48 0 106 -22t145 -86q86 -64 141 -64q88 0 193 154 l111 -84q-73 -104 -139 -174t-171 -70q-47 0 -96 18.5t-76.5 37t-70.5 48.5q-92 68 -148 68q-88 0 -192 -156l-111 84q4 6 26 40t45 62.5t63 67.5t83 57.5t91 18.5z" glyph-name="approxequal" horiz-adv-x="1175" unicode="≈"/><glyph d="M1040 500v-164h-518l-182 -365h-180l182 365h-256v164h340l94 188h-434v164h516l182 365h181l-183 -365h258v-164h-340l-96 -188h436z" glyph-name="notequal" horiz-adv-x="1124" unicode="≠"/><glyph d="M1135 1024l-826 -260l826 -262v-207l-1049 340v256l1049 340v-207zM1135 4h-1049v164h1049v-164z" glyph-name="lessequal" horiz-adv-x="1198" unicode="≤"/><glyph d="M1114 891v-256l-1048 -340v207l825 262l-825 260v207zM1114 4h-1048v164h1048v-164z" glyph-name="greaterequal" horiz-adv-x="1198" unicode="≥"/><glyph glyph-name="lozenge" horiz-adv-x="1228" unicode="◊"/><glyph d="M588 1053q202 0 328 -90t126 -289v-674h-176v133q-82 -80 -185 -121t-206 -41q-158 0 -268.5 95.5t-110.5 263.5q0 248 262 302q198 41 508 -40v82q0 213 -260 213q-217 0 -364 -117l-88 135q86 70 206 109t228 39zM279 332q0 -195 219 -195t368 158v149q-184 47 -323 50 q-264 4 -264 -162z" glyph-name="a.salt" horiz-adv-x="1200"/><glyph d="M696 1155h-190l262 352h215zM588 1053q202 0 328 -90t126 -289v-674h-176v133q-82 -80 -185 -121t-206 -41q-158 0 -268.5 95.5t-110.5 263.5q0 248 262 302q198 41 508 -40v82q0 213 -260 213q-217 0 -364 -117l-88 135q86 70 206 109t228 39zM279 332q0 -195 219 -195 t368 158v149q-184 47 -323 50q-264 4 -264 -162z" glyph-name="aacute.aalt" horiz-adv-x="1200"/><glyph d="M608 1169q-168 0 -273.5 96.5t-105.5 237.5h172q0 -80 58.5 -129t148.5 -49t148.5 49t58.5 129h172q0 -141 -105.5 -237.5t-273.5 -96.5zM588 1053q202 0 328 -90t126 -289v-674h-176v133q-82 -80 -185 -121t-206 -41q-158 0 -268.5 95.5t-110.5 263.5q0 248 262 302 q198 41 508 -40v82q0 213 -260 213q-217 0 -364 -117l-88 135q86 70 206 109t228 39zM279 332q0 -195 219 -195t368 158v149q-184 47 -323 50q-264 4 -264 -162z" glyph-name="abreve.aalt" horiz-adv-x="1200"/><glyph d="M608 1169q-168 0 -273.5 96.5t-105.5 237.5h172q0 -80 58.5 -129t148.5 -49t148.5 49t58.5 129h172q0 -141 -105.5 -237.5t-273.5 -96.5zM588 1053q202 0 328 -90t126 -289v-674h-176v133q-82 -80 -185 -121t-206 -41q-158 0 -268.5 95.5t-110.5 263.5q0 248 262 302 q198 41 508 -40v82q0 213 -260 213q-217 0 -364 -117l-88 135q86 70 206 109t228 39zM279 332q0 -195 219 -195t368 158v149q-184 47 -323 50q-264 4 -264 -162zM615 -150q44 0 76 -31.5t32 -75.5t-32 -76t-76 -32t-75.5 32t-31.5 76t31.5 75.5t75.5 31.5z" glyph-name="uni1EB7.aalt" horiz-adv-x="1200"/><glyph d="M512 1155l-311 354h215l192 -235l193 235h215l-311 -354h-193zM588 1053q202 0 328 -90t126 -289v-674h-176v133q-82 -80 -185 -121t-206 -41q-158 0 -268.5 95.5t-110.5 263.5q0 248 262 302q198 41 508 -40v82q0 213 -260 213q-217 0 -364 -117l-88 135q86 70 206 109 t228 39zM279 332q0 -195 219 -195t368 158v149q-184 47 -323 50q-264 4 -264 -162z" glyph-name="uni01CE.aalt" horiz-adv-x="1200"/><glyph d="M416 1155h-215l311 354h190l314 -354h-215l-193 238zM588 1053q202 0 328 -90t126 -289v-674h-176v133q-82 -80 -185 -121t-206 -41q-158 0 -268.5 95.5t-110.5 263.5q0 248 262 302q198 41 508 -40v82q0 213 -260 213q-217 0 -364 -117l-88 135q86 70 206 109t228 39z M279 332q0 -195 219 -195t368 158v149q-184 47 -323 50q-264 4 -264 -162z" glyph-name="acircumflex.aalt" horiz-adv-x="1200"/><glyph d="M416 1155h-215l311 354h190l314 -354h-215l-193 238zM588 1053q202 0 328 -90t126 -289v-674h-176v133q-82 -80 -185 -121t-206 -41q-158 0 -268.5 95.5t-110.5 263.5q0 248 262 302q198 41 508 -40v82q0 213 -260 213q-217 0 -364 -117l-88 135q86 70 206 109t228 39z M279 332q0 -195 219 -195t368 158v149q-184 47 -323 50q-264 4 -264 -162zM615 -150q44 0 76 -31.5t32 -75.5t-32 -76t-76 -32t-75.5 32t-31.5 76t31.5 75.5t75.5 31.5z" glyph-name="uni1EAD.aalt" horiz-adv-x="1200"/><glyph d="M390 1196q-44 0 -75.5 32t-31.5 77t31.5 76.5t75.5 31.5t76 -31.5t32 -76.5t-32 -77t-76 -32zM825 1196q-45 0 -76.5 32t-31.5 77t31.5 76.5t76.5 31.5t77 -31.5t32 -76.5t-32 -77t-77 -32zM588 1053q202 0 328 -90t126 -289v-674h-176v133q-82 -80 -185 -121t-206 -41 q-158 0 -268.5 95.5t-110.5 263.5q0 248 262 302q198 41 508 -40v82q0 213 -260 213q-217 0 -364 -117l-88 135q86 70 206 109t228 39zM279 332q0 -195 219 -195t368 158v149q-184 47 -323 50q-264 4 -264 -162z" glyph-name="adieresis.aalt" horiz-adv-x="1200"/><glyph d="M588 1053q202 0 328 -90t126 -289v-674h-176v133q-82 -80 -185 -121t-206 -41q-158 0 -268.5 95.5t-110.5 263.5q0 248 262 302q198 41 508 -40v82q0 213 -260 213q-217 0 -364 -117l-88 135q86 70 206 109t228 39zM279 332q0 -195 219 -195t368 158v149q-184 47 -323 50 q-264 4 -264 -162zM615 -150q44 0 76 -31.5t32 -75.5t-32 -76t-76 -32t-75.5 32t-31.5 76t31.5 75.5t75.5 31.5z" glyph-name="uni1EA1.aalt" horiz-adv-x="1200"/><glyph d="M512 1155l-285 354h215l263 -354h-193zM588 1053q202 0 328 -90t126 -289v-674h-176v133q-82 -80 -185 -121t-206 -41q-158 0 -268.5 95.5t-110.5 263.5q0 248 262 302q198 41 508 -40v82q0 213 -260 213q-217 0 -364 -117l-88 135q86 70 206 109t228 39zM279 332 q0 -195 219 -195t368 158v149q-184 47 -323 50q-264 4 -264 -162z" glyph-name="agrave.aalt" horiz-adv-x="1200"/><glyph d="M944 1206h-672v168h672v-168zM588 1053q202 0 328 -90t126 -289v-674h-176v133q-82 -80 -185 -121t-206 -41q-158 0 -268.5 95.5t-110.5 263.5q0 248 262 302q198 41 508 -40v82q0 213 -260 213q-217 0 -364 -117l-88 135q86 70 206 109t228 39zM279 332q0 -195 219 -195 t368 158v149q-184 47 -323 50q-264 4 -264 -162z" glyph-name="amacron.aalt" horiz-adv-x="1200"/><glyph d="M713 -240q0 131 153 242v131q-82 -80 -185 -121t-206 -41q-158 0 -268.5 95.5t-110.5 263.5q0 248 262 302q198 41 508 -40v82q0 213 -260 213q-217 0 -364 -117l-88 135q86 70 206 109t228 39q202 0 328 -90t126 -289v-674h-41q-117 -88 -118 -186q2 -106 131 -107 q61 0 112 27l43 -117q-82 -55 -204 -57q-102 2 -177 55t-75 145zM279 332q0 -195 219 -195t368 158v149q-184 47 -323 50q-264 4 -264 -162z" glyph-name="aogonek.aalt" horiz-adv-x="1200"/><glyph d="M608 1108q-121 0 -196.5 74.5t-75.5 186.5t75.5 186.5t196.5 74.5t196 -75.5t75 -186.5t-75 -185.5t-196 -74.5zM481 1369.5q0 -62.5 36 -100.5t91 -38t91 38t36 100.5t-36 99t-91 37.5t-91 -36.5t-36 -100zM588 1053q202 0 328 -90t126 -289v-674h-176v133 q-82 -80 -185 -121t-206 -41q-158 0 -268.5 95.5t-110.5 263.5q0 248 262 302q198 41 508 -40v82q0 213 -260 213q-217 0 -364 -117l-88 135q86 70 206 109t228 39zM279 332q0 -195 219 -195t368 158v149q-184 47 -323 50q-264 4 -264 -162z" glyph-name="aring.aalt" horiz-adv-x="1200"/><glyph d="M457 1311q-59 0 -144 -127l-112 86q0 9 21.5 36t40 50.5t26.5 31.5q9 8 27 26q62 62 145.5 61.5t197.5 -84.5q68 -47 101 -48q59 0 141 127l115 -86q-72 -100 -110 -138q-64 -64 -150 -64q-41 0 -81 14t-58.5 26.5t-71.5 50.5t-88 38zM588 1053q202 0 328 -90t126 -289 v-674h-176v133q-82 -80 -185 -121t-206 -41q-158 0 -268.5 95.5t-110.5 263.5q0 248 262 302q198 41 508 -40v82q0 213 -260 213q-217 0 -364 -117l-88 135q86 70 206 109t228 39zM279 332q0 -195 219 -195t368 158v149q-184 47 -323 50q-264 4 -264 -162z" glyph-name="atilde.aalt" horiz-adv-x="1200"/><glyph d="M1839 514q0 -23 -2 -45h-784q0 -10 2 -18q16 -141 100 -227.5t230.5 -86.5t318.5 94l45 -120q-182 -139 -377.5 -139.5t-329.5 118.5v-90h-176v133q-82 -80 -185 -121t-206 -41q-158 0 -268.5 95.5t-110.5 263.5q0 248 262 302q198 41 508 -40v82q0 213 -260 213 q-217 0 -364 -117l-88 135q86 70 205.5 109t246.5 39q276 0 383 -172q141 174 372.5 173t354.5 -152.5t123 -387.5zM1370 887q-125 0 -205.5 -74t-103.5 -199h596q-20 129 -91 201t-196 72zM279 332q0 -195 219 -195t368 158v149q-184 47 -323 50q-264 4 -264 -162z" glyph-name="ae.aalt" horiz-adv-x="1945"/><glyph d="M592 305q-45 0 -88 8l-53 -26q-45 -23 -45 -64t34.5 -58.5t69.5 -17.5h117q231 0 363 -80.5t132 -248.5t-132 -249t-366 -81t-367.5 79t-133.5 238q0 82 53 150t148 108q-98 53 -103 154q0 98 98 160q-170 104 -172 301q2 166 129 269.5t316 103.5q88 0 168 -25l407 39 v-182l-200 -2q68 -88 67 -203q0 -166 -128 -269.5t-314 -103.5zM593 885q-118 0 -190.5 -56.5t-71.5 -150.5t70.5 -150.5t188.5 -56.5t190.5 56.5t71.5 150.5t-70.5 150.5t-188.5 56.5zM627 -18h-80q-113 -23 -175.5 -71t-62.5 -116q0 -141 316 -141q168 0 241.5 39 t73.5 125t-72.5 125t-240.5 39z" glyph-name="g.aalt" horiz-adv-x="1269"/><glyph d="M842 1503h172q0 -141 -105.5 -237.5t-273.5 -96.5t-273.5 96.5t-105.5 237.5h172q0 -80 58.5 -129t148.5 -49t148.5 49t58.5 129zM592 1051q88 0 168 -25l407 39v-182l-200 -2q68 -88 67 -203q0 -166 -128 -269.5t-314 -103.5q-45 0 -88 8l-53 -26q-45 -23 -45 -64 t34.5 -58.5t69.5 -17.5h117q231 0 363 -80.5t132 -248.5t-132 -249t-366 -81t-367.5 79t-133.5 238q0 82 53 150t148 108q-98 53 -103 154q0 98 98 160q-166 102 -172 301q2 166 129 269.5t316 103.5zM593 885q-118 0 -190.5 -56.5t-71.5 -150.5t70.5 -150.5t188.5 -56.5 t190.5 56.5t71.5 150.5t-70.5 150.5t-188.5 56.5zM627 -18h-80q-113 -23 -175.5 -71t-62.5 -116q0 -141 316 -141q168 0 241.5 39t73.5 125t-72.5 125t-240.5 39z" glyph-name="gbreve.aalt" horiz-adv-x="1269"/><glyph d="M727 1224q0 -36 -27.5 -63.5t-64.5 -27.5t-63.5 24.5t-32.5 67.5q-12 72 33.5 164t117.5 147l64 -41q-76 -76 -95 -180q29 -6 48.5 -30.5t19.5 -60.5zM592 305q-45 0 -88 8l-53 -26q-45 -23 -45 -64t34.5 -58.5t69.5 -17.5h117q231 0 363 -80.5t132 -248.5t-132 -249 t-366 -81t-367.5 79t-133.5 238q0 82 53 150t148 108q-98 53 -103 154q0 98 98 160q-170 104 -172 301q2 166 129 269.5t316 103.5q88 0 168 -25l407 39v-182l-200 -2q68 -88 67 -203q0 -166 -128 -269.5t-314 -103.5zM593 885q-118 0 -190.5 -56.5t-71.5 -150.5 t70.5 -150.5t188.5 -56.5t190.5 56.5t71.5 150.5t-70.5 150.5t-188.5 56.5zM627 -18h-80q-113 -23 -175.5 -71t-62.5 -116q0 -141 316 -141q168 0 241.5 39t73.5 125t-72.5 125t-240.5 39z" glyph-name="gcommaaccent.aalt" horiz-adv-x="1269"/><glyph d="M635 1413q45 0 76.5 -31.5t31.5 -76.5t-31.5 -77t-76.5 -32t-77 32t-32 77t32 76.5t77 31.5zM592 305q-45 0 -88 8l-53 -26q-45 -23 -45 -64t34.5 -58.5t69.5 -17.5h117q231 0 363 -80.5t132 -248.5t-132 -249t-366 -81t-367.5 79t-133.5 238q0 82 53 150t148 108 q-98 53 -103 154q0 98 98 160q-170 104 -172 301q2 166 129 269.5t316 103.5q88 0 168 -25l407 39v-182l-200 -2q68 -88 67 -203q0 -166 -128 -269.5t-314 -103.5zM593 885q-118 0 -190.5 -56.5t-71.5 -150.5t70.5 -150.5t188.5 -56.5t190.5 56.5t71.5 150.5t-70.5 150.5 t-188.5 56.5zM627 -18h-80q-113 -23 -175.5 -71t-62.5 -116q0 -141 316 -141q168 0 241.5 39t73.5 125t-72.5 125t-240.5 39z" glyph-name="gdotaccent.aalt" horiz-adv-x="1269"/><glyph d="M262 1413q45 0 77 -31.5t32 -76.5t-32 -77t-77 -32t-76.5 32t-31.5 77t31.5 76.5t76.5 31.5zM354 0h-176v1024h176v-1024z" glyph-name="i.aalt" horiz-adv-x="522"/><glyph d="M1081 1024l-510 -1229q-51 -125 -117 -177t-144 -55t-171 23l17 144q74 -25 120 -24t81.5 35t68.5 112l61 149l-444 1022h193l337 -807l326 807h182z" glyph-name="y.aalt" horiz-adv-x="1126"/><glyph d="M371 1155h-215l313 354h190l312 -354h-215l-193 238zM1081 1024l-510 -1229q-51 -125 -117 -177t-144 -55t-171 23l17 144q74 -25 120 -24t81.5 35t68.5 112l61 149l-444 1022h193l337 -805l326 805h182z" glyph-name="ycircumflex.aalt" horiz-adv-x="1126"/><glyph d="M769 1462q183 0 326.5 -100t218.5 -269t75 -376t-75 -376t-218.5 -269.5t-326.5 -100.5t-326.5 100.5t-220.5 269.5t-77 376t77 377t220.5 269t326.5 99zM348 718q0 -247 119 -404.5t302 -157.5t301 157.5t118 403.5t-118 402.5t-302 157.5t-302 -155.5t-118 -403.5z" glyph-name="zero.case" horiz-adv-x="1536"/><glyph d="M649 164h305v-164h-837v164h338v1040l-285 -141l-84 147l453 224h110v-1270z" glyph-name="one.case" horiz-adv-x="1040"/><glyph d="M1094 0h-988v193q6 169 113 282t334 226q265 132 302.5 194t37.5 139q0 135 -81 189.5t-257 54.5t-336 -53l-74 157q184 80 416 80q402 0 467.5 -166t65.5 -236t-7.5 -109.5t-15.5 -70t-31.5 -62.5t-39 -53.5t-74 -65.5t-125.5 -80.5t-160 -85.5q-94 -50 -143 -78.5 t-119 -88t-70 -178.5v-24h785v-164z" glyph-name="two.case"/><glyph d="M1143 416q0 -201 -157.5 -323t-413.5 -122t-466 90l74 158q184 -63 375 -63t287 71.5t96 188.5t-95 186.5t-259 69.5h-185v174h185q141 0 220 58.5t79 155.5t-79.5 157.5t-243.5 60.5t-322 -53l-74 157q184 80 412 80t368.5 -110.5t140.5 -290.5q0 -98 -47 -175 t-133 -124q111 -49 174.5 -138t63.5 -208z" glyph-name="three.case" horiz-adv-x="1290"/><glyph d="M1004 520h202v-164h-202v-356h-195v356h-743v125l782 953h156v-914zM809 520v602l-479 -602h479z" glyph-name="four.case" horiz-adv-x="1302"/><glyph d="M1038 1270h-645v-418q111 33 260 33q225 0 365.5 -118.5t140.5 -324.5t-156.5 -338.5t-411.5 -132.5t-464 97l74 155q183 -67 373 -67t286 78.5t96 207.5t-79.5 206t-243.5 77t-322 -70l-112 115v664h839v-164z" glyph-name="five.case" horiz-adv-x="1296"/><glyph d="M766 1462q199 0 356 -104l-59 -127q-133 67 -301 67t-285 -145t-133 -375q184 111 402 111t349.5 -118.5t131.5 -326.5t-148.5 -340.5t-373.5 -132.5q-143 0 -254 58.5t-207.5 210.5t-96.5 446q0 348 170 562t449 214zM752 725q-223 0 -406 -111q14 -229 105 -354 t247 -125t245 85.5t89 227.5q0 278 -280 277z" glyph-name="six.case" horiz-adv-x="1353"/><glyph d="M1030 1434v-129l-692 -1305h-229l694 1270h-746v164h973z" glyph-name="seven.case" horiz-adv-x="1083"/><glyph d="M709.5 -31q-248.5 0 -405.5 123t-157 324q0 250 244 344q-188 90 -188 299q0 182 141 292.5t367 110.5q225 0 366.5 -110.5t139.5 -292.5q-1 -207 -189 -297q246 -94 244 -346q0 -201 -157 -324t-405.5 -123zM711 1278q-141 0 -222 -60.5t-81 -157.5t79.5 -155.5 t223.5 -58.5q143 0 223 58.5t80 155.5t-81 157.5t-222 60.5zM711 156q166 0 262 71.5t96 188.5t-95 186.5t-263 69.5t-264.5 -71t-96.5 -187t97.5 -187t263.5 -71z" glyph-name="eight.case" horiz-adv-x="1419"/><glyph d="M649 1462q143 0 254 -58t209 -212.5t94 -443.5q2 -348 -168 -562.5t-448 -214.5q-201 0 -357 103l60 127q131 -66 300 -66t285.5 144.5t131.5 375.5q-184 -113 -402 -113t-349.5 118t-131.5 327t148.5 342t373.5 133zM656 1298q-156 0 -245 -85t-89 -227q0 -279 282 -279 q219 0 406 112q-16 229 -107 354t-247 125z" glyph-name="nine.case" horiz-adv-x="1353"/><glyph d="M692 1044q250 0 406.5 -153.5t156.5 -379.5t-155.5 -378.5t-406.5 -152.5t-407.5 153.5t-156.5 379.5t156.5 378.5t406.5 152.5zM322 513q0 -165 104 -267.5t267 -102.5t266.5 102.5t103.5 266.5t-103.5 265.5t-267.5 102.5t-267 -100.5t-103 -266.5z" glyph-name="zero.oldstyle" horiz-adv-x="1384"/><glyph d="M592 154h268v-154h-751v154h299v659l-252 -90l-78 139l409 162h105v-870z" glyph-name="one.oldstyle" horiz-adv-x="942"/><glyph d="M512 1044q483 0 483 -307q0 -140 -75.5 -203t-158.5 -98.5t-214 -81.5q-132 -46 -194 -86.5t-64 -105.5v-8h706v-154h-897v174q0 105 70 171.5t159 103.5t229 89t194.5 88t54.5 110t-72.5 109.5t-232.5 35.5t-301 -37l-68 141q172 59 381 59z" glyph-name="two.oldstyle" horiz-adv-x="1126"/><glyph d="M1143 37q0 -197 -157.5 -315.5t-413.5 -118.5t-466 88l74 157q184 -61 375 -61t287 68.5t96 180.5t-95 179.5t-259 67.5h-185v174h185q141 0 220 54.5t79 148.5t-79.5 151t-243.5 57t-322 -51l-74 158q184 78 412 78t368.5 -107.5t140.5 -283.5q0 -96 -47 -170t-131 -119 q111 -49 173.5 -136t62.5 -200z" glyph-name="three.oldstyle" horiz-adv-x="1290"/><glyph d="M1004 139h202v-164h-202v-344h-195v344h-743v125l782 924h156v-885zM809 139v574l-479 -574h479z" glyph-name="four.oldstyle" horiz-adv-x="1302"/><glyph d="M1038 860h-645v-399q109 33 260 33q225 0 365.5 -116t140.5 -316t-156.5 -329.5t-411.5 -129.5t-464 94l74 158q183 -68 373 -68t286 76.5t96 198.5t-79.5 197t-243.5 75t-322 -68l-112 113v645h839v-164z" glyph-name="five.oldstyle" horiz-adv-x="1296"/><glyph d="M766 1421q199 0 356 -100l-59 -127q-133 63 -301 63t-285 -139t-133 -360q184 106 402 106t349.5 -114.5t131.5 -317.5t-148.5 -332t-373.5 -129q-143 0 -253 57.5t-207.5 206.5t-97.5 433q0 338 170 545.5t449 207.5zM752 700q-223 0 -406 -106q14 -219 105 -339 t247 -120t245 81t89 217q0 267 -280 267z" glyph-name="six.oldstyle" horiz-adv-x="1353"/><glyph d="M1030 1024v-129l-692 -1264h-229l692 1229h-744v164h973z" glyph-name="seven.oldstyle" horiz-adv-x="1083"/><glyph d="M709.5 -29q-248.5 0 -405.5 119t-157 316q0 242 240 333q-184 88 -184 291q0 174 141 282.5t367 108.5q225 0 366.5 -108.5t139.5 -282.5q-1 -203 -185 -291q242 -92 240 -333q0 -197 -157 -316t-405.5 -119zM711 1237q-141 0 -222 -57.5t-81 -150.5t79.5 -149.5 t223.5 -56.5q143 0 223 56.5t80 149.5t-81 150.5t-222 57.5zM711 156q166 0 262 68.5t96 180.5t-95 179t-263 67t-264.5 -68.5t-96.5 -178.5t97.5 -179t263.5 -69z" glyph-name="eight.oldstyle" horiz-adv-x="1419"/><glyph d="M649 1053q143 0 254 -56.5t209 -207.5t94 -433q2 -336 -168 -544.5t-448 -208.5q-199 0 -357 100l60 127q131 -63 300 -63t285.5 139t131.5 360q-182 -106 -402 -106t-350.5 114.5t-130.5 317.5t148.5 332t373.5 129zM656 889q-156 0 -245 -81t-89 -217q0 -267 280 -267 q223 0 408 106q-16 219 -107 339t-247 120z" glyph-name="nine.oldstyle" horiz-adv-x="1353"/><glyph d="M1389 696.5q0 -200.5 -75 -365.5t-218.5 -262.5t-326.5 -97.5t-326.5 97.5t-220.5 262.5t-77 365q0 201 77 367t220.5 263t326.5 96t326.5 -98t218.5 -262t75 -365.5zM768 1237q-184 0 -302 -150.5t-118 -389.5t119 -390t302 -151t301 151.5t118 389t-118 389t-302 151.5 z" glyph-name="zero.tnum" horiz-adv-x="1536"/><glyph d="M649 164h305v-164h-837v164h338v1001l-285 -137l-84 150l453 215h110v-1229z" glyph-name="one.tnum" horiz-adv-x="1040"/><glyph d="M309 164h785v-164h-988v186q6 216 146 317t330 195q190 95 249.5 148t59.5 170t-80 169t-256 52t-336 -51l-74 157q184 78 416 78q401 0 467 -161.5t66 -229.5t-7.5 -107.5t-15.5 -70.5t-30.5 -60.5t-39 -51t-84 -70.5t-218.5 -125q-152 -76 -201 -104.5t-119 -85 t-70 -171.5v-20z" glyph-name="two.tnum"/><glyph d="M1143 406q0 -197 -157.5 -316t-413.5 -119t-466 88l74 158q184 -61 375 -61t287 68.5t96 180.5t-95 179t-259 67h-185v174h185q141 0 220 55.5t79 148.5t-79.5 150.5t-243.5 57.5t-322 -51l-74 157q184 78 412 78t369.5 -108.5t139.5 -284.5q0 -94 -47 -168t-131 -119 q111 -49 173.5 -136t62.5 -199z" glyph-name="three.tnum" horiz-adv-x="1290"/><glyph d="M1004 508h202v-164h-202v-344h-195v344h-743v125l782 924h156v-885zM809 508v573l-479 -573h479z" glyph-name="four.tnum" horiz-adv-x="1302"/><glyph d="M1038 1229h-645v-400q109 33 260 33q225 0 366.5 -115.5t140.5 -316.5t-157.5 -330t-411.5 -129t-464 95l74 157q183 -67 373 -67t286 75.5t96 198.5t-79.5 197.5t-243.5 74.5t-322 -67l-112 113v645h839v-164z" glyph-name="five.tnum" horiz-adv-x="1296"/><glyph d="M766 1421q199 0 356 -100l-59 -127q-133 63 -301 63t-285 -139t-133 -360q184 106 402 106t349.5 -114.5t131.5 -317.5t-148.5 -332t-373.5 -129q-143 0 -254 56.5t-207.5 205.5t-96.5 435q0 336 170 544.5t449 208.5zM752 700q-223 0 -406 -106q14 -219 105 -339 t247 -120t245 81t89 217q0 267 -280 267z" glyph-name="six.tnum" horiz-adv-x="1353"/><glyph d="M1030 1393v-129l-692 -1264h-229l692 1229h-744v164h973z" glyph-name="seven.tnum" horiz-adv-x="1083"/><glyph d="M709.5 -29q-248.5 0 -405.5 119t-157 316q0 242 240 333q-184 88 -184 291q0 174 141 282.5t367 108.5q225 0 366.5 -108.5t139.5 -282.5q-1 -203 -185 -291q242 -92 240 -333q0 -197 -157 -316t-405.5 -119zM711 1237q-141 0 -222 -57.5t-81 -150.5t79.5 -149.5 t223.5 -56.5q143 0 223 56.5t80 149.5t-81 150.5t-222 57.5zM711 156q166 0 262 68.5t96 180.5t-95 179t-263 67t-264.5 -68.5t-96.5 -178.5t97.5 -179t263.5 -69z" glyph-name="eight.tnum" horiz-adv-x="1419"/><glyph d="M649 1421q145 0 255 -56t208 -207t94 -433q2 -336 -168 -545t-448 -209q-199 0 -357 101l60 127q131 -63 300 -63t285.5 139t131.5 360q-182 -107 -402 -107t-350.5 115t-130.5 317t148.5 331.5t373.5 129.5zM656 1257q-156 0 -245 -80.5t-89 -216.5q0 -268 280 -268 q223 0 408 107q-16 219 -107 338.5t-247 119.5z" glyph-name="nine.tnum" horiz-adv-x="1353"/><glyph d="M692 1044q250 0 406.5 -153.5t156.5 -379.5t-155.5 -378.5t-406.5 -152.5t-407.5 153.5t-156.5 379.5t156.5 378.5t406.5 152.5zM322 513q0 -165 104 -267.5t267 -102.5t266.5 102.5t103.5 266.5t-103.5 265.5t-267.5 102.5t-267 -100.5t-103 -266.5z" glyph-name="zero.tnum.oldstyle" horiz-adv-x="1384"/><glyph d="M592 154h268v-154h-751v154h299v659l-252 -90l-78 139l409 162h105v-870z" glyph-name="one.tnum.oldstyle" horiz-adv-x="942"/><glyph d="M512 1044q483 0 483 -307q0 -140 -75.5 -203t-158.5 -98.5t-214 -81.5q-132 -46 -194 -86.5t-64 -105.5v-8h706v-154h-897v174q0 105 70 171.5t159 103.5t229 89t194.5 88t54.5 110t-72.5 109.5t-232.5 35.5t-301 -37l-68 141q172 59 381 59z" glyph-name="two.tnum.oldstyle" horiz-adv-x="1126"/><glyph d="M1143 37q0 -197 -157.5 -315.5t-413.5 -118.5t-466 88l74 157q184 -61 375 -61t287 68.5t96 180.5t-95 179.5t-259 67.5h-185v174h185q141 0 220 54.5t79 148.5t-79.5 151t-243.5 57t-322 -51l-74 158q184 78 412 78t368.5 -107.5t140.5 -283.5q0 -96 -47 -170t-131 -119 q111 -49 173.5 -136t62.5 -200z" glyph-name="three.tnum.oldstyle" horiz-adv-x="1290"/><glyph d="M1004 139h202v-164h-202v-344h-195v344h-743v125l782 924h156v-885zM809 139v574l-479 -574h479z" glyph-name="four.tnum.oldstyle" horiz-adv-x="1302"/><glyph d="M1038 860h-645v-399q109 33 260 33q225 0 365.5 -116t140.5 -316t-156.5 -329.5t-411.5 -129.5t-464 94l74 158q183 -68 373 -68t286 76.5t96 198.5t-79.5 197t-243.5 75t-322 -68l-112 113v645h839v-164z" glyph-name="five.tnum.oldstyle" horiz-adv-x="1296"/><glyph d="M766 1421q199 0 356 -100l-59 -127q-133 63 -301 63t-285 -139t-133 -360q184 106 402 106t349.5 -114.5t131.5 -317.5t-148.5 -332t-373.5 -129q-143 0 -253 57.5t-207.5 206.5t-97.5 433q0 338 170 545.5t449 207.5zM752 700q-223 0 -406 -106q14 -219 105 -339 t247 -120t245 81t89 217q0 267 -280 267z" glyph-name="six.tnum.oldstyle" horiz-adv-x="1353"/><glyph d="M1030 1024v-129l-692 -1264h-229l692 1229h-744v164h973z" glyph-name="seven.tnum.oldstyle" horiz-adv-x="1083"/><glyph d="M709.5 -29q-248.5 0 -405.5 119t-157 316q0 242 240 333q-184 88 -184 291q0 174 141 282.5t367 108.5q225 0 366.5 -108.5t139.5 -282.5q-1 -203 -185 -291q242 -92 240 -333q0 -197 -157 -316t-405.5 -119zM711 1237q-141 0 -222 -57.5t-81 -150.5t79.5 -149.5 t223.5 -56.5q143 0 223 56.5t80 149.5t-81 150.5t-222 57.5zM711 156q166 0 262 68.5t96 180.5t-95 179t-263 67t-264.5 -68.5t-96.5 -178.5t97.5 -179t263.5 -69z" glyph-name="eight.tnum.oldstyle" horiz-adv-x="1419"/><glyph d="M649 1053q143 0 254 -56.5t209 -207.5t94 -433q2 -336 -168 -544.5t-448 -208.5q-199 0 -357 100l60 127q131 -63 300 -63t285.5 139t131.5 360q-182 -106 -402 -106t-350.5 114.5t-130.5 317.5t148.5 332t373.5 129zM656 889q-156 0 -245 -81t-89 -217q0 -267 280 -267 q223 0 408 106q-16 219 -107 339t-247 120z" glyph-name="nine.tnum.oldstyle" horiz-adv-x="1353"/><glyph d="M1389 696.5q0 -200.5 -75 -365.5t-218.5 -262.5t-326.5 -97.5t-326.5 97.5t-220.5 262.5t-77 365q0 201 77 367t220.5 263t326.5 96t326.5 -98t218.5 -262t75 -365.5zM768 1237q-184 0 -302 -150.5t-118 -389.5t119 -390t302 -151t301 151.5t118 389t-118 389t-302 151.5 z" glyph-name="glyph534" horiz-adv-x="1536"/><glyph d="M508 874q184 0 300 -129t116 -317t-116 -317t-299 -129t-299 129t-116 318t115 317t299 128zM508 760q-123 0 -199 -92.5t-76 -239.5t76 -239.5t199 -92.5t198.5 92.5t75.5 239.5t-75.5 239.5t-198.5 92.5z" glyph-name="zero.dnom" horiz-adv-x="1015"/><glyph d="M442 113h187v-113h-533v113h209v589l-186 -81l-49 102l295 133h77v-743z" glyph-name="one.dnom" horiz-adv-x="702"/><glyph d="M752 113v-113h-670v162q0 125 107.5 177.5t144.5 68.5q38 16 114 50t121 66.5t45 91.5q0 143 -239 144q-125 0 -230 -33l-47 98q131 49 297 49q356 0 357 -241q0 -57 -20.5 -101.5t-45 -68t-42 -37.5t-53.5 -32.5t-56.5 -28t-61.5 -26.5t-109 -49t-105.5 -61.5 t-37.5 -83.5v-32h531z" glyph-name="two.dnom" horiz-adv-x="849"/><glyph d="M770 242q0 -117 -104.5 -188.5t-275.5 -71.5t-310 53l55 108q119 -47 245 -47t188.5 43t62.5 109t-55.5 102.5t-149.5 36.5h-154v115h140q84 0 133 33t49 91t-56 96t-164 38t-206 -39l-49 106q123 47 275 47t245.5 -64.5t93.5 -168.5q0 -63 -40.5 -112t-114.5 -74 q90 -25 141 -81.5t51 -131.5z" glyph-name="three.dnom" horiz-adv-x="872"/><glyph d="M672 317h135v-112h-135v-205h-137v205h-480v86l453 565h164v-539zM535 317v410l-318 -410h318z" glyph-name="four.dnom" horiz-adv-x="886"/><glyph d="M698 743h-432v-237q76 23 162 22q150 0 244 -70.5t94 -193.5t-105.5 -202.5t-271.5 -79.5t-297 51l55 106q111 -43 231 -43t183.5 47t63.5 123t-58.5 117t-164.5 41t-205 -43l-66 61l-2 414h569v-113z" glyph-name="five.dnom" horiz-adv-x="860"/><glyph d="M516 874q133 0 236 -63l-52 -109q-88 56 -198 56t-184 -81t-76 -220q129 86 266 86t226 -67.5t89 -199.5t-99 -213t-251 -81q-94 0 -168 34.5t-138.5 125t-64.5 284.5q0 193 114 320.5t300 127.5zM502 438q-137 0 -260 -82q4 -117 61 -189.5t159 -72.5t163 50.5t61 132 t-50 121.5t-134 40z" glyph-name="six.dnom" horiz-adv-x="911"/><glyph d="M63 743v113h633v-88l-403 -768h-150l410 743h-490z" glyph-name="seven.dnom" horiz-adv-x="745"/><glyph d="M479 -18q-166 0 -271.5 70.5t-105.5 187.5q0 164 201 211q-164 49 -164 190q0 104 94.5 168.5t244.5 64.5t244.5 -64.5t94.5 -168.5q0 -141 -164 -190q203 -47 201 -211q0 -117 -104.5 -187.5t-270.5 -70.5zM479 762q-90 0 -145 -37t-55 -97t51 -94t149 -34t148.5 34 t50.5 94t-54.5 97t-144.5 37zM715 255q-1 146 -237 146t-236 -146q0 -71 65.5 -116t171 -45t171 45t65.5 116z" glyph-name="eight.dnom" horiz-adv-x="956"/><glyph d="M426 874q138 0 262.5 -88t120.5 -340q2 -207 -111.5 -335.5t-300.5 -128.5q-133 0 -237 63l51 109q87 -56 197 -56t186 81t78 220q-130 -86 -268 -86t-226 68t-88 200t99 212.5t237 80.5zM448 762q-102 0 -161.5 -50t-59.5 -132t50.5 -122t134.5 -40q137 0 260 82 q-6 117 -64 189.5t-160 72.5z" glyph-name="nine.dnom" horiz-adv-x="913"/><glyph d="M508 1462q184 0 300 -129t116 -317.5t-116 -317.5t-299 -129t-299 128.5t-116 318.5t115 318t299 128zM233 1016q0 -147 76 -239.5t199 -92.5t198.5 92t75.5 239.5t-75.5 239t-198.5 92.5t-199 -91.5t-76 -239.5z" glyph-name="zero.numr" horiz-adv-x="1015"/><glyph d="M442 690h187v-112h-533v112h209v590l-186 -82l-49 102l295 134h77v-744z" glyph-name="one.numr" horiz-adv-x="702"/><glyph d="M752 690v-112h-670v161q0 89 63.5 140t116.5 74.5t157 69.5t149.5 80t45.5 91q-2 141 -239 143q-123 -2 -230 -32l-47 98q129 49 297 49q354 0 357 -244q0 -68 -19.5 -100.5l-30 -50t-37 -37t-40 -29.5t-49 -27.5t-50 -24.5t-58.5 -25t-106 -46t-101.5 -62t-39.5 -83v-33 h531z" glyph-name="two.numr" horiz-adv-x="849"/><glyph d="M733 1219q0 -135 -155 -187q90 -25 141 -81t51 -132q0 -117 -104.5 -188.5t-275.5 -71.5t-310 53l55 109q119 -47 245 -47t188.5 42t62.5 107t-55.5 103.5t-149.5 38.5h-154v114h140q84 0 133 34t49 91t-56 95t-164 38t-206 -39l-49 107q123 47 275 47t245.5 -64.5 t93.5 -168.5z" glyph-name="three.numr" horiz-adv-x="872"/><glyph d="M672 893h135v-113h-135v-202h-137v202h-480v88l453 566h164v-541zM535 893v412l-318 -412h318z" glyph-name="four.numr" horiz-adv-x="886"/><glyph d="M698 1321h-432v-238q76 23 162 23q150 0 244 -70.5t94 -194.5t-105.5 -203t-271.5 -79t-297 51l55 107q111 -43 231 -43t183.5 47t63.5 123t-58.5 116.5t-164.5 40.5t-205 -43l-66 62l-2 414h569v-113z" glyph-name="five.numr" horiz-adv-x="860"/><glyph d="M516 1452q133 0 236 -63l-52 -109q-88 53 -198 54t-184 -79.5t-76 -220.5q129 84 266 85t226 -66.5t89 -199.5t-99 -213t-251 -81q-94 0 -168 35t-138.5 125.5t-64.5 282.5t114 321t300 129zM502 1016q-137 0 -260 -82q4 -117 61 -189.5t159 -72.5t163 50t61 132t-50 122 t-134 40z" glyph-name="six.numr" horiz-adv-x="911"/><glyph d="M63 1321v113h633v-88l-403 -768h-150l410 743h-490z" glyph-name="seven.numr" horiz-adv-x="745"/><glyph d="M479 559q-166 0 -271.5 70.5t-105.5 187.5q0 164 201 211q-164 49 -164 191q0 104 94.5 168.5t244.5 64.5t244.5 -64.5t94.5 -168.5q0 -142 -164 -191q203 -47 201 -211q0 -117 -104.5 -187.5t-270.5 -70.5zM479 1339q-90 0 -145 -36.5t-55 -96.5t51 -94.5t149 -34.5 t148.5 34t50.5 94t-54.5 97t-144.5 37zM478.5 672q105.5 0 171 44t65.5 116q0 147 -236 147q-117 0 -177 -38.5t-60 -108.5t65.5 -115t171 -45z" glyph-name="eight.numr" horiz-adv-x="956"/><glyph d="M426 1452q138 0 262.5 -90t120.5 -338q2 -209 -111.5 -337t-300.5 -128q-133 0 -237 62l51 108q87 -53 197 -53t186 80t78 219q-130 -84 -268 -84t-226 67.5t-88 199.5t99 213t237 81zM448 1337q-102 0 -161.5 -49t-59.5 -131t50.5 -123t134.5 -39q137 0 260 82 q-6 115 -64 187.5t-160 72.5z" glyph-name="nine.numr" horiz-adv-x="913"/><glyph d="M590 1729q74 0 151 -27l-14 -143q-49 10 -105 10t-94.5 -42t-38.5 -118v-485q0 -154 -88 -228q88 -72 88 -225v-485q0 -76 38.5 -118t94.5 -42t105 10l14 -143q-78 -25 -151 -25q-121 0 -198 80t-77 238v485q0 72 -35.5 112t-99.5 40h-37v149h37q63 0 99 40t36 112v485 q0 158 77 239t198 81z" glyph-name="braceleft.aalt" horiz-adv-x="802"/><glyph d="M213 1729q121 0 197.5 -81t76.5 -239v-485q0 -72 36 -112t100 -40h36v-149h-36q-63 0 -99.5 -40t-36.5 -112v-485q0 -158 -76.5 -238t-197.5 -80q-74 0 -150 25l13 143q48 -10 106 -10t94.5 42t36.5 118v485q0 154 88 225q-88 74 -88 228v485q0 76 -36.5 118t-94.5 42 t-106 -10l-13 143q76 27 150 27z" glyph-name="braceright.aalt" horiz-adv-x="802"/><glyph d="M383 1569v-1729h315v-143h-491v2015h491v-143h-315z" glyph-name="bracketleft.aalt" horiz-adv-x="761"/><glyph d="M555 1712v-2015h-492v143h316v1729h-316v143h492z" glyph-name="bracketright.aalt" horiz-adv-x="761"/><glyph d="M350 650q0 -286 90 -531.5t256 -413.5l-71 -98q-215 160 -337 435t-122 609t119.5 609.5t332.5 435.5l74 -101q-164 -168 -253 -413.5t-89 -531.5z" glyph-name="parenleft.aalt" horiz-adv-x="800"/><glyph d="M635 651q0 -334 -122 -609t-337 -435l-72 98q166 168 256.5 413.5t90.5 531.5t-89 531.5t-253 413.5l73 101q213 -160 333 -435.5t120 -609.5z" glyph-name="parenright.aalt" horiz-adv-x="800"/></font>
</defs>
</svg>
