<svg xmlns="http://www.w3.org/2000/svg" viewBox="0 0 135.25 75.3"><defs><style>.cls-1{fill:#b0851e;}</style></defs><title>Asset 1</title><g id="Layer_2" data-name="Layer 2"><g id="navigation"><path class="cls-1" d="M62.94,3.84A8.15,8.15,0,0,0,54.8,12V61.9a8.15,8.15,0,0,0,16.29,0V12A8.15,8.15,0,0,0,62.94,3.84Zm0,64.42a6.37,6.37,0,0,1-6.36-6.36V12A6.36,6.36,0,0,1,69.3,12V61.9A6.37,6.37,0,0,1,62.94,68.26Z"/><path class="cls-1" d="M95.08,3.76H86.7V70h8.38a8.15,8.15,0,0,0,8.14-8.14V11.91A8.15,8.15,0,0,0,95.08,3.76Zm0,64.42H88.48V5.55h6.59a6.37,6.37,0,0,1,6.36,6.36V61.83A6.37,6.37,0,0,1,95.08,68.19Z"/><path class="cls-1" d="M127.11,3.76h-8.38V70h8.38a8.15,8.15,0,0,0,8.14-8.14V11.91A8.15,8.15,0,0,0,127.11,3.76Zm0,64.42h-6.59V5.55h6.59a6.37,6.37,0,0,1,6.36,6.36V61.83A6.37,6.37,0,0,1,127.11,68.19Z"/><path class="cls-1" d="M20,1.79V0h-.09a5.48,5.48,0,0,0-5.47,5.47V61.95A6.37,6.37,0,0,1,8.1,68.3a6.37,6.37,0,0,1-6.31-6.36V8.3A2.78,2.78,0,0,1,4.56,5.52h.09V3.74H4.56A4.56,4.56,0,0,0,0,8.27H0V61.95a8.17,8.17,0,0,0,8,8.14h.28a8.17,8.17,0,0,0,8-8.14V5.47a3.69,3.69,0,0,1,3.68-3.68Z"/><path class="cls-1" d="M79.76,69.83V5.12l0-.09h0a5.48,5.48,0,0,0-5.45-5H74.2V1.79h.09A3.69,3.69,0,0,1,78,5.47V69.83a5.48,5.48,0,0,0,5.47,5.47h.09V73.51h-.09A3.69,3.69,0,0,1,79.76,69.83Z"/><rect class="cls-1" x="110.04" y="0.03" width="1.79" height="2.73"/><path class="cls-1" d="M31.33,3.74h-.28a8.17,8.17,0,0,0-8,8.14V69.83a3.69,3.69,0,0,1-3.68,3.69h-.09V75.3h.09a5.48,5.48,0,0,0,5.47-5.47V11.88a6.31,6.31,0,1,1,12.62,0V65.41a2.78,2.78,0,0,1-2.77,2.77h-.09V70h.09a4.57,4.57,0,0,0,4.56-4.56V11.88A8.17,8.17,0,0,0,31.33,3.74Z"/><path class="cls-1" d="M46.21,5h0v64.8a3.69,3.69,0,0,1-3.68,3.69h-.09V75.3h.09A5.48,5.48,0,0,0,48,69.83V18.13h3V16.35H48V5.47a3.69,3.69,0,0,1,3.68-3.68h.09V0h-.09A5.48,5.48,0,0,0,46.21,5Z"/><path class="cls-1" d="M111.82,69.83V5.35H110V69.83a5.48,5.48,0,0,0,5.47,5.47h.09V73.51h-.09A3.69,3.69,0,0,1,111.82,69.83Z"/></g></g></svg>